<svg xmlns="http://www.w3.org/2000/svg" viewBox="0 0 384.7 543.5"><path fill="#634222" d="M269.8 223.1c-3.3-15.5-6.6-31-9.9-46.6-1.8-8.3-3.6-16.7-8-24-5.2-8.7-13.6-14.9-21.8-20.9-18.9-13.7-39.2-28-62.4-29.7-5.1-1.2-10.3-2.1-15.4-2.8-9.5-1.4-19-2.5-28.6-3.4-1.9-.2-3.9-.3-5.5.7s-2.2 2.8-2.8 4.5c-4.7 14.9-7.5 30.1-8.5 45.4-.2-.1-.4-.2-.6-.2-6.5 23.1-13.1 46.2-19.6 69.3-1 3.6-2.1 7.3-4.4 10.2-2 2.5-4.7 4.2-7.4 5.8-10.7 6.6-21.4 13.2-32.2 19.8-1.1.7-2.4 1.7-2.2 3.1.1.6.6 1.1 1.1 1.6 3.1 3.1 6.2 6.3 9.2 9.4 1.5 1.6 3.3 3.2 5.5 3.5 2 .2 3.9-.8 5.7-1.8 11.5-6.7 22.3-14.5 32.2-23.3 2.5-2.2 5-4.6 7-7.2 3.4-4.4 5.4-9.7 7.4-14.9 4.8-12.4 9.6-24.7 14.4-37.1 1.8 1 3.4 2.1 4.6 3.7 3.3 4.4 1.5 10.5-.2 15.9-8.9 27.6-12.8 56.2-11.4 84.5 36.9 3.5 75.2-1.4 110.5-14.2 2.7-34.9-.2-69.8-8.5-103.4 13.5 20.8 20.1 45.9 26.3 70.3 7.2-1.3 14.2-3.7 20.7-7.1 2-1 4-2.2 4.9-4.2.8-2.1.3-4.6-.1-6.9z"/><path fill="#5B5B5A" d="M133.5 36.6c6.1 1.6 12.3 3.3 18.4 4.9 1 2 2.6 3.6 4.5 4.7-4.3-.6-8.8.2-12.6 2.5 6.5 1.4 14 3.8 15.8 10.2l-3.6.3c.2 4 .9 8.1 2 11.9-5.7 2.5-11.4 4.9-17.1 7.4-8-11.8-16.8-23-26.3-33.6-.9-1-1.8-2-2.2-3.2-.7-1.9-.3-4.1.7-5.9 2.3-4.4 7.4-6.7 12.3-7.1 4.9-.4 9.8.9 14.6 2.1 1.9.5 3.7 1 5.6 1.4-4.3.7-8.4 2.2-12.1 4.4z"/><path fill="#FF7110" d="M158.7 57.3c-5-.8-9.3 3.4-11.7 7.9-1.1 2.2-2.1 4.5-3.1 6.7-5.2-7.9-10.8-15.7-16.8-23.2-3.4-4.2-6.9-8.4-11.6-11.6-9.8-6.6-24.3-7.7-35.7-2.9C68.4 39 60.7 49.6 61 60.2c.2 9.2 5.8 17.6 7.2 26.7 1 7-.5 14.3-4.5 20.6-7 11.4-21.6 20.4-21.9 33.1-.2 9.8 8.8 18.2 19 22.9 7.9 3.7 17.2 5.8 26.2 4.4 11-1.7 19.9-8.2 28.3-14.5 6-4.5 11.9-9 17.9-13.5 9.2-6.9 18.8-14.3 22.6-24 3.9-10 1.2-20.4-3.7-30.2 1.8.2 3.7.2 5.4.2 2.3 0 4.7-.1 6.6-1.5 2.7-2 3.1-5.9 3.1-9.3.3-7.1-1.3-16.6-8.5-17.8z"/><path d="M90.9 75.6s.9-.1 2.5.2c1.6.3 3.8.9 6.1 1.8 2.4.9 4.9 2.3 7.4 3.6 1.2.6 2.3 1.1 3.5 1.3.6.1 1.3 0 2.1-.3.8-.4 1.6-.9 2.5-1.6v.8c0 .3 0 .6-.1.9-.1.4-.2.8-.4 1.2-.4.9-1.1 2.1-2.5 2.9-1.4.9-3.2 1.2-5 1.1-3.5-.3-6.7-1.9-9.4-4-1.3-1.1-2.6-2.3-3.7-3.6-1.1-1.3-2-2.8-3-4.3zM76.9 82.7v.4c0 .3.1.7.1 1.3.1 1.2 0 2.9-.1 5.1-.2 2.2-.5 4.9-.8 7.9-.3 3-.6 6.5-.5 10.1.1 3.6.7 7.4 2.8 10 .5.7 1.1 1.3 1.8 1.8.2.2.4.3.6.4l.3.2c.1.1.2.1.2.1.2.1.4.2.7.2.6.1 1.4.1 2.3-.1.9-.2 2-.5 3-.9 2.1-.8 4.3-1.9 6.5-3.2 2.2-1.3 4.5-2.7 6.8-4.1 4.6-2.9 9.3-6.2 14.3-9.4 0 0-.5.6-1.3 1.6-.9 1-2.1 2.5-3.8 4.4-1.7 1.8-3.7 4-6.2 6.4-2.5 2.4-5.4 4.9-9 7.4-1.8 1.2-3.8 2.4-6.1 3.3-1.2.5-2.4.9-3.8 1.1-1.4.2-3.1.3-4.8-.2-.4-.1-.9-.3-1.3-.5l-.6-.3c-.2-.1-.3-.2-.5-.3-.6-.4-1.2-.8-1.8-1.3-1.1-.9-2.2-2.1-3-3.3-1.7-2.5-2.5-5.5-2.8-8.2-.5-5.6.7-10.8 2.2-15.7.8-2.5 1.6-4.8 2.5-7.2.8-2.3 1.7-4.6 2.3-7z"/><path fill="#5B5B5A" d="M86.2 60.5s.7-.7 2-1.7c.3-.3.7-.5 1.2-.8.4-.3.9-.5 1.5-.8 1.1-.5 2.3-1.1 3.7-1.5.7-.2 1.5-.4 2.2-.5.8-.2 1.6-.2 2.5-.3 1.7-.2 3.5 0 5.4.2 3.7.6 7.7 2.2 11.3 4.9 0 0-1.1.3-2.9.5-.9.1-2 .3-3.2.4-.6.1-1.2.1-1.9.2s-1.3.1-2 .2c-1.4.1-2.9.2-4.4.2-.8 0-1.6.1-2.4.1-.8 0-1.6-.1-2.4 0-3.3-.3-6.7-.4-10.6-1.1zM58.8 77s-.1-.2-.1-.5c-.1-.3-.2-.8-.2-1.4-.1-1.2.2-3 1.3-4.9 1.1-1.8 3-3.5 5.4-4.4 2.4-.9 5.3-1 8.4 0 0 0-.5.6-1.3 1.5s-2 2.1-3.3 3.2c-1.3 1.2-2.8 2.3-4.4 3.2-1.6 1.1-3.4 1.9-5.8 3.3z"/><path d="M68 145.5h-.4c-.3 0-.7.1-1.2.1h-.9c-.3 0-.7-.1-1.1-.2-.8-.1-1.7-.4-2.7-1-1-.6-1.9-1.4-2.7-2.5-.4-.6-.8-1.2-1.1-1.9l-.2-.5c-.1-.2-.1-.5-.2-.7-.1-.3-.1-.5-.2-.8 0-.3-.1-.5-.1-.8-.1-.5-.2-1.1-.3-1.7l-.1-.4v-.4c.2-.1.5-.2.7-.3l3.3-1.5.4-.2.3-.1.6-.2c.4-.1.9-.3 1.3-.4.9-.3 1.8-.4 2.7-.6 3.8-.7 7.8-.7 11.9-.5 4.1.2 8.3.5 12.7.5 4.4 0 8.9-.4 13.6-1.3 4.8-.9 9.6-2.5 14.7-4.2 0 0-.5.4-1.5 1.1-.5.4-1.1.8-1.8 1.3s-1.5 1.1-2.5 1.7c-1 .6-2.1 1.2-3.2 1.9-1.2.7-2.6 1.2-4 1.9-.4.2-.7.3-1.1.5-.4.1-.8.3-1.2.4-.8.3-1.6.6-2.5.8-.8.3-1.7.5-2.6.7-.9.2-1.8.5-2.8.6-3.8.7-8 1-12.3.9-4.3-.1-8.6-.6-12.8-.8-1 0-2.1-.1-3.1 0l-1.5.1h-.8l-.7.1c-.9.1-2.3.3-2.4.3l-.6.1h-.2v.1c0 .1-.1.1-.1.2 0 .2-.1.4-.1.6l.1.7c0 .2.1.4.2.7.2.9.6 1.7 1.2 2.5 1.2 1.6 3.1 2.7 5.3 3.2z"/><ellipse transform="rotate(-3.505 106.968 70.5) scale(.99997)" cx="107" cy="70.5" rx="5.8" ry="6.5"/><ellipse transform="rotate(-3.505 67.897 79.28) scale(.99997)" cx="67.9" cy="79.3" rx="4.4" ry="4.9"/><path d="M178.2 502c-3.7 2.1-6.8 4.9-10.3 7.3-4.4 3.1-9.3 5.5-14.4 7.6-10.5 4.2-21.8 6.8-33.1 7.4.1 2.5.3 5 .4 7.5 37.5-1.6 74.9-3.8 112.4-6.5.5-8.6.3-18.7-6.6-23.8-3.9-2.8-8.9-3.3-13.6-3.7-11.8-.9-24.5-1.7-34.8 4.2zM95.1 487c-3.7 2.1-6.8 4.9-10.3 7.3-4.4 3.1-9.3 5.5-14.4 7.6-10.5 4.2-21.8 6.8-33.1 7.4.1 2.5.3 5 .4 7.5 37.5-1.6 74.9-3.8 112.4-6.5.5-8.6.3-18.7-6.6-23.8-3.9-2.8-8.9-3.3-13.6-3.7-11.8-.9-24.4-1.6-34.8 4.2z"/><path fill="#FF7110" d="M10.2 256.7c-4.3 2.4-8.1 6.1-9.6 10.8-2.1 6.6 1 14.3 6.8 18.1 5.8 3.8 13.7 3.7 19.8.3 2.6-1.4 4.8-3.4 7.4-4.7 2.7-1.3 5.8-1.9 8.4-3.4 2.7-1.4 5-4.2 4.7-7.2-.2-1.3-.8-2.4-1.4-3.5-3.6-5.8-8.9-10.5-15.1-13.4-7-1.6-14.6-.5-21 3zM288.6 241.2c-1.5-2.3-3.9-4.4-6.7-4.4-1.5 0-3.1.5-4.6.2-1.5-.3-2.9-2.1-1.9-3.3-10.6.8-18.8 12.3-29.3 11.1-1 6.1 2.7 12.3 7.9 15.7 5.2 3.4 11.6 4.4 17.8 4.3 4-.1 8.2-.5 11.7-2.5 6.9-4.1 9.4-14.3 5.1-21.1z"/><path fill="#7A3709" d="M34.5 276.1l13 78-2 99 2 70-15 3 1-70 3-100-16-78s6-7 14-2z"/><path fill="#3D4766" d="M223.6 378.9c1.9-22 5.7-44.3 5.6-66.3-6.3-1.4-12.7-2.8-19-4.2-.4-2 .8-3.9 1.5-5.8 1.7-4.6.7-9.7 1-14.7-30 9.9-65 1.4-97.4 4.9-9 60.8 4.9 123.1-2.8 184.1-3.8 1.2-7.7 2.4-11.5 3.5 2.5 6.3 4.2 12.9 5.1 19.6 15-.5 29.9-1.7 44.8-3.3 6.9-51 9.6-102.6 8.1-154 11.3 38.1 14.7 78 18 117.6.9 10.4 1.7 20.8 2.6 31.2-2.6 1.5-5.1 2.9-7.7 4.4 0 5.1 1 10.1 2.9 14.8 19.4-.8 38.8-1.6 58.1-2.4-10-42.2-13.1-86.1-9.3-129.4z"/><g><path fill="#5D708C" d="M335.8 176.2c11 18.8 16.9 40.1 22.6 61.2 2.2 8.2 5.5 32.4 7.7 40.5 1.5 5.4 3.9 11.9 3.3 12.2-4.2 2.1-12.8 4.4-16.4 4.5-17.3-44.6-32.7-106.4-44-152.9 9.9 10.8 19.5 22 26.8 34.5z"/><path fill="#5D708C" d="M334.5 276.3c.7-24.8.5-49.8-2.3-74.5-2-17.6-5.4-35.4-14.4-50.6-9-15.2-24.5-27.5-42.2-28.5-13.5-.8-26.7 5-37.2 13.5-10.5 8.5-18.6 19.5-26.1 30.7-6.2 9.3-12.3 19.4-12.5 30.5-.2 11.1 7.9 23.2 19 23.2-9.9 21.7-14 46-11.9 69.8.2 2.2.5 4.6 2 6.2 1.7 1.9 4.4 2.3 6.9 2.7 37.1 5 77.1 9.5 109.9-8.5 2.7-1.5 5.4-3.2 6.9-5.9 1.7-2.6 1.8-5.7 1.9-8.6z"/><path fill="#5B5B5A" d="M248.3 49.5c-4.7-4-11.4-4.4-17.6-4.6-4.4-.2-8.8-.3-13.3-.5-4.1-.1-8.4-.3-12.3 1.2-5.9 2.2-10.2 8.1-10.6 14.3s3.4 12.6 9.1 15.3c-3.6 6.1-6.3 13.9-2.8 20 1.3 2.3 3.3 4.1 5.5 5.5 6.9 4.5 15.6 6.1 23.6 4.3s15.2-7 19.4-14.1c3.9-6.6 5.3-14.4 5.4-22.1.3-6.9-1-14.7-6.4-19.3z"/><path fill="#FF7110" d="M223.3 51.6c-1.1 2.1-1.2 4.6-1.3 7-.8 14.7-5 28.9-8.3 43.3-2.6 11.2-4.6 23.2-.7 34.1 5 14.1 20.1 23.6 35.1 23.1s29-10.3 35.6-23.7c6.6-13.5 6.2-29.3 4.5-44.3-1.6-14-4.5-28.9-14.2-39-11.7-12.2-32.6-14.2-46.5-4.5-1.8 1-3.3 2.3-4.2 4z"/><path fill="#5B5B5A" d="M339.9 41.1c4.3 7.5 3.5 16.9 2.3 25.5 19.6 4.4 35 25 31 44.7-1.1 5.6-3.6 10.9-6.7 15.7-8.2 12.8-21.3 22.8-36.2 25.6-15 2.8-31.6-2.5-40.8-14.6s-9.6-30.7.5-42.1c-10-5.5-16.2-17.2-15.1-28.6-8.8 3.2-18 6.5-27.2 5s-18.1-9.5-17.1-18.7c-6 3.7-14.6-.4-17.5-6.8-2.9-6.5-1.3-14.2 1.8-20.5C222.5 10.3 240-.4 257.7 0s34.7 11.8 41.7 28.1c14.9-.8 33 0 40.5 13z"/><path d="M231.5 90.9s-.3.2-.8.6c-.3.2-.6.4-.9.7-.3.3-.7.6-1 1.1-.7.8-1 1.9-.8 3.1.2 1.2.9 2.5 1.9 3.9 1 1.4 2.5 2.8 4.1 4 1.6 1.3 3.5 2.4 5.3 2.9.9.2 1.7.3 2.6.1.8-.2 1.7-.6 2.6-1.5l.3-.3.3-.4.6-.8c.4-.6.8-1.2 1.1-1.9.3-.7.7-1.4 1-2.1.3-.7.6-1.5 1-2.3 0 0 .1.4.2 1.1 0 .4.1.8.2 1.4v1.9c0 1.4-.2 3.2-1.1 5.3-.3.5-.5 1-.8 1.5-.4.5-.7 1.1-1.3 1.5-.5.5-1.1 1-1.8 1.3-.3.2-.7.4-1 .5-.4.1-.7.2-1.1.4-.4.1-.8.2-1.2.2-.4 0-.8.1-1.2.1-.8 0-1.6 0-2.3-.2-1.5-.2-2.9-.8-4.3-1.5-2.6-1.4-5-3.4-6.8-6-.9-1.3-1.6-2.7-2.1-4.3-.5-1.6-.7-3.4-.3-5.3.1-.5.3-.9.5-1.4l.3-.6.4-.6.4-.6.5-.5c.4-.3.7-.6 1.1-.7 1.4-.6 3-.6 4.4-.6z"/><path fill="#8E0A0A" d="M225.5 123.4s.3-.1.7-.3c.5-.2 1.2-.5 2.2-.7 1.9-.5 4.7-1 7.8-1.4 1.5-.2 3.1-.6 4.4-1 1.5-.5 2.9-1.2 4.5-2.1 1.6-.9 3.3-2.2 5.4-3.5 2-1.3 4.5-2.5 7.1-3 0 0-.2.3-.5.7-.4.5-.8 1.1-1.4 2-.6.9-1.3 1.9-2.1 3.1-.8 1.2-1.7 2.6-3 4s-2.9 2.9-5.1 4c-.5.3-1.1.5-1.6.7-.6.2-1.1.4-1.8.5-.6.1-1.3.2-1.9.3-.6.1-1.2.1-1.8.1-4.7-.1-8.8-1.7-12.9-3.4z"/><path d="M245.5 82.4s.6-.5 1.6-1.2 2.4-1.5 4.3-2.1c1.9-.6 4.3-.9 7.2 0 1.4.5 2.8 1.2 4 2.5 1.1 1.3 1.8 2.9 1.8 4.6 0 0-.2-.1-.5-.2s-.8-.3-1.3-.4c-1.1-.3-2.5-.4-4.1-.4-1.6 0-3.4.1-5.6-.2-2.4-.3-5-.9-7.4-2.6zM227.4 82.9s-.1.5-.4 1.3c-.2.4-.4.8-.7 1.2-.3.4-.7.9-1.2 1.2-.9.7-2.2 1.2-3.6.8-1.4-.3-2.9-1.4-4-3.5 0 0 .4-.4 1-.9.3-.2.7-.5 1-.8.2-.1.4-.2.6-.4.2-.1.4-.3.6-.4.4-.2.9-.4 1.3-.5.5-.1.9-.2 1.4-.1 1.2.3 2.3.8 4 2.1z"/><path fill="none" stroke="#000" stroke-miterlimit="10" d="M247.8 86.1c-.3 5.9 4.9 11.5 10.7 11.6"/><path fill="#2E3844" d="M277.3 308.2c21 .1 44.5-2.9 57.7-19.2 7.8 12.7 8.2 28.5 8.4 43.4.8 55.6 1.5 111.2 2.3 166.8-23.2 8.9-45.4 4.3-68.2 6.8-28.3 3.1-56.9.1-85-4.2-3.6-67.1 2.7-134.7 18.8-199.9 21.8 4 43.9 6.2 66 6.3z"/><path d="M342.5 538.1c2.7-11.1 3.7-22.6 3-34-10.3.8-20.6 2.2-30.8 4.2-1.8.3-3.6.7-5.3 1.5-3.8 1.7-6.6 5.1-9.2 8.4-2.4 3-4.7 6-7.1 9-2.9 3.7-6.1 8-5.5 12.7 15.4 2.3 31.5-1 44.8-9 .1 2.4.1 4.8.2 7.3 3.2-.1 6.6-.1 9.9-.1zM281.5 541.1c2.7-11.1 3.7-22.6 3-34-10.3.8-20.6 2.2-30.8 4.2-1.8.3-3.6.7-5.3 1.5-3.8 1.7-6.6 5.1-9.2 8.4-2.4 3-4.7 6-7.1 9-2.9 3.7-6.1 8-5.5 12.7 15.4 2.3 31.5-1 44.8-9 .1 2.4.1 4.8.2 7.3 3.2-.1 6.6-.1 9.9-.1z"/><path fill="#FF7110" d="M382.8 302.7c-1.1-2.2-2.7-4.1-4.4-6-1.4-1.6-3-3.3-5.1-3.8-2-.5-4.2.3-6.1 1l-14.4 5.4c-1.2 3.8-2.4 7.9-1.8 11.8.3 1.8 1 3.6 2 5.2.9.5 1.8-.6 2.7-1.1 1.9-1.2 4.5.2 5.8 2 1.3 1.9 1.8 4.2 3.2 6 2 2.6 5.6 3.6 8.8 3s6-2.7 7.9-5.4c3.8-5.1 4.3-12.5 1.4-18.1z"/></g></svg>