<svg xmlns="http://www.w3.org/2000/svg" viewBox="0 0 250.6 301.6"><ellipse fill="#686868" cx="237.6" cy="275.5" rx="13" ry="17.5"/><ellipse fill="#686868" cx="170.3" cy="260.9" rx="9.7" ry="13"/><path d="M137.1 227.9c1.6 16.6 6.5 32.7 11.5 48.6 1.4 4.4 2.7 8.8 4.1 13.1-1.7 1.4-4.1 1.8-6.2 1.2-9.8-19.7-17.3-40.6-22.2-62 4.2-.3 8.5-.6 12.8-.9zM231.7 280.7c-5.6-16.8-11.3-33.7-16.9-50.5-.4-1.3-.9-2.8-.2-4 1.3-2.3 5.6-1.5 6.6-3.9 6.1 19.6 12.6 39.1 19.4 58.5-3 0-6 0-8.9-.1zM88.5 225.6c-.8 18-2.7 36-5.4 53.8-2.4 0-4.8 0-7.2.1-1.3-18.1.5-36.5 5.5-54 2.3 0 4.7.1 7.1.1zM166.3 234.4c.7-4 2.2-8.7 6.1-9.8 2.7 12.1 2.8 24.9.2 37h-7.8c-.5-9.1 0-18.2 1.5-27.2z"/><path fill="#2E8412" d="M224.4 175.7c-.2-1.3-.5-2.6-1.4-3.5l.6-.9c-17.4-2.4-34.8-4.9-52.1-7.3-2.5-.4-5.2-.8-7.3-2.2-2.7-1.9-4.1-5.1-5.4-8.2-20.3-50.2-38-101.6-53-153.6-13.2 3.1-26.3 6.2-39.4 9.3-1.1 5.6-.2 11.5 2.4 16.5 7.1-6.2 15.2-12.7 24.6-12.3 1.8.1 3.6.6 5.2 1.4.9 6.7 2.1 13.4 3.6 20-1.9 1.1-4.2 1.8-6.4 2.5-11.7 3.4-23.4 6.8-35.1 10.3-1.4-7.9-2.8-15.9-4.2-23.8-.6-3.7-1.8-8.1-5.4-9.3-2.6-.9-5.4.3-7.8 1.4C29 22.8 14.5 29.6 0 36.3c.6 4.2 1.1 8.5 1.7 12.7 11.4-5.5 23.7-9.5 36.2-11.6C48.3 91.8 59.8 145.9 71.3 200c2.1 10 4.3 20 6.4 30 .5 2.5 1.1 5.1 2.7 7 2.1 2.6 5.4 3.6 8.6 4.4 12.4 3 25.3 3.2 38.1 2.6.1.5.2.9.4 1.4 33.2-4.8 66.5-8.9 100-12.1 1.2-19.2.1-38.6-3.1-57.6z"/><path d="M53.9 95.5c3.8-.8 6.2-4.7 6.5-8.5.3-3.8-.9-7.6-2.2-11.2 1.5 1.3 3.9.2 5-1.4 1.2-1.6 1.7-3.6 2.9-5.1 2.5-3.1 7.2-3.3 11.2-3.1 4.6.1 9.1.3 13.7.4 1.4 0 2.8.1 4 .8 2.4 1.5 2.7 4.8 2.6 7.6-.3 9.8-1.8 19.7-6 28.6-2.9 6-7.2 11.7-13.4 14.3s-14.3 1.2-17.9-4.4c-.7-1.1-1.3-2.4-1-3.7.3-1.4 1.7-2.5 2-3.9 1.2-4.4-6.4-6-7.4-10.4z"/><ellipse fill="#686868" cx="78.3" cy="278.8" rx="14.3" ry="20.1"/><ellipse fill="#686868" cx="142" cy="284.7" rx="14.3" ry="16.9"/><ellipse fill="#282828" cx="72.7" cy="279.9" rx="6.4" ry="13.8"/><ellipse fill="#282828" cx="137.7" cy="284" rx="7.5" ry="11.9"/><path fill="#6DCCBA" d="M160.3 53.4c5.1 0 10.2.1 15.3.1-1.7 22-6.6 43.7-14.4 64.4-1.4 3.7-2.9 7.6-2.6 11.5.7 7.5 7.6 12.7 10.4 19.7-9.6 3.5-19.1 7-28.7 10.5-4.9 1.8-10 3.6-15.2 3.9-5.4.2-10.7-1.2-15.8-2.6-18.3-5-36.5-10-54.8-15-2.9-.8-5.9-1.7-8.2-3.6-1.8-1.5-3-3.6-4.1-5.7-2.4-4.3-4.8-8.5-7.2-12.8-.8-1.4-1.6-2.9-1-4.4.4-1.1 1.3-1.8 2.2-2.4 3-2.1 6.1-4.2 9.2-6.2 3.1 5.5 6.2 11.1 9.3 16.6.6 1 1.2 2.1 2.2 2.7 1.5.8 3.3.3 4.9-.1 21-6.2 42-12.5 63-18.7 4-1.2 8.1-2.4 11.5-4.9 5.6-4.1 8.4-11.1 10.8-17.6 4.4-11.9 8.8-23.7 13.2-35.4z"/><path fill="#FF7110" d="M156.3 74.8c6 17.2 6.4 40-18.4 48.6s-65.4-.2-71.4-17.4 9.2-38.2 34-46.8 49.8-1.6 55.8 15.6z"/><path d="M102.1 113.5s-.1-.6-.3-1.7c-.2-1.1-.5-2.8-.7-4.9-.2-2.2-.4-4.8-.4-7.9 0-3.1.3-6.7 1.2-10.6.9-3.9 2.5-8.3 5.9-12.2 1.7-1.9 3.7-3.7 6.2-5 1.2-.6 2.5-1.2 3.9-1.6 1.3-.4 2.8-.7 4.4-.8 3.1-.2 6.4.7 8.9 2.4 2.6 1.7 4.6 4 6.1 6.4 3.1 4.9 4.7 10.5 5.4 16.2l-.9-1.8c-.6-1.2-1.5-2.8-2.7-4.9-1.2-2-2.8-4.4-4.9-6.6-2.1-2.3-4.8-4.5-7.8-5.2-.8-.2-1.5-.3-2.3-.3-.8 0-1.6.1-2.4.3-.8.2-1.7.5-2.5.8-.8.4-1.7.8-2.5 1.3-1.6 1-3 2.2-4.3 3.7-1.3 1.5-2.4 3.3-3.3 5.2-1.9 3.9-3.2 8.4-4.3 13.1-1 4.4-1.8 9.2-2.7 14.1zM104.9 114.7s1.6-.3 4.5-.8c2.9-.4 7-.9 12-1.4 2.5-.3 5.2-.5 8-.9 2.8-.3 5.8-.8 8.7-1.5 2.9-.7 5.7-1.7 7.3-3.9.8-1.1 1.3-2.6 1.4-4.3v-1.3c-.1-.5-.1-.9-.2-1.4-.1-1-.3-1.9-.5-2.9 0 0 .3.4.8 1.1.3.4.6.8.9 1.4.3.6.7 1.2 1 2.1.4.8.6 1.8.8 2.9 0 .6.1 1.2 0 1.8 0 .3-.1.6-.2 1-.1.3-.1.7-.2 1-.2.7-.5 1.4-.9 2-.4.7-.8 1.3-1.3 1.8-.5.6-1.1 1.1-1.7 1.6-.6.4-1.3.9-1.9 1.3-2.7 1.6-5.8 2.6-8.9 3.2-3.2.6-6.5.8-9.8.8-6.7 0-13.5-1.3-19.8-3.6zM77.1 85.5l-.3-.6c-.1-.4-.4-1-.5-1.7-.3-1.6-.1-4 1.1-6.5 1.1-2.5 3.2-5 6-6.9 2.8-1.9 6.4-3.1 10.5-3.1 0 0-.1.2-.4.6-.3.4-.7.9-1.1 1.5-1 1.3-2.4 2.9-4 4.8-1.6 1.8-3.5 3.7-5.4 5.6-1 .9-1.9 1.9-3 2.9-.8.9-1.9 1.9-2.9 3.4zM122.9 58.7s.4-.5 1.3-1.1c.4-.3 1-.6 1.6-.9.6-.3 1.4-.5 2.2-.6 1.6-.2 3.6 0 5.4 1 1.8 1 3.4 2.8 4.5 5.5 0 0-.7.2-1.7.3-1 .1-2.4.2-3.9.2-1.5-.1-3-.3-4.5-1-1.6-.7-3.1-1.7-4.9-3.4z"/><path fill="#D61A1A" d="M143.2 103.4c-.6 3.9-5.6 4.9-9.5 5.1-8.3.4-17.1.7-24.2-3.6 1.8-4.4 5.9-7.8 10.5-8.7 4.7-.9 9.7.6 13.1 3.9-.1-3-.1-6-.2-9 4.1 1.3 7.5 4.3 9.4 8.1.7 1.4 1.1 2.8.9 4.2z"/><path fill="#FF7110" d="M99.3 63.5c1.8-3.7 3.7-7.4 6.5-10.3s7.1-4.8 11.1-3.9c3.6 1.1 3.3 5.5 4.1 8.9"/><path d="M111.1 60.6c-.5-1.4.4-3 1.7-3.5.1 1 .1 2-.2 3-.4.3-.9.4-1.5.5zM118.9 58.4c0 .2-.1.5-.3.6-.3.2-.7 0-.9.2-.5-.9-.8-1.9-.9-3 1.2.2 2.1 1.2 2.1 2.2z"/><path fill="#6DCCBA" d="M222.2 150.9c-8.1 5.4-18.9-4.3-28.3-1.8-7.5 2-10.8 10.6-12.9 18.1-.3 1.2-.7 2.5-.2 3.6.5 1.2 1.6 1.9 2.7 2.5 5.4 3.1 10.9 6.3 16.3 9.4-2.7 11.7-7.5 22.9-14 33 7.7.7 15.3 2.5 22.4 5.5-.4 2.8-.9 5.6-1.3 8.3-12.8 2.3-25.9 2.9-38.9 1.7-1.3-.1-2.8-.3-3.6-1.4-.7-.9-.7-2.1-.6-3.2.3-9.9 1.4-19.8 3.3-29.5-12.4-5.5-25.5-9.6-38.9-12.2-3.8-.7-7.7-1.4-11-3.4-9.9-6-10.4-21.6-20.3-27.7 21.2-5.5 43.2-7.5 65.1-5.8 4.8-12.3 14.6-21.9 24-31.1 9.7 3.5 18.7 9 26.3 16 1.2-8.5 2.3-17 3.5-25.5 1.7 0 3.4-.1 5.1-.1 7.8 9.9 10.3 23.7 6.5 35.7-1 2.9-2.5 6-5.2 7.9z"/><path fill="#509386" d="M162.5 144.5c-9.8 4.3-19.5 8.9-29.2 13.6 3.7-4.5 7.5-9.1 12.5-12.1s11.5-4.2 16.7-1.5z"/><path fill="#FF7110" d="M45.8 96.6c.1-.7.2-1.5.1-2.2-.5-2.4-3.5-3.5-5.9-2.8-2.3.7-4.1 2.6-5.7 4.5-1.3-2.6-2.9-4.9-4.9-7-4.8 1.9-9.5 4.4-12.9 8.2s-5.1 9.5-3.2 14.3c2.9 7.6 13.7 9.6 20.7 5.4s10.6-12.4 11.8-20.4zM159.2 55.4c-4.2-.6-8.6-2.2-10.7-5.9-1.9-3.4-.9-8.2 2.2-10.6s8-2.1 10.8.7c-1.6-3.6 1-8 4.5-9.8 3.5-1.8 7.7-1.7 11.6-1.5 3.3.1 7 .5 8.9 3.2.9 1.3 1.2 2.9 1.2 4.4.2 6.6-3.9 12.8-9.5 16.2-5.6 3.4-12.5 4.2-19 3.3z"/></svg>