<svg xmlns="http://www.w3.org/2000/svg" viewBox="0 0 1680 640"><path fill="#FF7110" d="M586.5 592c-.1 1.2-.2 2.4.3 3.5.7 1.6 2.2 2.5 3.7 3.4 11.2 6.6 21.5 14.6 30.8 23.7-20.3-5.5-40.4-12.1-60-19.6 6.5-35 7.4-70.3 7.2-105.9 6.6-.6 13.3.3 19.5 2.4-.4 30.6.7 62-1.5 92.5z"/><path fill="#FF7110" d="M635.7 575.3c0 1.2 0 2.4.5 3.5.7 1.5 2.4 2.4 3.9 3.2 11.5 6 22.3 13.4 32 22-20.6-4.4-41-9.9-61-16.4 4.5-35.3 6.7-70.9 6.5-106.6 6.6-.6 13.3.3 19.5 2.4-.5 30.7-1 61.3-1.4 91.9z"/><path fill="#0F7DBA" d="M571 340c-15.4 25-28.6 55-19.3 82.8 3.1 9.3 7.6 18.2 10.6 27.6 6.9 21.6 5.4 44.9 3.8 67.5 22 1 52.2 5.9 74 2.9 1.1-16.6 2.2-33.4-.4-49.8-1.4-9.2-4.9-31.9-6.8-41-5.8-28.8-3.1-50.7-2-80"/><path fill="#050505" d="M606.7 589.7c-.1-5.6 1-11.7 5.3-15.7.5-.5 1.3-1 2-.7.3.1.5.3.7.5 1.4 1.6 1.2 3.9 1.9 5.8 2.1 5.6 10.6 6.1 17 5.3 9.1-1.2 19-2.9 26.8 1.5 4 2.2 6.8 5.7 9.6 9.1 4.2 5.2 8.3 10.3 12.5 15.5-19.8-.8-39.5-4.4-58.1-10.7 1-2.9.6-6.1-1.1-8.7l-3.9 10.2c-3.1 2-7.7.6-10-2.2s-2.6-6.4-2.7-9.9zM558.7 605.7c-.1-5.6 1-11.7 5.3-15.7.5-.5 1.3-1 2-.7.3.1.5.3.7.5 1.4 1.6 1.2 3.9 1.9 5.8 2.1 5.6 10.6 6.1 17 5.3 9.1-1.2 18.6-1.2 26.1 3.6 3.9 2.4 6.5 6.1 9.1 9.6 3.9 5.4 7.8 10.8 11.7 16.1-19.7-1.9-37.4-7.7-56-14 1-2.9.6-6.1-1.1-8.7l-3.9 10.2c-3.1 2-7.7.6-10-2.2s-2.7-6.3-2.8-9.8z"/><path fill="#0F7DBA" d="M629.2 340.5c-1.5.6-3.3.3-4.9.1-15-2.4-29.9-4.7-44.9-7.1-1.9-.3-3.9-.7-5.1-2.1-.7-.9-1-2-1.2-3.1-4.6-24.2-9.2-48.4-13.9-72.6-.9-4.7-1.6-10.3 2.1-13.8 2.4-2.2 5.9-3 9.3-3.6 28.5-4.9 57.9-5.8 86.7-2.4 3.5 16.9 12.2 24.1 13 37.3.3 5.2 0 10.5-2 15.5-1.8 4.5-4.8 8.5-7.9 12.4-9.3 12.1-18.7 24.2-28 36.4-.7 1.2-1.7 2.4-3.2 3z"/><path d="M657 92.9c11.6-1 21.5 8.8 26.6 19.2 4.5 9.2 6.7 19.7 5.1 29.9-2.5 16.3-14.3 30.5-14.2 47-.3-11.5-1.3-23-3.1-34.4-.6-3.5-1.2-7-2.6-10.3-3.5-8.1-11-13.5-17-20-6-6.4 1.3-23.5 5.2-31.4z"/><path fill="#FF7110" d="M662.3 133.2c16 14.6 20.5 40.3 10.4 59.5-1.8 3.5-4 6.7-6.3 9.9l-12.6 18.3c-1.4 2-2.8 4.1-4.8 5.7-6.6 5.2-16.1 2.7-24.1-.1-10.4-3.6-21.5-7.8-27.8-16.7-2.5-3.6-4.1-7.7-5.2-12-4.3-16.8-.3-35.6 10.6-49.2s28.4-21.5 45.8-20.9c2.5.1 5 .3 7.3 1.2 2.6.9 4.8 2.5 6.7 4.3z"/><path d="M575.3 406.4l-3.9.3c0-.5 0-1.1-.1-1.6-15.2 2.9-32.2 7-47.5 9.8-2.9.5-2 2.9.4 2.9 15.8-1.5 26.7-2.4 42.4-4.6-.1.4-.2.8-.5 1.1-.5.6-1.2.9-1.9 1.1-3.9 1.3-8.2 0-12.3.1-3 .1-6 1-8.9 1.9-.9.3-2 .9-1.6 1.8 2 .3 3.8-1.1 5.7-2 6.1-2.7 13.9 1.8 19.7-1.5 1.1-.6 2.1-1.7 2.1-2.9.3 0 .6-.1.9-.1.4-.9.8-1.8 1.1-2.7 1.3-.3 2.6-.4 3.9-.3.4-1 .6-2.1.5-3.3z"/><path fill="#FF7110" d="M549.1 260.3c-1.1 9.3-2.1 18.6-3.2 27.9-2.2 19.5-4.4 39-6.4 58.5-1.3 12.6-2.4 25.5.5 37.9 2.8 12 9.3 24 6.3 35.9 4.7 2.1 10.5.9 14.1-2.8 7.8-8.2 1.6-21.3-2.4-31.9-10-26.6-3.2-56.2 3.8-83.8 3.9-15.6 7.9-31.3 11.8-46.9 1.3-5.3 2.5-11.5-1-15.6-4.3-5.1-13.2-3.3-17.5 1.8s-5.2 12.4-6 19z"/><path d="M663.1 105c.5-9.6-6-19.2-15.1-22.4-4.3-1.5-9-1.7-13.6-1.3-24.6 2.3-45.3 21.7-54.5 44.7-9.2 22.9-23.4 49.8-18.7 74 2.7 13.8 6.6 28 3.7 41.8-1.6 7.8-5.4 15.1-6.9 23-4.9 25.8 16 50.5 40.2 60.8 1.6.7 3.5 1.4 5.2.9 2-.5 3.4-2.4 4.5-4.2 15.5-24.5 20.9-55.2 14.7-83.6-3.2-14.9-9.5-28.9-13.2-43.7-3.7-14.8 10.3-32 17.3-45.6 2.6-5 6.5-9.7 11.9-11.5 3.1-1 6.4-1 9.7-1.6 11.5-2.1 20.7-13.1 20.9-24.8s-8.8-22.9-20.2-25.3"/><path d="M649.2 176s-.2-.2-.5-.7c-.4-.4-.8-1.1-1.4-1.9-1.3-1.6-3.3-3.4-5.9-5-.6-.4-1.4-.7-2.1-1.2-.3-.2-.8-.3-1.2-.5l-1.2-.6c-1.7-.7-3.6-1.4-5.7-2.2-4.1-1.5-9.1-3.2-14-6.2 0 0 1.4-.2 3.7-.4 2.3-.2 5.6-.3 9.5.1 1 .1 2 .3 3.1.5.5.1 1.1.2 1.6.4s1.1.3 1.6.5c1.1.3 2.2.9 3.3 1.3 1.1.6 2.2 1.2 3.2 2 .5.4 1 .8 1.5 1.3s.9 1 1.4 1.5c.4.5.8 1.1 1.2 1.6l.5.8c.2.3.3.6.4.9.3.6.5 1.2.7 1.8.1.6.3 1.3.4 1.9.1.6.1 1.3.1 1.9-.1.9-.1 1.6-.2 2.2zM662.2 175.1s-.1-.2-.1-.6c-.1-.4-.2-1.1-.2-1.8-.1-1.6.4-4 1.9-6.5 1.4-2.5 3.8-4.8 6.8-6.5 3-1.7 6.5-2.8 10.6-3.4 0 0-.1.2-.4.6-.2.4-.6 1-1.1 1.7-1 1.4-2.5 3.2-4.3 5.1-1.8 1.9-4 3.7-6.2 5.5-2.2 1.6-4.5 3.3-7 5.9z"/><circle cx="636" cy="168" r="7"/><circle cx="669.6" cy="168.6" r="5.6"/><path fill="#C10610" d="M641.1 210c-3.4-.6-6.3-2.1-8.7-4-2.4-1.8-4.2-4-6.1-6.1-.4-.4-.8-.9-.9-1.4 10.6 3 22.2 4.2 33.5 3.4 0 1.7-1.3 3.2-2.9 4.4-3.7 2.9-9.5 4.6-14.9 3.7z"/><path d="M645.9 195.2c4.7.9 9.6.7 14.1-.7 1.2-.4 2.4-.8 3.2-1.7-2.3-.1-4.5-.1-6.8.1-1.6.2-3.2.5-4.7.9-1.9.5-3.9.9-5.8 1.4z"/><ellipse fill="#FF6112" cx="622.4" cy="179.9" rx="7.9" ry="7.6"/><path fill="#FF6112" d="M677.8 176.6c-.8-.2-1.6-.4-2.4-.4-4.3 0-7.9 3.4-7.9 7.6 0 3.6 2.6 6.6 6 7.4 2.2-4.5 3.6-9.5 4.3-14.6z"/><path fill="#2F4F0E" d="M645.2 248l1.1 80.7-69.4 10.7 1.9-85.3"/><path fill="#2F4F0E" d="M646.4 328.8l2.7-3.6-4.8-8.2-7.5.9"/><path fill="#E1EAD6" d="M648.1 323.7L646 327l-67 10.2 1.7-82.8 2.7-3.3 48.1.3"/><path fill="#2F4F0E" d="M648.5 244.2l1.1 80.8-69.4 10.6 1.9-85.3"/><path fill="#FF7110" d="M671.2 323.9c4.7 4.8 11.9 9.2 17.6 6-1.6-22.7-16.7-41.8-31-59.3-3.1-3.7-6.3-7.6-10.8-9.1-3.9-1.3-8.1-.7-12.1-.1-5.5.9-12.5 3.6-12 9.3.3 4 4.5 6.6 8.4 7.3 3.9.7 8 .5 11.6 2.2 6.2 3 8.5 10.6 11.1 17.1 3.9 10 9.8 19.1 17.2 26.6z"/><g><path fill="#634222" d="M1470.2 313.9c-3.3-15.5-6.6-31-9.9-46.6-1.8-8.3-3.6-16.7-8-24-5.2-8.7-13.6-14.9-21.8-20.9-18.9-13.7-39.2-28-62.4-29.7-5.1-1.2-10.3-2.1-15.4-2.8-9.5-1.4-19-2.5-28.6-3.4-1.9-.2-3.9-.3-5.5.7s-2.2 2.8-2.8 4.5c-4.7 14.9-7.5 30.1-8.5 45.4-.2-.1-.4-.2-.6-.2-6.5 23.1-13.1 46.2-19.6 69.3-1 3.6-2.1 7.3-4.4 10.2-2 2.5-4.7 4.2-7.4 5.8-10.7 6.6-21.4 13.2-32.2 19.8-1.1.7-2.4 1.7-2.2 3.1.1.6.6 1.1 1.1 1.6 3.1 3.1 6.2 6.3 9.2 9.4 1.5 1.6 3.3 3.2 5.5 3.5 2 .2 3.9-.8 5.7-1.8 11.5-6.7 22.3-14.5 32.2-23.3 2.5-2.2 5-4.6 7-7.2 3.4-4.4 5.4-9.7 7.4-14.9 4.8-12.4 9.6-24.7 14.4-37.1 1.8 1 3.4 2.1 4.6 3.7 3.3 4.4 1.5 10.5-.2 15.9-8.9 27.6-12.8 56.2-11.4 84.5 36.9 3.5 75.2-1.4 110.5-14.2 2.7-34.9-.2-69.8-8.5-103.4 13.5 20.8 20.1 45.9 26.3 70.3 7.2-1.3 14.2-3.7 20.7-7.1 2-1 4-2.2 4.9-4.2.9-2 .4-4.5-.1-6.9z"/><path fill="#5B5B5A" d="M1334 127.5c6.1 1.6 12.3 3.3 18.4 4.9 1 2 2.6 3.6 4.5 4.7-4.3-.6-8.8.2-12.6 2.5 6.5 1.4 14 3.8 15.8 10.2l-3.6.3c.2 4 .9 8.1 2 11.9-5.7 2.5-11.4 4.9-17.1 7.4-8-11.8-16.8-23-26.3-33.6-.9-1-1.8-2-2.2-3.2-.7-1.9-.3-4.1.7-5.9 2.3-4.4 7.4-6.7 12.3-7.1 4.9-.4 9.8.9 14.6 2.1 1.9.5 3.7 1 5.6 1.4-4.3.7-8.4 2.2-12.1 4.4z"/><path fill="#FF7110" d="M1359.2 148.2c-5-.8-9.3 3.4-11.7 7.9-1.1 2.2-2.1 4.5-3.1 6.7-5.2-7.9-10.8-15.7-16.8-23.2-3.4-4.2-6.9-8.4-11.6-11.6-9.8-6.6-24.3-7.7-35.7-2.9-11.4 4.8-19.1 15.4-18.8 26 .2 9.2 5.8 17.6 7.2 26.7 1 7-.5 14.3-4.5 20.6-7 11.4-21.6 20.4-21.9 33.1-.2 9.8 8.8 18.2 19 22.9 7.9 3.7 17.2 5.8 26.2 4.4 11-1.7 19.9-8.2 28.3-14.5 6-4.5 11.9-9 17.9-13.5 9.2-6.9 18.8-14.3 22.6-24 3.9-10 1.2-20.4-3.7-30.2 1.8.2 3.7.2 5.4.2 2.3 0 4.7-.1 6.6-1.5 2.7-2 3.1-5.9 3.1-9.3.3-7.2-1.3-16.7-8.5-17.8z"/><path d="M1291.4 166.5s.9-.1 2.5.2c1.6.3 3.8.9 6.1 1.8 2.4.9 4.9 2.3 7.4 3.6 1.2.6 2.3 1.1 3.5 1.3.6.1 1.3 0 2.1-.3.8-.4 1.6-.9 2.5-1.6v.8c0 .3 0 .6-.1.9-.1.4-.2.8-.4 1.2-.4.9-1.1 2.1-2.5 2.9-1.4.9-3.2 1.2-5 1.1-3.5-.3-6.7-1.9-9.4-4-1.3-1.1-2.6-2.3-3.7-3.6-1.1-1.4-2-2.8-3-4.3zM1277.4 173.6s0 .2.1.4c0 .3.1.7.1 1.3.1 1.2 0 2.9-.1 5.1-.2 2.2-.5 4.9-.8 7.9-.3 3-.6 6.5-.5 10.1.1 3.6.8 7.4 2.8 10 .5.7 1.1 1.3 1.8 1.8.2.2.4.3.6.4l.3.2c.1.1.2.1.2.1.2.1.4.2.7.2.6.1 1.4.1 2.3-.1.9-.2 2-.5 3-.9 2.1-.8 4.3-1.9 6.5-3.2 2.2-1.3 4.5-2.7 6.8-4.1 4.6-2.9 9.3-6.2 14.3-9.4 0 0-.5.6-1.3 1.6-.9 1-2.1 2.5-3.8 4.4-1.7 1.8-3.7 4-6.2 6.4-2.5 2.4-5.4 4.9-9 7.4-1.8 1.2-3.8 2.4-6.1 3.3-1.2.5-2.4.9-3.8 1.1-1.4.2-3.1.3-4.8-.2-.4-.1-.9-.3-1.3-.5l-.6-.3c-.2-.1-.3-.2-.5-.3-.6-.4-1.2-.8-1.8-1.3-1.1-.9-2.2-2.1-3-3.3-1.7-2.5-2.5-5.5-2.8-8.2-.5-5.6.7-10.8 2.2-15.7.8-2.5 1.6-4.8 2.5-7.2.7-2.3 1.6-4.6 2.2-7z"/><path fill="#5B5B5A" d="M1286.7 151.3s.7-.7 2-1.7c.3-.3.7-.5 1.2-.8.4-.3.9-.5 1.5-.8 1.1-.5 2.3-1.1 3.7-1.5.7-.2 1.5-.4 2.2-.5.8-.2 1.6-.2 2.5-.3 1.7-.2 3.5 0 5.4.2 3.7.6 7.7 2.2 11.3 4.9 0 0-1.1.3-2.9.5-.9.1-2 .3-3.2.4-.6.1-1.2.1-1.9.2s-1.3.1-2 .2c-1.4.1-2.9.2-4.4.2-.8 0-1.6.1-2.4.1-.8 0-1.6-.1-2.4 0-3.3-.2-6.7-.4-10.6-1.1zM1259.3 167.9s-.1-.2-.1-.5c-.1-.3-.2-.8-.2-1.4-.1-1.2.2-3 1.3-4.9 1.1-1.8 3-3.5 5.4-4.4 2.4-.9 5.3-1 8.4 0 0 0-.5.6-1.3 1.5s-2 2.1-3.3 3.2c-1.3 1.2-2.8 2.3-4.4 3.2-1.6 1.1-3.4 1.9-5.8 3.3z"/><path d="M1268.5 236.4h-.4c-.3 0-.7.1-1.2.1h-.9c-.3 0-.7-.1-1.1-.2-.8-.1-1.7-.4-2.7-1-1-.6-1.9-1.4-2.7-2.5-.4-.6-.8-1.2-1.1-1.9l-.2-.5c-.1-.2-.1-.5-.2-.7-.1-.3-.1-.5-.2-.8 0-.3-.1-.5-.1-.8-.1-.5-.2-1.1-.3-1.7l-.1-.4v-.4c.2-.1.5-.2.7-.3l3.3-1.5.4-.2.3-.1.6-.2c.4-.1.9-.3 1.3-.4.9-.3 1.8-.4 2.7-.6 3.8-.7 7.8-.7 11.9-.5 4.1.2 8.3.5 12.7.5 4.4 0 8.9-.4 13.6-1.3 4.8-.9 9.6-2.5 14.7-4.2 0 0-.5.4-1.5 1.1-.5.4-1.1.8-1.8 1.3s-1.5 1.1-2.5 1.7c-1 .6-2.1 1.2-3.2 1.9-1.2.7-2.6 1.2-4 1.9-.4.2-.7.3-1.1.5-.4.1-.8.3-1.2.4-.8.3-1.6.6-2.5.8-.8.3-1.7.5-2.6.7-.9.2-1.8.5-2.8.6-3.8.7-8 1-12.3.9-4.3-.1-8.6-.6-12.8-.8-1 0-2.1-.1-3.1 0l-1.5.1h-.8l-.7.1c-.9.1-2.3.3-2.4.3l-.6.1h-.2v.1c0 .1-.1.1-.1.2 0 .2-.1.4-.1.6l.1.7c0 .2.1.4.2.7.2.9.6 1.7 1.2 2.5 1.2 1.6 3.1 2.6 5.3 3.2z"/><ellipse transform="rotate(-3.505 1307.423 161.334) scale(.99997)" cx="1307.5" cy="161.4" rx="5.8" ry="6.5"/><ellipse transform="rotate(-3.505 1268.35 170.115) scale(.99997)" cx="1268.4" cy="170.2" rx="4.4" ry="4.9"/><path d="M1378.7 592.9c-3.7 2.1-6.8 4.9-10.3 7.3-4.4 3.1-9.3 5.5-14.4 7.6-10.5 4.2-21.8 6.8-33.1 7.4.1 2.5.3 5 .4 7.5 37.5-1.6 74.9-3.8 112.4-6.5.5-8.6.3-18.7-6.6-23.8-3.9-2.8-8.9-3.3-13.6-3.7-11.8-.9-24.5-1.7-34.8 4.2zM1295.6 577.9c-3.7 2.1-6.8 4.9-10.3 7.3-4.4 3.1-9.3 5.5-14.4 7.6-10.5 4.2-21.8 6.8-33.1 7.4.1 2.5.3 5 .4 7.5 37.5-1.6 74.9-3.8 112.4-6.5.5-8.6.3-18.7-6.6-23.8-3.9-2.8-8.9-3.3-13.6-3.7-11.8-.9-24.4-1.7-34.8 4.2z"/><path fill="#FF7110" d="M1210.7 347.5c-4.3 2.4-8.1 6.1-9.6 10.8-2.1 6.6 1 14.3 6.8 18.1 5.8 3.8 13.7 3.7 19.8.3 2.6-1.4 4.8-3.4 7.4-4.7 2.7-1.3 5.8-1.9 8.4-3.4 2.7-1.4 5-4.2 4.7-7.2-.2-1.3-.8-2.4-1.4-3.5-3.6-5.8-8.9-10.5-15.1-13.4-7-1.5-14.7-.5-21 3zM1489.1 332.1c-1.5-2.3-3.9-4.4-6.7-4.4-1.5 0-3.1.5-4.6.2-1.5-.3-2.9-2.1-1.9-3.3-10.6.8-18.8 12.3-29.3 11.1-1 6.1 2.7 12.3 7.9 15.7s11.6 4.4 17.8 4.3c4-.1 8.2-.5 11.7-2.5 6.9-4.1 9.4-14.3 5.1-21.1z"/><path fill="#7A3709" d="M1235 367l13 78-2 99 2 70-15 3 1-70 3-100-16-78s6-7 14-2z"/><path fill="#3D4766" d="M1424.1 469.8c1.9-22 5.7-44.3 5.6-66.3-6.3-1.4-12.7-2.8-19-4.2-.4-2 .8-3.9 1.5-5.8 1.7-4.6.7-9.7 1-14.7-30 9.9-65 1.4-97.4 4.9-9 60.8 4.9 123.1-2.8 184.1-3.8 1.2-7.7 2.4-11.5 3.5 2.5 6.3 4.2 12.9 5.1 19.6 15-.5 29.9-1.7 44.8-3.3 6.9-51 9.6-102.6 8.1-154 11.3 38.1 14.7 78 18 117.6.9 10.4 1.7 20.8 2.6 31.2-2.6 1.5-5.1 2.9-7.7 4.4 0 5.1 1 10.1 2.9 14.8 19.4-.8 38.8-1.6 58.1-2.4-10-42.2-13.2-86.1-9.3-129.4z"/></g><g><path fill="#5D708C" d="M1536.3 267.1c11 18.8 16.9 40.1 22.6 61.2 2.2 8.2 5.5 32.4 7.7 40.5 1.5 5.4 3.9 11.9 3.3 12.2-4.2 2.1-12.8 4.4-16.4 4.5-17.3-44.6-32.7-106.4-44-152.9 9.9 10.7 19.4 21.9 26.8 34.5z"/><path fill="#5D708C" d="M1535 367.1c.7-24.8.5-49.8-2.3-74.5-2-17.6-5.4-35.4-14.4-50.6-9-15.2-24.5-27.5-42.2-28.5-13.5-.8-26.7 5-37.2 13.5-10.5 8.5-18.6 19.5-26.1 30.7-6.2 9.3-12.3 19.4-12.5 30.5-.2 11.1 7.9 23.2 19 23.2-9.9 21.7-14 46-11.9 69.8.2 2.2.5 4.6 2 6.2 1.7 1.9 4.4 2.3 6.9 2.7 37.1 5 77.1 9.5 109.9-8.5 2.7-1.5 5.4-3.2 6.9-5.9 1.7-2.5 1.8-5.6 1.9-8.6z"/><path fill="#5B5B5A" d="M1448.8 140.4c-4.7-4-11.4-4.4-17.6-4.6-4.4-.2-8.8-.3-13.3-.5-4.1-.1-8.4-.3-12.3 1.2-5.9 2.2-10.2 8.1-10.6 14.3-.3 6.3 3.4 12.6 9.1 15.3-3.6 6.1-6.3 13.9-2.8 20 1.3 2.3 3.3 4.1 5.5 5.5 6.9 4.5 15.6 6.1 23.6 4.3 8-1.8 15.2-7 19.4-14.1 3.9-6.6 5.3-14.4 5.4-22.1.2-6.9-1-14.8-6.4-19.3z"/><path fill="#FF7110" d="M1423.8 142.5c-1.1 2.1-1.2 4.6-1.3 7-.8 14.7-5 28.9-8.3 43.3-2.6 11.2-4.6 23.2-.7 34.1 5 14.1 20.1 23.6 35.1 23.1s29-10.3 35.6-23.7c6.6-13.5 6.2-29.3 4.5-44.3-1.6-14-4.5-28.9-14.2-39-11.7-12.2-32.6-14.2-46.5-4.5-1.8 1-3.3 2.3-4.2 4z"/><path fill="#5B5B5A" d="M1540.4 131.9c4.3 7.5 3.5 16.9 2.3 25.5 19.6 4.4 35 25 31 44.7-1.1 5.6-3.6 10.9-6.7 15.7-8.2 12.8-21.3 22.8-36.2 25.6-15 2.8-31.6-2.5-40.8-14.6s-9.6-30.7.5-42.1c-10-5.5-16.2-17.2-15.1-28.6-8.8 3.2-18 6.5-27.2 5s-18.1-9.5-17.1-18.7c-6 3.7-14.6-.4-17.5-6.8-2.9-6.5-1.3-14.2 1.8-20.5 7.7-15.9 25.2-26.6 42.9-26.2s34.7 11.8 41.7 28.1c14.8-.8 32.9 0 40.4 12.9z"/><path d="M1431.9 181.8s-.3.2-.8.6c-.3.2-.6.4-.9.7-.3.3-.7.6-1 1.1-.7.8-1 1.9-.8 3.1.2 1.2.9 2.5 1.9 3.9 1 1.4 2.5 2.8 4.1 4 1.6 1.3 3.5 2.4 5.3 2.9.9.2 1.7.3 2.6.1.8-.2 1.7-.6 2.6-1.5l.3-.3.3-.4.6-.8c.4-.6.8-1.2 1.1-1.9.3-.7.7-1.4 1-2.1.3-.7.6-1.5 1-2.3 0 0 .1.4.2 1.1 0 .4.1.8.2 1.4v1.9c0 1.4-.2 3.2-1.1 5.3-.3.5-.5 1-.8 1.5-.4.5-.7 1.1-1.3 1.5-.5.5-1.1 1-1.8 1.3-.3.2-.7.4-1 .5-.4.1-.7.2-1.1.4-.4.1-.8.2-1.2.2-.4 0-.8.1-1.2.1-.8 0-1.6 0-2.3-.2-1.5-.2-2.9-.8-4.3-1.5-2.6-1.4-5-3.4-6.8-6-.9-1.3-1.6-2.7-2.1-4.3-.5-1.6-.7-3.4-.3-5.3.1-.5.3-.9.5-1.4l.3-.6.4-.6.4-.6.5-.5c.4-.3.7-.6 1.1-.7 1.5-.6 3.1-.6 4.4-.6z"/><path fill="#8E0A0A" d="M1426 214.2s.3-.1.7-.3c.5-.2 1.2-.5 2.2-.7 1.9-.5 4.7-1 7.8-1.4 1.5-.2 3.1-.6 4.4-1 1.5-.5 2.9-1.2 4.5-2.1 1.6-.9 3.3-2.2 5.4-3.5 2-1.3 4.5-2.5 7.1-3 0 0-.2.3-.5.7-.4.5-.8 1.1-1.4 2-.6.9-1.3 1.9-2.1 3.1-.8 1.2-1.7 2.6-3 4s-2.9 2.9-5.1 4c-.5.3-1.1.5-1.6.7-.6.2-1.1.4-1.8.5-.6.1-1.3.2-1.9.3-.6.1-1.2.1-1.8.1-4.8 0-8.8-1.6-12.9-3.4z"/><path d="M1446 173.2s.6-.5 1.6-1.2 2.4-1.5 4.3-2.1c1.9-.6 4.3-.9 7.2 0 1.4.5 2.8 1.2 4 2.5 1.1 1.3 1.8 2.9 1.8 4.6 0 0-.2-.1-.5-.2s-.8-.3-1.3-.4c-1.1-.3-2.5-.4-4.1-.4-1.6 0-3.4.1-5.6-.2-2.4-.2-5-.8-7.4-2.6zM1427.9 173.8s-.1.5-.4 1.3c-.2.4-.4.8-.7 1.2-.3.4-.7.9-1.2 1.2-.9.7-2.2 1.2-3.6.8-1.4-.3-2.9-1.4-4-3.5 0 0 .4-.4 1-.9.3-.2.7-.5 1-.8.2-.1.4-.2.6-.4.2-.1.4-.3.6-.4.4-.2.9-.4 1.3-.5.5-.1.9-.2 1.4-.1 1.2.3 2.3.8 4 2.1z"/><path fill="none" stroke="#000" stroke-miterlimit="10" d="M1448.3 177c-.3 5.9 4.9 11.5 10.7 11.6"/><path fill="#2E3844" d="M1477.8 399c21 .1 44.5-2.9 57.7-19.2 7.8 12.7 8.2 28.5 8.4 43.4.8 55.6 1.5 111.2 2.3 166.8-23.2 8.9-45.4 4.3-68.2 6.8-28.3 3.1-56.9.1-85-4.2-3.6-67.1 2.7-134.7 18.8-199.9 21.7 4.1 43.9 6.3 66 6.3z"/><path d="M1543 629c2.7-11.1 3.7-22.6 3-34-10.3.8-20.6 2.2-30.8 4.2-1.8.3-3.6.7-5.3 1.5-3.8 1.7-6.6 5.1-9.2 8.4-2.4 3-4.7 6-7.1 9-2.9 3.7-6.1 8-5.5 12.7 15.4 2.3 31.5-1 44.8-9 .1 2.4.1 4.8.2 7.3 3.2-.1 6.5-.1 9.9-.1zM1482 632c2.7-11.1 3.7-22.6 3-34-10.3.8-20.6 2.2-30.8 4.2-1.8.3-3.6.7-5.3 1.5-3.8 1.7-6.6 5.1-9.2 8.4-2.4 3-4.7 6-7.1 9-2.9 3.7-6.1 8-5.5 12.7 15.4 2.3 31.5-1 44.8-9 .1 2.4.1 4.8.2 7.3 3.2-.1 6.5-.1 9.9-.1z"/><path fill="#FF7110" d="M1583.2 393.5c-1.1-2.2-2.7-4.1-4.4-6-1.4-1.6-3-3.3-5.1-3.8-2-.5-4.2.3-6.1 1l-14.4 5.4c-1.2 3.8-2.4 7.9-1.8 11.8.3 1.8 1 3.6 2 5.2.9.5 1.8-.6 2.7-1.1 1.9-1.2 4.5.2 5.8 2s1.8 4.2 3.2 6c2 2.6 5.6 3.6 8.8 3s6-2.7 7.9-5.4c3.9-5.1 4.4-12.4 1.4-18.1z"/></g><g><path fill="#333" d="M1016.3 193.3c7.8 1.5 16.1 3.6 20.8 9.2 3.4 4.2 4.1 9.6 4.7 14.7 3.1 26.9 5.5 56.6-12.8 78.4-7 8.4-16.7 15-22.8 23.9-6.6 9.7-8.4 21.3-10 32.5-32.7 1.2-65.5 2-98.3 2.3-12.1-35.8-24.2-71.6-36.4-107.4-5.8-17.2-11.7-35.1-8.2-52.7 53.4-10.9 109.5-11.2 163-.9z"/><path fill="#FF7110" d="M1031.8 147.8c-.1-2.7-.2-5.6-1.3-8-3.5-7.6-13-5.2-19.3-9.2-8-5-8.9-18.2-8.8-29.1.1-4.6.1-9.2.2-13.8 0-2.1 0-4.4-1.2-5.9-.9-1.2-2.3-1.6-3.7-2-23.9-6.2-48.6-12.4-72.6-6.5-2.6 9.5-4.9 19.1-6.6 28.9-4-.2-8-.1-12 .4-1.3.1-2.6.3-3.6 1.1-1.6 1.2-2.1 3.4-2.2 5.4-.3 8.9 5.7 17.5 14 20.7-1.2 12-1.7 24.2-1.6 36.3 0 2.6.1 5.2 1.1 7.5.9 2.3 2.7 3.9 4.3 5.4 30.5 26.9 71.3 35.6 107.6 23 2.2-.8 4.5-1.7 5.6-4.1.8-1.7.8-3.7.9-5.6-.1-14.9-.3-29.7-.8-44.5z"/><path d="M924.4 149.4s.2 0 .5-.1.8-.2 1.4-.4c1.2-.4 3-1.1 5.1-2.1 2.2-1 4.8-2.4 8.4-3.3 1.8-.5 3.8-.8 6.1-.6 2.2.2 4.4.8 6.6 1.6 4.3 1.6 8.4 4.1 12.7 6.4 2.1 1.1 4.3 2.3 6.5 3 2.4.9 4.9 1.6 7.5 2.3 5.2 1.3 10.7 2.3 16.6 2.5 5.9.3 12.1-.2 18.4-1.7 0 0-.7.4-2 1.1-1.3.7-3.3 1.6-6 2.5-5.2 1.8-13.2 3.3-22.6 2.5-4.7-.4-9.7-1.5-14.7-3.2-5.4-2-9.8-5.1-14.3-7.8-2.2-1.3-4.5-2.6-6.8-3.5-2.3-.9-4.4-1.3-6.9-1.2-5.2.3-10.9 2.6-16.5 2zM960.8 175.4s.7-.6 1.9-1.3c1.2-.7 3-1.7 5.2-2.4 2.2-.8 4.7-1.5 7.6-1.7 2.9-.3 6.1-.2 10.1.2 0 0-.6.7-1.8 1.8-.6.6-1.4 1.1-2.3 1.7-.5.3-.9.6-1.5.9-.5.3-1.1.6-1.7.8-2.4 1.1-5.2 1.8-8.3 2-3 .1-6.2-.5-9.2-2zM989.1 101.2s1.2 1.7 3 4.9 4.2 7.9 6.1 14.2c.9 3.2 1.8 6.7 1.9 10.9 0 2.1-.1 4.4-1.3 6.9-.1.3-.3.6-.5.9l-.6.9c-.2.3-.5.6-.7.9l-.7.7c-1 .9-2.3 1.7-3.5 2.2-2.6 1-5.3 1.1-7.7.7-2.5-.4-4.7-1.1-6.9-2.1-4.4-1.9-8.3-4.6-12.1-7.7 0 0 2.3.7 6.1 1.9 1.9.6 4.2 1.2 6.8 1.7 2.6.5 5.5.9 8.3.5 1.4-.2 2.6-.6 3.6-1.3.5-.3.9-.7 1.3-1.2.3-.4.5-.8.7-1.4.4-1.2.6-2.8.6-4.5 0-1.7-.2-3.6-.4-5.5-.9-7.3-2.8-15.4-4-23.6z"/><path d="M932.2 98.7s2.1-.5 5.8-1.1c1-.1 2-.3 3.2-.4 1.2-.1 2.4-.2 3.8-.2 2.7-.1 5.8-.2 9.1 0 1.7.1 3.4.2 5.3.3 1.8.1 3.7.4 5.6.6 3.9.5 8 1.1 12.2 1.9 8.5 1.5 17.7 3.6 27.7 5.4 0 0-2.4.4-6.7.9-2.1.3-4.7.4-7.7.4-1.5 0-3 .1-4.7 0-1.6-.1-3.3-.2-5.1-.3-7.1-.4-15.1-1.5-23.4-2.9-8.2-1.4-16.6-2.9-25.1-4.6z"/><path d="M968.3 105s.1.3.3.8c.1.3.2.6.3 1 .1.4.2.9.2 1.4 0 .5.1 1.1.1 1.8s-.1 1.4-.2 2.1c-.1.8-.4 1.6-.6 2.4-.2.9-.7 1.7-1.1 2.6-.4.9-1.1 1.7-1.7 2.6-.3.5-.7.8-1.1 1.2l-1.2 1.2c-.9.7-1.8 1.5-2.9 2.1-.5.3-1.1.6-1.7.9-.6.2-1.2.5-1.8.7-2.5.8-5.2 1.2-8 .7-2.7-.4-5.4-1.6-7.4-3.5h1c.6 0 1.5.1 2.5-.1 2.1-.1 4.9-.7 7.8-2.1.7-.4 1.5-.7 2.2-1.1.4-.2.7-.4 1.1-.6.4-.2.7-.5 1.1-.7.4-.2.7-.5 1.1-.8.4-.3.7-.5 1.1-.8.7-.6 1.4-1.1 2.1-1.8 2.6-2.5 4.9-5.7 6.8-10z"/><path fill="#333" d="M951.6 66.3c-9.3-.7-18.5-2.6-27.3-5.7.1 1.7 1.1 3.3 2.6 4.2h-23.5c1.1 3.6 4.6 6.3 8.3 6.5-3.1 11.5-2.2 24 2.5 34.9h4.9c2.5-7.4 5.8-14.5 9.8-21.1l55.8 1.2c10 .2 20.8.2 28.7-6-1.4-3.5-2.7-7.1-5-10.1-3.5-4.6-8.7-7.5-13.8-10.2 0 3.4 0 6.8.1 10.3-4.3-6.8-10.4-12.5-17.4-16.3.9 5.4-.2 11.1-2.9 15.8-7.7-3.7-15.5-7.4-23.2-11.1.2 2.5.3 5 .4 7.6z"/><path d="M1023.4 573.7c-12.6-12.1-28.3-21-45.2-25.5-1-61-2.1-122.1 3.5-182.8-24.5-2-49-4-73.5-5.9-.8 74.8-1.5 149.6-2.3 224.4 26.2 2 52.2 5.1 78.2 9.1-14.5-12-31.7-20.8-49.9-25.6-1.4-56.4-2.7-113.2 7.3-168.7 4.1 55.5 10.1 110.9 18.1 166 21.3 2.3 42.7 5.3 63.8 9z"/><path fill="#333" d="M845.6 307.1c4.4.8 8.9 1.3 13.4 1.8 2.6.3 5.2.6 7.7.9.9.1 1.9.2 2.7-.1 1.5-.6 2.2-2.2 2.8-3.7 2.9-7.4 5.7-14.7 8.6-22.1 4.1-10.4 8.2-21.5 6.4-32.5-3.5-21-27.1-34.5-29.6-55.5-24.1 28.3-37.7 65.4-37.6 102.6 8.1 4 16.8 6.9 25.6 8.6z"/><path fill="#FF7110" d="M860.9 314.6c-13.6-3.3-27.2-6.7-40.8-10-3.7 26.9-.3 54.8 10 80 .6 1.5 1.3 3.1 1.1 4.8-.2 2-1.7 3.7-2.9 5.3-7.4 9.8-7.9 23-8 35.3 5.6.4 9.7 7.7 15.2 6.5 3.3-.8 5.1-4.4 6.3-7.5 2.3-5.9 4.7-11.8 7-17.7 1.7-4.2 3.4-8.5 6.4-11.9 3-3.4 7.5-5.9 12-5.2 1.1-5.4-.8-11.4-5-15-4.1-3.7-10.3-4.9-15.5-3.1-4.8-20.9 9.6-40.8 14.2-61.5z"/></g><g><path fill="#A04E6E" d="M1054.5 237.2c-4.2 11.6-7.3 24-6 36.3 1.3 12.3 7.8 24.6 18.8 30.2-1.3 11.9-2.6 23.8-3.9 35.6-.7 6-1.2 12.5 1.8 17.6 3.2 5.4 9.6 8 15.6 9.7 16.1 4.4 33 4.7 49.6 4.9 12.5.2 26.5-.2 35.2-9.2 8.6-8.8 8.8-22.6 8.5-34.9-.8-28.8-1.5-57.6-2.3-86.3-.2-6.2-.6-13.1-4.8-17.6-3.3-3.5-8.1-4.8-12.7-5.9-21.6-5-44-6.3-66.1-4-10.1 1.1-20.9 3.3-27.4 11.1-3 3.6-4.8 8.1-6.3 12.5z"/><path d="M1076.7 171.9c6.2-12.6 12.1-25.4 17.7-38.3 1.3-3 2.6-6.1 2.6-9.3 0-5.3-3.4-10-6.7-14.2-3.2-4-6.9-8.2-11.8-9.6-3.5-1-7.3-.4-10.8.7-5.6 1.8-10.7 5.1-14.7 9.4-8.3 15.6-6.9 35.8 3.2 50.2 4.1 5.8 9.6 11 11 18 4 1.6 7.6-3 9.5-6.9z"/><path fill="#FF7110" d="M1120.6 220.6c4.3-2.4 8.6-4.9 12.1-8.3 7.4-7.3 10.5-18.2 10.4-28.6 0-10.4-2.8-20.6-5.6-30.7-1.5-5.4-3-10.9-4.5-16.3-1.1-4-2.3-8.2-4.9-11.4-4.6-5.8-12.5-7.6-19.8-8.5-10.1-1.2-20.4-1.4-30.6-.5-8.3 15.5-15.3 32-17.3 49.4s1.4 36 12.1 49.9c4.5 5.8 10.5 10.9 17.7 12.6 10.4 2.4 21-2.4 30.4-7.6z"/><path d="M1168.6 124.4c-8.2-19.4-45.5-24.3-65.6-30.7-8.2-2.6-18.4-3.2-24 3.3-6.5 7.6-2.1 19.8 5.3 26.6 7.4 6.7 17.2 10.5 24.4 17.4 19.1 18.1 16.1 52.7 37.4 68.2 9.3 6.8 22.2 8.3 32.8 3.8 11.7-14.5 5.1-26.4 3.4-39.7-4 3.6-7.9 7.2-11.9 10.8-.7.7-1.6 1.4-2.6 1.4-1.6.1-2.8-1.5-3.6-2.9-8.1-14.6 11-42.7 4.4-58.2z"/><path fill="#8E0303" d="M1070 195.1s.3-.1 1-.4c.7-.2 1.6-.6 2.9-.9 2.5-.6 6.3-1.1 10.8-1.2 4.5-.1 9.6.4 14.5-.3 2.5-.4 5-1.1 7.5-2.5 2.6-1.4 5.1-3.5 7.6-5.9 0 0-.1.4-.4 1.2-.2.8-.7 1.8-1.3 3.2-.7 1.3-1.6 2.9-3.1 4.5-1.4 1.6-3.4 3.2-5.8 4.4-2.4 1.2-5.3 1.9-8.2 2.1-2.9.2-5.8 0-8.7-.4-5.7-.8-11.1-2.4-16.8-3.8z"/><path d="M1081.6 155.8l.9-.3c.6-.2 1.4-.5 2.4-.9 2-.7 4.8-1.8 8.4-2.9 3.5-1.1 7.9-2.2 13.2-2.2 2.6.1 5.4.4 8.1 1.4 2.7 1 5.3 2.7 7.2 4.9 0 0-.4-.1-1-.2s-1.5-.3-2.7-.4c-2.3-.3-5.4-.3-9.1.2-3.7.4-7.9 1.3-12.6 1.8-2.3.2-4.8.3-7.4.2-2.5-.2-5.1-.7-7.4-1.6zM1058 146.7s.7 0 1.8.2 2.5.6 4 1.4c1.5.8 2.9 1.9 4.1 3.5 1.2 1.6 2.2 3.7 3.2 6.6 0 0-.7 0-1.9-.1-.6-.1-1.3-.2-2-.4-.8-.2-1.6-.5-2.4-.9-1.7-.8-3.3-2.1-4.5-3.8-1.3-1.7-2.1-3.9-2.3-6.5zM1070.3 168.1l-.6.3c-.4.2-1 .5-1.7.8-1.3.8-2.9 2-4.2 3.7-.6.8-1.2 1.8-1.6 2.7-.4 1-.7 2-.8 2.8v1.1c.1.4.4.8.9 1.3 1.2.9 3.1 1.6 5.3 2.1 0 0-.2.2-.7.4-.4.3-1.1.6-2 1-.9.3-2.1.7-3.6.6-.4 0-.8-.1-1.2-.2-.4-.1-.9-.3-1.3-.5-.9-.4-1.8-1.2-2.5-2.1-.7-1-1.1-2.1-1.3-3.3-.2-1.2-.1-2.3.2-3.4.5-2.2 1.7-4.1 3.3-5.6 1.6-1.5 3.7-2.5 5.8-2.8 2.3-.5 4.4 0 6 1.1zM1083.2 623.2c4.6-11.9 16.7-21.1 30.5-23.2 4.9-.7 10.4-.9 13.7-4.2 2.3-2.3 2.9-5.5 3.3-8.5 4.7-34.5.4-69.5-3.9-104-3-23.9-6-47.7-8.9-71.6-9.1 58.8-18.2 117.7-27.3 176.5-25.6 3.3-51.3 5.5-77.1 6.7 11.8-15.3 35.4-18 56.1-19.4 5.6-69.5 5.9-139.4 1-208.9 32 12.1 68.6 13.9 101.9 5 8.4 50.3-10.4 101-10 151.8.2 26.2 5.6 52.1 10.9 77.8-30.7 4.8-61 12.2-90.2 22z"/><ellipse cx="1099.1" cy="158.2" rx="7.1" ry="6.5"/><path fill="#FF7110" d="M1170 397.7c7-4.4 8.3-14 8-22.3-1.2-32.2-14.2-62.7-29.9-90.8-6.3-11.3-13.2-22.8-14-35.7s7.3-27.3 20.1-28.7c8.1-.9 16.1 3.8 21.2 10.2 5.1 6.4 7.9 14.3 10.2 22.2 12.5 42.3 15.3 87.5 8.2 131 15 11 14.7 33.1 12.8 51.6-.2 2.2-.6 4.7-2.5 6-1.7 1.2-4 .7-6 .1-11.4-3.9-19.7-15.6-19.5-27.7-3.9.1-8.1.2-11.4-1.8s-5.5-6.7-3.3-9.9c1.4-2.1 4-2.9 6.1-4.2z"/></g><g><path fill="#10B2DD" d="M937.4 547.8c-15.7-.2-31.5-2.6-46.6-7.1-3.5-9.7 1.5-20.2 4.3-30.2s1.4-23.5-8.4-26.7c-9.1-3-17.8 5.3-22.8 13.4-12.1 19.3-18.3 42.3-17.4 65.1.1 2.9.4 5.9 1.5 8.6 1.1 2.5 2.9 4.5 4.7 6.5 13.5 14.7 30.1 26.6 48.3 34.7 1.2-7.9 11.9-13.1 10.3-20.9-.7-3.7-4-6.2-7-8.3-6.2-4.5-12.5-8.9-18.7-13.4 17.3 1.5 34.7 3 52 4.6-.2-8.9-.2-17.6-.2-26.3z"/><path fill="#FF7110" d="M872.5 467c2.9-11.9 7.5-23.3 13.7-33.8 2.6-4.4 5.6-8.7 9.9-11.4 3.3-2 7-2.9 10.7-3.7 9.3-2.1 20-3.8 27.8 1.7 6.3 4.5 8.9 12.8 8.6 20.5-.3 7.7-3.1 15.1-5.7 22.4-.4 1.1-.8 2.4-.4 3.5.5 1.2 1.7 1.9 2.8 2.6 7.3 4.9 9.6 15.4 6.5 23.6-3.1 8.2-10.7 14.2-19 17.2s-17.3 3.3-26.1 3c-4.5-.1-9.1-.5-13.1-2.5-6.7-3.3-10.5-10.6-12.8-17.8-4.1-12.8-6.1-12.1-2.9-25.3z"/><path d="M951.7 575.2c-2.3 2.7-7 1.2-8.8-1.8-1.8-3-1.5-6.8-1.2-10.3 1.3-13.7 2.5-27.5 3.8-41.2 2.1 0 4.3 0 6.4-.1 4.4 12.5 8.6 26.8 2.5 38.5-.6 1.1-1.3 2.3-1.6 3.5-1 3.8 1.5 8.4-1.1 11.4zM917.3 610.3c-.1 1.2.4 2.3.7 3.4.7 2.9-.8 6.1-3.5 7.4s-6.1.7-8.1-1.5c-4-4.5-.6-11.4 2.4-16.6 5.1-9 8.6-18.9 10.2-29.1 1.5 0 3.1.1 4.6.1 4.5 10.7 2.7 23.9-4.6 33-.7 1.1-1.6 2.1-1.7 3.3zM898.4 456.9s.8.2 2.1.7c1.3.5 3.1 1.3 5 2.3.9.5 1.9 1.1 2.9 1.8.5.3 1 .7 1.5 1.1.2.2.5.4.8.6l.4.3.2.2.1.1c0 .1 0 .3.2.6.1.2.4.3.8.3.2 0 .4 0 .6-.1.3-.2.6-.4.9-.7.6-.5 1.2-1.3 1.9-2 0 0 .1.2.1.6.1.4.2 1 .2 1.9 0 .4 0 .9-.1 1.4 0 .1-.1.3-.1.4-.1.2-.1.4-.2.5-.1.4-.3.7-.5 1-.1.2-.2.3-.3.5-.1.2-.3.3-.4.5-.3.3-.6.7-1 1-.2.2-.4.3-.5.5l-.3.3-.1.1c0 .1-.1.1-.2.1-.4-.2-.9-.3-1.4-.5-.5-.2-1-.4-1.5-.5-.5-.2-1.1-.5-1.4-.7-.6-.3-1.3-.6-1.9-1-.6-.4-1.2-.8-1.8-1.3-.6-.5-1.1-1-1.6-1.5-2.3-2.4-3.9-5.2-4.4-8.5zM921.7 464.7s.3.1.7.2c.4.1 1.1.3 1.8.4l1.2.3c.2.1.4.1.7.2.1 0 .2.1.4.1.1 0 .3.1.3 0 .4-.1.6-.4.6-.6 0-.2-.1-.2 0-.3l.3-.3c.2-.2.4-.4.6-.7.4-.4.9-.8 1.4-1.2 2.1-1.5 4.9-2.3 7.8-1.9 0 0-.2.4-.6 1-.4.6-.9 1.4-1.5 2.4s-1.2 2.1-1.9 3.2c-.2.3-.3.6-.5.9l-.3.4c-.2.4-.4.7-.6 1.1-.8 1.4-1.7 3-2.6 4.5-1.2-.8-2.3-1.6-3.4-2.5-.5-.4-1.1-.9-1.6-1.3l-.7-.7-.4-.5c-.7-1.3-1.6-2.9-1.7-4.7zM882.9 470l.9-.3c.6-.1 1.5-.4 2.7-.4.6 0 1.3-.1 2 0s1.5.2 2.4.3c.8.2 1.7.4 2.6.7.9.3 1.8.7 2.8 1.1 3.8 1.8 7.7 4.8 11.2 8.8 3.5 4 6.4 8.8 9.1 14.3 0 0-.3-.2-.9-.5-.6-.4-1.5-.9-2.5-1.6-2.1-1.4-5-3.6-8.1-6.2-3.2-2.6-6.6-5.6-10.1-8.6-1.8-1.5-3.6-2.9-5.5-4.3-2.1-1.2-4.1-2.4-6.6-3.3z"/><path fill="#381002" d="M937.6 440.7c5.5-2.7 9.1-8.7 9.5-14.9.3-6.2-2.5-12.3-7-16.5-.5 5.6-4.4 10.8-9.6 12.9-4.3 1.7-9.1 1.4-13.3 3.3-4.2 1.9-7.1 7.9-3.8 11 7 5 16.4 8 24.2 4.2z"/><path fill="#10B2DD" d="M949.2 514c-27.1 3.2-54.2 6.3-81.3 9.5.7-7.5 1.4-15.1 2.1-22.6 26.8-.9 53.6-1.3 80.5-1.3.4 4.9 0 9.8-1.3 14.4z"/><path fill="#FF7110" d="M954.1 511.2c-.7-2.5-1.3-5-2-7.4-.8-3.1-1.7-6.5-.8-9.6.8-3.1 4-5.9 7.1-5.2 3.8.9 4.4 7.4.7 9 6.5 2.9 14.4-4.6 20.7-1.4 1.3.7 2.4 1.7 3.2 2.9 4.7 6.8.3 17.5-7.6 20.2-7.7 2.7-16.9-1.5-21.3-8.5z"/></g><g><path fill="#DB12B0" d="M1108.9 555.8c15.7-.2 31.5-2.6 46.6-7.1 3.5-9.7-1.5-20.2-4.3-30.2s-1.4-23.5 8.4-26.7c9.1-3 17.8 5.3 22.8 13.4 12.1 19.3 18.3 42.3 17.4 65.1-.1 2.9-.4 5.9-1.5 8.6-1.1 2.5-2.9 4.5-4.7 6.5-13.5 14.7-30.1 26.6-48.3 34.7-1.2-7.9-11.9-13.1-10.3-20.9.7-3.7 4-6.2 7-8.3 6.2-4.5 12.5-8.9 18.7-13.4-17.3 1.5-34.7 3-52 4.6.2-8.9.2-17.6.2-26.3z"/><path fill="#FF7110" d="M1173.8 475c-2.9-11.9-7.5-23.3-13.7-33.8-2.6-4.4-5.6-8.7-9.9-11.4-3.3-2-7-2.9-10.7-3.7-9.3-2.1-20-3.8-27.8 1.7-6.3 4.5-8.9 12.8-8.6 20.5.3 7.7 3.1 15.1 5.7 22.4.4 1.1.8 2.4.4 3.5-.5 1.2-1.7 1.9-2.8 2.6-7.3 4.9-9.6 15.4-6.5 23.6 3.1 8.2 10.7 14.2 19 17.2s17.3 3.3 26.1 3c4.5-.1 9.1-.5 13.1-2.5 6.7-3.3 10.5-10.6 12.8-17.8 4.1-12.8 6.1-12.1 2.9-25.3z"/><path d="M1094.6 583.2c2.3 2.7 7 1.2 8.8-1.8 1.8-3 1.5-6.8 1.2-10.3-1.3-13.7-2.5-27.5-3.8-41.2-2.1 0-4.3 0-6.4-.1-4.4 12.5-8.6 26.8-2.5 38.5.6 1.1 1.3 2.3 1.6 3.5 1 3.8-1.5 8.4 1.1 11.4zM1129 618.3c.1 1.2-.4 2.3-.7 3.4-.7 2.9.8 6.1 3.5 7.4s6.1.7 8.1-1.5c4-4.5.6-11.4-2.4-16.6-5.1-9-8.6-18.9-10.2-29.1-1.5 0-3.1.1-4.6.1-4.5 10.7-2.7 23.9 4.6 33 .7 1.1 1.6 2.1 1.7 3.3zM1147.6 464.6s-.1.8-.5 2.2c-.4 1.4-1.1 3.2-2.5 5.2-.7 1-1.6 2-2.6 2.9-.5.5-1.1.9-1.8 1.3-.3.2-.7.4-1 .6l-1.2.6c-1.3.6-2.5 1-3.7 1.4-.1 0-.2.1-.2 0l-.2-.2-.4-.4c-.3-.2-.5-.5-.8-.7-.2-.3-.4-.5-.7-.8l-.3-.4-.3-.4c-.2-.3-.3-.6-.5-.9-.1-.3-.2-.7-.3-.9-.1-.5-.1-1-.1-1.5 0-1 .3-1.9.6-2.8 0 0 .1.2.4.5.3.3.6.8 1.1 1.3.2.3.5.5.8.7l.2.2h.1c.1 0 .2.1.3.1.2 0 .4 0 .6-.1.1 0 .1-.1.2-.1.1-.1.1-.2.1-.3 0-.1.1-.2.1-.2 0-.1-.1-.1.1-.2.4-.4.9-.7 1.4-1.1.5-.4 1-.7 1.5-1.1.5-.4 1-.8 1.6-1.1 2.2-1.4 4.8-2.8 8-3.8zM1124.2 472.4v.7c0 .5-.2 1.2-.6 2-.2.4-.4.9-.7 1.3-.1.2-.3.5-.4.7l-.2.3c-.1.1-.2.2-.3.4-1.3 1.3-3.1 2.8-5.3 4.3-.5-.7-.9-1.5-1.4-2.3-.5-.8-1-1.6-1.5-2.5l-.4-.6-.2-.3-.3-.6c-.2-.4-.5-.8-.7-1.2-.9-1.7-1.9-3.7-3.4-6.3h1.2c.8 0 1.9.2 3.1.6 1.3.4 2.7 1.2 4.1 2.4.3.3.7.6 1 1l.5.5h.1c.1 0 .1 0 0 .1 0 .1 0 .2.1.3 0 .1.1.1.2.2.1 0 .1.1.2.1l.5-.1c1.4-.3 2.8-.5 4.4-1zM1163.4 477.5s-.3.1-.9.4c-.6.3-1.4.5-2.3 1.1-1.9 1-4.4 2.7-7.2 5.1-2.8 2.4-5.9 5.4-9.8 8.6-3.8 3.2-8.3 6.8-13.8 9.5 0 0 .2-.3.5-.9.3-.6.9-1.5 1.5-2.6 1.3-2.2 3.2-5.2 5.8-8.5 2.6-3.3 6-6.9 10.5-9.7 2.2-1.4 4.8-2.6 7.5-3.2 2.7-.6 5.6-.6 8.2.2z"/><path fill="#381002" d="M1108.8 448.7c-5.5-2.7-9.1-8.7-9.5-14.9-.3-6.2 2.5-12.3 7-16.5.5 5.6 4.4 10.8 9.6 12.9 4.3 1.7 9.1 1.4 13.3 3.3s7.1 7.9 3.8 11c-7.1 5-16.5 8-24.2 4.2z"/><path fill="#DB12B0" d="M1097.1 522c27.1 3.2 54.2 6.3 81.3 9.5-.7-7.5-1.4-15.1-2.1-22.6-26.8-.9-53.6-1.3-80.5-1.3-.4 4.9 0 9.8 1.3 14.4z"/><path fill="#FF7110" d="M1092.3 519.2c.7-2.5 1.3-5 2-7.4.8-3.1 1.7-6.5.8-9.6-.8-3.1-4-5.9-7.1-5.2-3.8.9-4.4 7.4-.7 9-6.5 2.9-14.4-4.6-20.7-1.4-1.3.7-2.4 1.7-3.2 2.9-4.7 6.8-.3 17.5 7.6 20.2 7.6 2.7 16.8-1.5 21.3-8.5z"/></g><g><path fill="#FF7110" d="M776.8 228c-7.9.6-16.4 1-23-3.3-5-3.3-8.1-8.8-10.5-14.3-3.7-8.7-6.1-18-7.1-27.5 16.3-3.5 33-5 49.6-4.6 0 12.3.1 24.6.1 36.9 0 4.5-.5 9.8-4.5 11.9-1.3.6-3 .8-4.6.9zM802.1 140.5c-1.3-21.5-2.5-43.1-6.4-64.4-2.3-12.9-7.2-27.4-20.6-32.4-10.3-3.8-22-.5-32.2 3.4-4.7 1.8-9.5 3.8-13.5 6.8-11.7 8.7-14.7 23.7-14.8 37.4 0 1.9 0 3.7.1 5.6-1.3 0-2.6 0-3.9.1-1.1.1-2.4.3-3.1 1.2-.7.9-.6 2.2-.5 3.3.6 5 1.2 9.9 1.8 14.9.5 4.1 1.1 8.4 3.8 11.5 1.8 2.1 5.1 3.2 7.7 2.6 3.1 9.8 7.5 19.3 13.2 28.1 2.5 3.9 5.4 7.7 9.3 10.4 11.3 7.6 27.3 4 40.4-.7 5.8-2.1 11.9-4.6 15.4-9.3 3.9-5.3 3.7-12.2 3.3-18.5z"/><path d="M775.2 90.6s.9 1.4 2.5 4c1.6 2.5 4 6 6.5 10.8 1.2 2.4 2.5 5.1 3.3 8.3.2.8.4 1.6.6 2.5.1.9.3 1.7.4 2.7 0 .5 0 .9.1 1.4v.9l-.1 1.2c0 .8-.1 1.6-.1 2.4 0 .1 0 .2-.1.3l-.3.1-.6.3-1.1.5-1.1.5-1.2.4c-.5.2-1 .2-1.5.4-1 .2-2 .3-3 .3-2 .1-3.9-.1-5.9-.3-3.9-.6-7.5-1.7-11.5-2.7 0 0 2-.4 5.3-.8 1.7-.2 3.6-.4 5.9-.6 2.2-.3 4.6-.6 6.9-1.3.6-.2 1.1-.4 1.7-.6h.1v-.1c0-.1-.1-.1-.1-.1 0 .1-.1-.4-.1-.7 0-.3 0-.7-.1-1-.4-2.7-1.2-5.6-2.1-8.7-.9-3-2-6.2-2.9-9.6-.6-3.5-1.4-7-1.5-10.5zM740.4 91.6s12-8 26.3 0c0 0-14.2 7-26.3 0zM778.1 89.9s.4-.5 1.2-1.1c.8-.6 1.9-1.3 3.3-1.8s2.9-.7 4.5-.4c1.7.3 3.3 1.1 5.9 2.4 0 0-.3.5-1.1 1.3-.4.4-.9.8-1.5 1.2-.6.4-1.3.7-2.1 1-1.5.6-3.3.8-5.1.4-1.7-.3-3.4-1.2-5.1-3zM748.3 140.8s.2-.1.7-.3c.5-.2 1.2-.5 2.1-.7 1.8-.6 4.5-1 7.7-1.1 3.2-.1 6.8.1 10.5.4 1.9.1 3.8.3 5.8.3s4.2-.2 6.7-1.1c0 0-.1.3-.5.8-.2.2-.4.5-.6.9-.2.4-.6.7-1 1.1-.4.4-.8.8-1.4 1.2-.6.4-1.2.8-1.9 1.1-1.4.7-3 1.3-4.8 1.7-3.6.8-7.7.7-11.7-.1-2-.4-3.9-.9-5.9-1.6-1.9-1-3.8-1.8-5.7-2.6z"/><path fill="none" stroke="#000" stroke-miterlimit="10" d="M762.7 98.3c-2.8 8.6-12.6 14.2-21.4 12.4M757 153.8c4-.4 7.9-1.6 11.4-3.5"/><ellipse cx="753.1" cy="96.4" rx="7.5" ry="6.1"/><ellipse cx="786.6" cy="94.2" rx="6" ry="4.9"/><path fill="#BC540D" d="M778.6 177.2c-.1 14.5-1.6 29.1-4.5 43.3-2.1-.7-3.4-2.6-4.7-4.3-8.3-12-16.7-24-25-36-.6-.9-1.3-1.9-1.9-2.8-6.4 0-12.7.1-19.1.1 1.7 51.6-1.5 103.3-9.6 154.3 17.3-.1 34.7-.3 52-.4 11.7-.1 23.7-.3 34.7-4.5.1-49.9.3-99.7.4-149.6-7.4-.1-14.8-.1-22.3-.1z"/><path fill="#6B3109" d="M706.7 509c12.9-57.7-1.3-118.7 10-176.7 29.3 3 58.8 3.7 88.2 2.1 1.4 40.9-7 81.5-8.9 122.4-1.6 33.7 1.2 68-6.1 101-10.4.8-20.7 1.6-31.1 2.4 2.1-62.4 4.1-124.8 6.2-187.2-9.9 64.1-19.8 128.2-29.8 192.4-13.1.9-26.2 1.1-39.3.8-.6-19.5 6.5-38.2 10.8-57.2z"/><path fill="#1C0D03" d="M786.5 565c1.6 0 3.3.1 4.8.8 1.5.7 2.5 2.1 3.6 3.3 4.9 4.8 12.2 6 19 6.8 13.1 1.7 26.5 3.4 39.2.2 3.6-.9 8.1-1.9 10.4 1.1 1.9 2.5.6 6.3-1.9 8.1s-5.7 2.2-8.8 2.6c-23.3 2.5-47.6 4.9-69.4-3.6v7.1c-7 .3-13.9.6-20.9.8.7-9.2.5-18.4-.5-27.6 8.1.1 16.3.3 24.5.4z"/><path fill="#1C0D03" d="M719.9 574.9c1.6.3 3.3.6 4.6 1.6 1.3 1 2.1 2.5 3.1 3.8 4.1 5.5 11.1 7.8 17.7 9.8 12.6 3.8 25.6 7.6 38.7 6.4 3.7-.3 8.3-.6 10.1 2.7 1.5 2.7-.4 6.3-3.2 7.7s-6 1.3-9.1 1.1c-23.4-1.2-47.8-2.7-67.9-14.6-.4 2.3-.8 4.7-1.1 7-6.9-.8-13.9-1.7-20.8-2.5 2.2-8.9 3.5-18.1 3.9-27.3 8 1.4 16 2.9 24 4.3z"/><path fill="#BC540D" d="M725 177.6c-9.9 2.3-17.3 10.8-21.9 19.9-4.5 9.1-6.9 19.2-11.2 28.5 8.8 3.1 17.7 6.1 26.5 9.2 3.4-4.1 6.8-8.1 10.2-12.2M794.6 210.8c.5-11.3 1-22.6 1.5-33.8 3.5-1.2 7.4.2 10.1 2.8 2.7 2.5 4.3 6 5.8 9.3 5.8 13 10.9 26.4 13 40.4-7.6 1.4-15.2 3.1-22.7 5.1-.2-3.7-3.6-6.3-5.6-9.5-2.5-4.2-2.3-9.4-2.1-14.3z"/><path fill="#FF7110" d="M696 229.2c.4 26.6-8.3 53.1-4.7 79.5 3.1 22.6 14.9 42.9 26.5 62.6 2.3-10.3 1.8-21.1-1.4-31.2-2.6-8-6.8-15.4-8.8-23.5-6.7-26.5 10.8-53.8 7.9-81-6.8-.5-13.6-2.7-19.5-6.4z"/><path fill="#2F4F0E" d="M928 308s-6.4 3-24 3-21-3-21-3v-60h45v60z"/><path fill="#2F4F0E" d="M869.8 253.5c-.4 15.3 0 30.5 1.1 45.7.1 1.8.5 4 2.1 4.9.8.5 1.8.5 2.7.5 3.3.1 6.6.1 9.9.2 1.3 0 2.6 0 3.7-.6s1.9-2 1.3-3.1c-2.4.4-4.8.7-7.2.3-2.4-.4-4.7-1.8-5.7-4-.6-1.5-.6-3.2-.5-4.9.3-10.2 0-20.4-1.1-30.5 4.6-.8 9.2-1 13.9-.8-.1-2.5-.2-5-.2-7.4-6.8-.2-13.4-.3-20-.3z"/><path fill="#FF7110" d="M860.8 265.2c-1.3 2-.9 3.7.2 5.3 1 1.5 4.8 1.6 5.2 3.5 1.9 7.4 6 24.4-3.2 22.7-21.6-.9-17.4 1.2-39 2.4-1.1.1-2.2.1-3.1-.6-.8-.6-1.2-1.7-1.4-2.7-4.7-17.3-9.5-34.6-14.2-51.9-.7-2.7-1.2-6.1 1-7.7.9-.7 2-.9 3.1-1 3.6-.6 7.3-1.2 10.9-1.9 5.4 15.1 9.2 30.8 11.5 46.7 13.2-1.3 1.2 2.3 13.4-2.9.9-.4 1.8-.8 2.4-1.5 1.9-1.9 1.2-5 1.2-7.7 0-5.5 3.7-10.7 8.8-12.6 5.1-1.9 11.4-.2 14.9 4 1 1.2 1.9 2.7 2 4.3.3 3.3-2.7 6.3-6 6.5s-6.3-1.9-7.7-4.9zM889.3 261.5c-.3-.9-1.2-1.6-2-2.2-1.2-1-2.5-2-3.7-3-.5-.4-1.1-.8-1.7-.9-2.1-.4-3.2 2.4-4 4.5-1.1 3.1-3.3 5.8-3.8 9.1-.6 3.2 1.7 7.3 4.9 6.8 3.4-2.8 6.4-6 8.9-9.6 1.1-1.4 2-3.1 1.4-4.7zM873.2 289.2c5.6-.2 11.2-2 16-5 1.1-.7 2-1.6 2.6-2.7 1.8-3.5-.3-6.9-2.7-8.2-1.4-.6-2.8-.6-4.8.1-1.8 1.9-4.6 3.5-7.3 4.8-4.2 1.8-6.8 7.6-3.8 11zM870.8 296.5c-2.4-2.6 1.6-6 6.1-6.7s9.3 0 13.9-.4c1.5 2.9-2 6-6.3 7s-9.2.6-13.7.1z"/><path d="M736.5 81.6c-3.3-5.8-8-10.9-13.5-14.8l.9 40c-.9 1.1-2.8.3-3.6-.8-.9-1.1-1.4-2.6-2.7-3.3-2.2-1.3-5.2.9-5.6 3.4-.5 2.5.7 5 1.9 7.3l12 24.3c-5.8 1.4-11.9-2.1-15.4-6.9-3.5-4.8-4.9-10.8-6.2-16.7-2.8-12.4-5.6-24.9-4.7-37.6s6.1-25.6 16.4-32.9c12.4-8.8 29-7.9 44-5.9 8.5 1.1 17 2.5 25.5 4 1.5.3 3.1.6 4.3 1.6 1.1.9 1.7 2.2 2.2 3.5 4 11-2 24.6-12.9 29 .8-5.7 1.1-11.4.8-17.1-.1-2.8-1-6.3-3.8-6.7-2.8-.5-4.7 2.7-5.8 5.3l-6.9 16.8c.4-6.4-.7-12.8-3.1-18.7-2.1 6.9-5.4 13.4-9.9 19-.4.5-.9 1.1-1.6 1.2-1.1.2-1.9-.9-2.5-1.8-2.8-4.4-5.6-8.7-8.4-13.1.7 7.1.2 14.2-1.4 20.9z"/></g><g><ellipse fill="#686868" cx="867.7" cy="609.1" rx="13" ry="17.5"/><ellipse fill="#686868" cx="800.4" cy="594.4" rx="9.7" ry="13"/><path d="M767.2 561.5c1.6 16.6 6.5 32.7 11.5 48.6 1.4 4.4 2.7 8.8 4.1 13.1-1.7 1.4-4.1 1.8-6.2 1.2-9.8-19.7-17.3-40.6-22.2-62 4.2-.3 8.5-.6 12.8-.9zM861.8 614.3c-5.6-16.8-11.3-33.7-16.9-50.5-.4-1.3-.9-2.8-.2-4 1.3-2.3 5.6-1.5 6.6-3.9 6.1 19.6 12.6 39.1 19.4 58.5-3-.1-6-.1-8.9-.1zM718.6 559.1c-.8 18-2.7 36-5.4 53.8-2.4 0-4.8 0-7.2.1-1.3-18.1.5-36.5 5.5-54 2.3.1 4.7.1 7.1.1zM796.4 568c.7-4 2.2-8.7 6.1-9.8 2.7 12.1 2.8 24.9.2 37h-7.8c-.5-9.1 0-18.3 1.5-27.2z"/><path fill="#2E8412" d="M854.5 509.3c-.2-1.3-.5-2.6-1.4-3.5l.6-.9c-17.4-2.4-34.8-4.9-52.1-7.3-2.5-.4-5.2-.8-7.3-2.2-2.7-1.9-4.1-5.1-5.4-8.2-20.3-50.2-38-101.6-53-153.6l-39.3 9.3c-1.1 5.6-.2 11.5 2.4 16.5 7.1-6.2 15.2-12.7 24.6-12.3 1.8.1 3.6.6 5.2 1.4.9 6.7 2.1 13.4 3.6 20-1.9 1.1-4.2 1.8-6.4 2.5-11.7 3.4-23.4 6.8-35.1 10.3-1.4-7.9-2.8-15.9-4.2-23.8-.6-3.7-1.8-8.1-5.4-9.3-2.6-.9-5.4.3-7.8 1.4L630 370c.6 4.2 1.1 8.5 1.7 12.7 11.4-5.5 23.7-9.5 36.2-11.6 10.4 54.3 21.9 108.5 33.5 162.6 2.1 10 4.3 20 6.4 30 .5 2.5 1.1 5.1 2.7 7 2.1 2.6 5.4 3.6 8.6 4.4 12.4 3 25.3 3.2 38.1 2.6.1.5.2.9.4 1.4 33.2-4.8 66.5-8.9 100-12.1 1.2-19.4.1-38.7-3.1-57.7z"/><path d="M684 429.1c3.8-.8 6.2-4.7 6.5-8.5.3-3.8-.9-7.6-2.2-11.2 1.5 1.3 3.9.2 5-1.4 1.2-1.6 1.7-3.6 2.9-5.1 2.5-3.1 7.2-3.3 11.2-3.1 4.6.1 9.1.3 13.7.4 1.4 0 2.8.1 4 .8 2.4 1.5 2.7 4.8 2.6 7.6-.3 9.8-1.8 19.7-6 28.6-2.9 6-7.2 11.7-13.4 14.3-6.2 2.6-14.3 1.2-17.9-4.4-.7-1.1-1.3-2.4-1-3.7.3-1.4 1.7-2.5 2-3.9 1.2-4.4-6.4-6.1-7.4-10.4z"/><ellipse fill="#686868" cx="708.4" cy="612.4" rx="14.3" ry="20.1"/><ellipse fill="#686868" cx="772.1" cy="618.2" rx="14.3" ry="16.9"/><ellipse fill="#282828" cx="702.8" cy="613.4" rx="6.4" ry="13.8"/><ellipse fill="#282828" cx="767.8" cy="617.6" rx="7.5" ry="11.9"/><path fill="#6DCCBA" d="M790.4 387c5.1 0 10.2.1 15.3.1-1.7 22-6.6 43.7-14.4 64.4-1.4 3.7-2.9 7.6-2.6 11.5.7 7.5 7.6 12.7 10.4 19.7-9.6 3.5-19.1 7-28.7 10.5-4.9 1.8-10 3.6-15.2 3.9-5.4.2-10.7-1.2-15.8-2.6-18.3-5-36.5-10-54.8-15-2.9-.8-5.9-1.7-8.2-3.6-1.8-1.5-3-3.6-4.1-5.7-2.4-4.3-4.8-8.5-7.2-12.8-.8-1.4-1.6-2.9-1-4.4.4-1.1 1.3-1.8 2.2-2.4 3-2.1 6.1-4.2 9.2-6.2 3.1 5.5 6.2 11.1 9.3 16.6.6 1 1.2 2.1 2.2 2.7 1.5.8 3.3.3 4.9-.1 21-6.2 42-12.5 63-18.7 4-1.2 8.1-2.4 11.5-4.9 5.6-4.1 8.4-11.1 10.8-17.6 4.4-12 8.8-23.7 13.2-35.4z"/><path fill="#FF7110" d="M786.4 408.4c6 17.2 6.4 40-18.4 48.6s-65.4-.2-71.4-17.4 9.2-38.2 34-46.8c24.8-8.6 49.8-1.6 55.8 15.6z"/><path d="M732.2 447s-.1-.6-.3-1.7c-.2-1.1-.5-2.8-.7-4.9-.2-2.2-.4-4.8-.4-7.9 0-3.1.3-6.7 1.2-10.6.9-3.9 2.5-8.3 5.9-12.2 1.7-1.9 3.7-3.7 6.2-5 1.2-.6 2.5-1.2 3.9-1.6 1.3-.4 2.8-.7 4.4-.8 3.1-.2 6.4.7 8.9 2.4 2.6 1.7 4.6 4 6.1 6.4 3.1 4.9 4.7 10.5 5.4 16.2l-.9-1.8c-.6-1.2-1.5-2.8-2.7-4.9-1.2-2-2.8-4.4-4.9-6.6-2.1-2.3-4.8-4.5-7.8-5.2-.8-.2-1.5-.3-2.3-.3-.8 0-1.6.1-2.4.3-.8.2-1.7.5-2.5.8-.8.4-1.7.8-2.5 1.3-1.6 1-3 2.2-4.3 3.7-1.3 1.5-2.4 3.3-3.3 5.2-1.9 3.9-3.2 8.4-4.3 13.1-1 4.4-1.8 9.3-2.7 14.1zM735 448.2s1.6-.3 4.5-.8c2.9-.4 7-.9 12-1.4 2.5-.3 5.2-.5 8-.9 2.8-.3 5.8-.8 8.7-1.5 2.9-.7 5.7-1.7 7.3-3.9.8-1.1 1.3-2.6 1.4-4.3v-1.3c-.1-.5-.1-.9-.2-1.4-.1-1-.3-1.9-.5-2.9 0 0 .3.4.8 1.1.3.4.6.8.9 1.4.3.6.7 1.2 1 2.1.4.8.6 1.8.8 2.9 0 .6.1 1.2 0 1.8 0 .3-.1.6-.2 1-.1.3-.1.7-.2 1-.2.7-.5 1.4-.9 2-.4.7-.8 1.3-1.3 1.8-.5.6-1.1 1.1-1.7 1.6-.6.4-1.3.9-1.9 1.3-2.7 1.6-5.8 2.6-8.9 3.2-3.2.6-6.5.8-9.8.8-6.7 0-13.5-1.3-19.8-3.6zM707.2 419l-.3-.6c-.1-.4-.4-1-.5-1.7-.3-1.6-.1-4 1.1-6.5 1.1-2.5 3.2-5 6-6.9 2.8-1.9 6.4-3.1 10.5-3.1 0 0-.1.2-.4.6-.3.4-.7.9-1.1 1.5-1 1.3-2.4 2.9-4 4.8-1.6 1.8-3.5 3.7-5.4 5.6-1 .9-1.9 1.9-3 2.9-.9.9-1.9 2-2.9 3.4zM753 392.2s.4-.5 1.3-1.1c.4-.3 1-.6 1.6-.9.6-.3 1.4-.5 2.2-.6 1.6-.2 3.6 0 5.4 1 1.8 1 3.4 2.8 4.5 5.5 0 0-.7.2-1.7.3-1 .1-2.4.2-3.9.2-1.5-.1-3-.3-4.5-1-1.6-.6-3.1-1.6-4.9-3.4z"/><path fill="#D61A1A" d="M773.3 437c-.6 3.9-5.6 4.9-9.5 5.1-8.3.4-17.1.7-24.2-3.6 1.8-4.4 5.9-7.8 10.5-8.7 4.7-.9 9.7.6 13.1 3.9-.1-3-.1-6-.2-9 4.1 1.3 7.5 4.3 9.4 8.1.7 1.4 1.1 2.8.9 4.2z"/><path fill="#FF7110" d="M729.4 397.1c1.8-3.7 3.7-7.4 6.5-10.3 2.9-2.9 7.1-4.8 11.1-3.9 3.6 1.1 3.3 5.5 4.1 8.9"/><path d="M741.2 394.2c-.5-1.4.4-3 1.7-3.5.1 1 .1 2-.2 3-.4.2-.9.3-1.5.5zM749 392c0 .2-.1.5-.3.6-.3.2-.7 0-.9.2-.5-.9-.8-1.9-.9-3 1.2.1 2.1 1.1 2.1 2.2z"/><path fill="#6DCCBA" d="M852.3 484.4c-8.1 5.4-18.9-4.3-28.3-1.8-7.5 2-10.8 10.6-12.9 18.1-.3 1.2-.7 2.5-.2 3.6.5 1.2 1.6 1.9 2.7 2.5 5.4 3.1 10.9 6.3 16.3 9.4-2.7 11.7-7.5 22.9-14 33 7.7.7 15.3 2.5 22.4 5.5-.4 2.8-.9 5.6-1.3 8.3-12.8 2.3-25.9 2.9-38.9 1.7-1.3-.1-2.8-.3-3.6-1.4-.7-.9-.7-2.1-.6-3.2.3-9.9 1.4-19.8 3.3-29.5-12.4-5.5-25.5-9.6-38.9-12.2-3.8-.7-7.7-1.4-11-3.4-9.9-6-10.4-21.6-20.3-27.7 21.2-5.5 43.2-7.5 65.1-5.8 4.8-12.3 14.6-21.9 24-31.1 9.7 3.5 18.7 9 26.3 16 1.2-8.5 2.3-17 3.5-25.5 1.7 0 3.4-.1 5.1-.1 7.8 9.9 10.3 23.7 6.5 35.7-1 3-2.5 6.1-5.2 7.9z"/><path fill="#509386" d="M792.6 478.1c-9.8 4.3-19.5 8.9-29.2 13.6 3.7-4.5 7.5-9.1 12.5-12.1s11.5-4.2 16.7-1.5z"/><path fill="#FF7110" d="M675.9 430.1c.1-.7.2-1.5.1-2.2-.5-2.4-3.5-3.5-5.9-2.8-2.3.7-4.1 2.6-5.7 4.5-1.3-2.6-2.9-4.9-4.9-7-4.8 1.9-9.5 4.4-12.9 8.2s-5.1 9.5-3.2 14.3c2.9 7.6 13.7 9.6 20.7 5.4 7.1-4.1 10.6-12.4 11.8-20.4zM789.3 388.9c-4.2-.6-8.6-2.2-10.7-5.9-1.9-3.4-.9-8.2 2.2-10.6 3.1-2.4 8-2.1 10.8.7-1.6-3.6 1-8 4.5-9.8 3.5-1.8 7.7-1.7 11.6-1.5 3.3.1 7 .5 8.9 3.2.9 1.3 1.2 2.9 1.2 4.4.2 6.6-3.9 12.8-9.5 16.2-5.6 3.4-12.5 4.2-19 3.3z"/></g><g><path fill="#BC540D" d="M480.9 517.2c3.4 17 5.2 34.4 5.3 51.8-13.4.4-26.9-1-40-4.2-.8-18-.4-36 1.3-53.9"/><path fill="#6ABA1E" d="M433.2 601.1c1.4-8.1 3.9-16 7.5-23.3 1.2-2.4 2.8-7.5 2.8-7.5s5.8 1.5 7.5 1.8c11.2 1.9 22.5 3.8 33.7 5.6.3 8.5 1 18.6 2.8 26.9-8 .4-14.8 2.8-22.8 3.2.5-5.5-.8-14.7-2.3-20-2.3 6.5-3.8 13.3-4.5 20.2-7.5.7-15.1-.2-22.3-2.7-.9-.3-2-.7-2.4-1.6-.3-.9-.2-1.8 0-2.6z"/><path fill="#BC540D" d="M476.8 619.7c-1.9 3.9-7.8 5-11 2.1.1-3.9.2-7.7.2-11.6 13 2.3 25.6-4.5 37.9-9.4 4.4-1.8 9.9-3.2 13.7-.2 1.7 1.4 2.7 3.4 3.1 5.6 1.1 5-.4 10.6-3.9 14.4-5.2 2-10.5 4-16 4.5s-11.5-.9-15.5-4.7c-2.1-2-5-4.8-7.2-2.9-.6.5-.9 1.4-1.3 2.2zM447.1 620.7c1.7 3.9 6.9 5 9.7 2.1-.1-3.9-.1-7.7-.2-11.6-11.5 2.3-22.6-4.5-33.4-9.4-3.9-1.8-8.8-3.2-12-.2-1.5 1.4-2.3 3.4-2.8 5.6-1 5 .3 10.6 3.4 14.4 4.6 2 9.2 4 14.1 4.5s10.1-.9 13.6-4.7c1.8-2 4.4-4.8 6.3-2.9.7.5.9 1.4 1.3 2.2zM453 524.2c-2.9 7.9-6.4 15.6-10.6 22.9-3.8-3.7-8.4-6.5-13.4-8.1 5.2-9 10.9-17.6 17-26 4.8 4.6 2.1 6.6 7 11.2zM479 520c.1-.7.2-1.4.6-1.9 1-1.3 3.1-.8 4.6-.1 7.5 3.4 15 6.9 22.5 10.3-1.7 4.8-3.4 9.7-5.1 14.5-7.8-4-15.9-7.4-24.2-10.1.5-4.2 1.1-8.4 1.6-12.7z"/><path fill="#FF7110" d="M527 476c0 24.9-20.3 42.3-45 45-45 5-72.2-26.2-71-51 2-41 23-66 71-63 24.8 1.6 45 44.1 45 69z"/><path d="M502.5 485.1s-2 1.5-5.5 4.3c-1.8 1.4-3.9 3-6.6 4.7-2.7 1.7-6 3.6-10.2 4.7-1.1.3-2.1.4-3.2.6-1.1.1-2.2.3-3.3.4-1.1.1-2.1.2-3.2.3-.5 0-1.1.1-1.6.2l-.8.1h-.5l.5.5c.7.7 1.6 1.3 2.5 1.8 3.8 2.2 8.8 3.5 14.2 4.3 2.7.4 5.4.7 8.3.9 2.8.2 5.8.2 8.7 0 0 0-.7.3-2 .7-1.3.4-3.2 1-5.7 1.5s-5.6.9-9.1 1.1c-3.5.1-7.6 0-12-1.1-2.2-.6-4.5-1.4-6.7-2.7-1.1-.7-2.2-1.4-3.2-2.5-.8-.7-1.4-1.7-2.1-2.6-.3-.5-.5-.9-.8-1.4-.1-.2-.3-.5-.4-.7l-.3-.7c-.4-1-.8-1.9-1.1-2.9l-.1-.4c.1-.1.2-.1.3-.1l.7-.3 1.4-.6c.5-.2.9-.4 1.5-.6l1.7-.4 1.7-.4.9-.2c.3-.1.5-.1.7-.1 2.7-.3 5.2-.3 7.5-.4.6 0 1.2 0 1.8-.1l1.7-.1c1.1-.2 2.2-.3 3.3-.6.6-.1 1.1-.3 1.7-.4l1.7-.5c1.1-.3 2.3-.8 3.4-1.2 4.6-1.4 9.4-3.6 14.2-5.1zM481.6 468.9s.3-.4 1.1-1.1c.7-.7 1.9-1.6 3.5-2.7s3.6-2.3 6.3-3.3c1.3-.5 2.8-1 4.5-1.2 1.7-.2 3.7-.3 6 .7 1.1.5 2.2 1.4 3 2.5.8 1.1 1.2 2.4 1.5 3.6.5 2.4.2 4.6-.3 6.8-.6 2.6-2 4.9-3.8 6.7-1.8 1.8-3.9 3.1-6.2 4.2-2.3 1-4.7 1.6-7.3 1.8-2.5.2-5.3 0-7.9-1.1-1.3-.5-2.6-1.4-3.5-2.6-1-1.1-1.5-2.6-1.7-4-.2-2.8.8-5.3 2.1-7.4 0 0-.1.6-.3 1.7-.1 1.1-.2 2.8.3 4.5.5 1.8 1.9 3.2 4.1 3.7 2.2.5 5.1.2 8-.8 2.9-1 5.8-2.7 7.8-4.9.5-.6.9-1.2 1.2-1.8.1-.3.3-.6.4-.9.1-.3.2-.6.3-1 .4-1.7.5-3.4.3-4.5-.1-.5-.3-.8-.6-1.1-.3-.3-.8-.6-1.5-.8-1.5-.4-3.4-.3-5.4-.1-3.8.6-8 1.6-11.9 3.1z"/><ellipse cx="465.5" cy="467.4" rx="7.2" ry="6.9"/><ellipse cx="492.5" cy="459" rx="6" ry="5.8"/><path fill="#FF7110" d="M518.8 515.7c3.6 1.7 8.8-1.1 11.4 1.9-.3 6.1-2.3 12.2-5.6 17.4-5.3.2-10.7-1.5-14.8-4.8 0 4.6-.7 9.3-2.1 13.7l11.7 3c1.2.3 2.4.6 3.5.3 2-.5 3.3-2.4 4.3-4.3 4-7.1 7.6-14.4 10.9-21.9 5.9-1.9 11.8-3.7 17.7-5.6 2.8-.9 6.3-2.8 5.7-5.7-.4-1.8-2.3-2.9-4.1-2.9-1.8 0-3.6.8-5.2 1.5s-3.2 1.5-4.8 2.2c2.6-3.9 3.6-8.8 2.7-13.4-2.7-.5-5.5 1.1-7.3 3.2-1.8 2.2-2.7 4.8-3.6 7.5.5-4.6 1.1-9.3 1.6-13.9-3.9-1.2-7.6 2.8-8.6 6.7-1 3.9-.6 8.2-2.1 12-4.7.8-9.1-6.2-13.2-3.8-1.4 2.4-.4 5.8 1.9 6.9zM430.5 556.9c1.4 2 3.3 3.7 5.2 5.3 1.9 1.5 3.8 2.9 5.9 4.2-.1-4.4.6-8.8 2.1-12.9-3.2-.4-5.6-4-4.7-7.1-3.4-1.6-6.8-3.2-10.1-4.8-2.1 5-1.5 10.9 1.6 15.3z"/><path d="M442.8 421.1s-.1-.3-.3-.8c-.2-.6-.4-1.4-.4-2.5-.1-1.1 0-2.6.4-4.2s1.2-3.4 2.5-5.1c2.5-3.5 6.6-6.4 11.4-8 4.8-1.7 10.3-2.2 16.1-1.9 0 0-1.2.8-3.2 2-2.1 1.2-5 2.8-8.3 4.5-3.3 1.8-7 3.7-10.2 6.1-.8.6-1.6 1.2-2.3 1.9-.8.7-1.5 1.4-2.1 2.2-1.5 1.6-2.7 3.5-3.6 5.8zM464.7 423.8s-.1-.3-.1-.9c0-.3-.1-.7-.1-1.1v-.7-.8c0-2.3.7-5.7 2.6-9.4 1.9-3.7 5.4-7.6 10.2-10.3 2.4-1.3 5.2-2.3 8.1-2.7 2.9-.4 6-.2 8.9.7 0 0-.3.1-1 .4-.6.2-1.6.5-2.6 1-2.2.9-5.1 2.4-8.2 4.5-.8.6-1.6 1.1-2.3 1.7l-1.2.9c-.4.3-.8.7-1.2 1-.4.3-.8.7-1.2 1-.4.4-.8.7-1.2 1.1-.4.4-.7.8-1.1 1.2l-.6.6-.5.6c-1.6 1.6-3 3.4-4.4 5.2-1.4 1.8-2.7 3.8-4.1 6z"/></g><g><path fill="#FF7110" d="M263.1 280.3c-.4-11.1-.9-22.5-5.5-32.5-3.5-7.4-9.2-13.5-11.9-21.3-3.7-10.1-1.8-21.4-1.8-32.2 0-2.5-.1-5.1-1.4-7.2-1.1-1.8-2.8-2.9-4.5-3.9-21.3-12.7-47.5-16-71.1-8.9-1.6.5-3.3 1.1-4.6 2.2-1.8 1.6-2.6 4.1-3.2 6.5-1.7 6.1-3 12.4-3.9 18.7-4.2.5-8.4 2.4-10.5 6.2-1.1 1.9-1.6 4.2-1.8 6.5-.9 9.4 3.5 19.1 10.7 24.5.3 4.7.8 9.3 1.5 13.9 2.9 19.4 10.8 40.2 27.7 48.5 10.8 5.3 23.4 4.5 35.2 2.5 12-2 23.8-4.9 35.4-8.8 3.1-1.1 6.4-2.4 8.2-5.2 1.6-2.7 1.6-6.2 1.5-9.5z"/><path d="M232.6 259.4s-.9.1-2.7.2c-1.8.1-4.5.2-7.9-.1-3.4-.3-7.6-1-12.4-2.1-4.7-1.1-10-2.7-15.7-4.1-2.9-.7-5.8-1.3-8.9-1.7-.5-.1-.4 0-.5-.1h-.4l-.1.3c-.2 1-.4 2.1-.7 3.2-.6 3.2-.9 6.6-.7 9.9 0 .8.2 1.6.3 2.5.1.8.4 1.6.5 2.4l.4 1.2.2.6.3.6.5 1.1.6 1.1c.9 1.4 1.9 2.8 3.2 4 .6.6 1.3 1.2 2 1.7.8.5 1.5 1.1 2.3 1.5 3.2 1.9 7 3.2 11 4 4 .8 8.3 1.2 12.6 1.2 4.4 0 8.8-.4 13.3-1 0 0-1 .4-3 1s-4.9 1.5-8.8 2.2c-3.8.7-8.6 1.2-14 .8-2.7-.2-5.7-.6-8.7-1.5-3-.9-6.1-2.2-9.1-4.2-2.9-2-5.6-4.9-7.4-8.3-1.8-3.5-2.8-7.4-3-11.4-.2-4 .2-7.9 1.1-11.8l.3-1.4.1-.4v-.2s0-.1.1-.2l.4-1.2.7-2.5.4-1.2.2-.6.1-.3v-.2-.1h.1c1.8.2 3.5.5 5.3.7l.7.1.4.1.7.1 1.5.3c7.9 1.7 15.2 4.9 22.4 7.6 7.3 3 14.6 5.2 22.3 6.2zM215.7 210.7s.3.3.9 1.1c.6.7 1.4 1.8 2.4 3.3 1.9 3 4.4 7.4 6.4 13.5 1 3 1.9 6.4 2 10.5 0 2-.1 4.3-1.3 6.9-.2.3-.4.6-.6 1-.2.3-.5.6-.7.9-.3.3-.7.7-1 .9-.4.2-.8.5-1.2.7-1.6.7-2.9.8-4.2.8-2.5 0-4.7-.6-6.8-1.3-2.1-.7-4.2-1.6-6.2-2.6-4-2-7.9-4.5-11.5-7.5 0 0 2.2.7 5.9 1.7 1.9.5 4.1 1.1 6.7 1.7 2.5.6 5.4 1.2 8.3 1.5 1.4.2 3 .2 4.1 0 .6-.1.9-.3 1-.4 0-.1.1-.1.1-.2.1-.2.2-.3.3-.6.4-.9.5-2.5.5-4.1 0-1.6-.2-3.4-.4-5.2-.5-3.6-1.2-7.4-2-11.2-.8-3.8-1.6-7.7-2.7-11.4z"/><circle cx="190.7" cy="209.9" r="8.4"/><circle cx="234.8" cy="215.7" r="6.5"/><path d="M256.4 175.8c-27.7-11.8-57.3-19-87.2-21.4-3.3-.3-6.9-.3-9.4 1.9-1.5 1.4-2.3 3.4-2.9 5.4-.1.3-.2.7-.3 1-1.9 1.4-3.6 3.1-5.1 4.9-9.4 11.3-13.3 26.4-14.5 41.1-.5 6.3-.6 12.8 2.1 18.5 3.8 7.9 12 12.5 19.7 16.5-5.4-4.4-17-25-6.4-37.9.1-.6 2-1.8 2.1-2.4 6.5-1.2 12.8 3.5 16.3 9.1-.3-8.6-1.7-17.2-3.9-25.5 21.1-1.4 44-2.3 61.3 9.8l-2.4-11.7c7.7.9 11.5 10 11.6 17.7 3.3-3.4 6.7-6.8 10-10.2 4.9-4.7 9.9-10.3 9-16.8z"/><path fill="#6ABA1E" d="M138.1 275.7c-3.5-.8-6.6 2.1-8.9 4.8-20 23.7-31.8 53.8-36.1 84.6-4.3 30.8-1.4 62.2 5.5 92.5 34.7-1.7 69.3-5.9 103.4-12.7-15.3-15.1-23.5-37.1-21.7-58.5 1.8-21.4 13.4-41.8 31-54.1-26.8-10.5-50.4-28.7-67.5-51.8-1.6-2.1-3.3-4.3-5.7-4.8z"/><path fill="#6ABA1E" d="M278.5 270.8c.6 18.7.2 37.5-1.1 56.2-4-2.4-7.6-5.5-10.5-9.2 0 4.4-.1 8.8-.1 13.2-3.4 0-6.7-2.1-8.1-5.1-1.6 1-2.6 3-2.3 4.9-26-4.1-52.5-4.9-78.7-2.4-.7 8.6-.5 17.2.7 25.7 18.6 2.1 37.3-1.6 55.6-5.3 19.3-3.9 38.7-7.8 58-11.7 3.4-.7 7-1.5 9.2-4.2 1.8-2.3 2.2-5.4 2.5-8.3 1.6-15.7 3.2-31.3 4.8-47-9.6-3.3-19.7-5.6-30-6.8zM52.2 288.5c3.7.5 7 3.2 8.3 6.7 0-3.1.1-6.2.1-9.2 3.8-.5 5.1 4.8 7.4 7.8 2.7 3.6 7.8 4.4 12.3 4.8 17.6 1.8 35.2 3.6 52.7 5.4 1.7-9.7 3.4-19.5 5.1-29.2-35.9-8.1-72.7-11.9-109.5-11.5-6.8 34.9-9 70.8-6.6 106.3 9.5-1 19-1.9 28.6-2.9.5-26 1-52.1 1.6-78.2z"/><path fill="#FF7110" d="M305 226.1c7.6 4.5 13.6 11.5 17.1 19.6 1.9 4.5 3 9.5 2.2 14.3-.8 4.8-3.9 9.4-8.4 11.2-6 2.4-12.8-.3-18.6-3.3-8.8-4.5-18.6-11.6-18.1-21.5.2-3.7 1.8-7.2 3.1-10.6 7.4-18.9 7-40.7-1.1-59.3 8.1-1.9 15.3 6.4 16.8 14.6s-.8 16.6-.1 24.9c.2 2.1.6 4.3 1.8 6 1.3 1.9 3.4 2.9 5.3 4.1zM65.1 410c-8.7 6.3-20.3 6.5-31.1 6.4-3.5 0-7-.1-10.5-.1-1.4 0-2.9 0-4.2-.6-5-2.1-4.1-10.1.2-13.3 4.3-3.2 10.1-3.3 15.5-3.8-7.1-2.3-11.5-10.7-9.4-17.9 8.9-3.4 17.9-6.9 26.8-10.3 3.1-1.2 6.4-2.4 9.7-1.9 3.6.6 6.6 3.2 8.7 6.2 7.8 10.8 5 27.5-5.7 35.3z"/><circle fill="#B55412" cx="294.1" cy="128" r="46.8"/><path d="M299.2 86.7s.4.5 1.1 1.4c.7.9 1.7 2.3 2.9 4.2 2.4 3.7 5.6 9.2 8.4 16.6 1.4 3.7 2.5 7.9 3.3 12.6.6 4.7.9 9.8.2 15.1-.8 5.3-2.5 10.7-5.1 15.7-2.7 5-6.4 9.5-10.7 13.5l.9-1.8c.3-.6.7-1.3 1.1-2.1.2-.4.5-.9.7-1.3.2-.5.5-1 .7-1.6.5-1.1 1-2.3 1.6-3.6.5-1.3 1-2.8 1.6-4.3.5-1.5.9-3.2 1.4-4.9.2-.9.3-1.8.5-2.7.2-.9.4-1.8.5-2.8 1-7.6.7-16.5-1.3-25.6-.4-2.3-1.1-4.6-1.6-7-.3-1.2-.6-2.3-1-3.5l-.5-1.8-.5-1.8-1-3.6-1.1-3.5c-.6-2.5-1.4-4.8-2.1-7.2z"/><path d="M272.1 93.3s.7.2 1.9.5c.6.1 1.4.4 2.3.7.9.3 1.9.7 3 1.2 2.2 1 4.9 2.4 7.7 4.7 2.8 2.2 5.7 5.2 8 9.2 1.2 1.9 2.2 4.1 3.1 6.5.8 2.4 1.5 4.9 1.9 7.5.2 1.3.3 2.7.4 4 .1 1.4 0 2.8 0 4.2 0 .7-.1 1.4-.2 2.2-.1.7-.1 1.5-.3 2.2-.4 1.5-.6 3-1.2 4.4-1 3-2.6 5.8-4.5 8.3-1.9 2.5-4.3 4.6-6.9 6.5-5.1 3.7-10.8 6.4-16.6 9l6.6-5.5c2.1-1.7 4.5-3.8 7-6.4 2.5-2.5 5-5.6 6.8-9.2.5-.9.8-1.9 1.2-2.8l.9-3c.1-.5.2-1.1.3-1.6.1-.5.2-1.1.2-1.6.1-1.1.2-2.2.2-3.4 0-1.2 0-2.3-.1-3.5-.1-1.2-.1-2.4-.4-3.6-.3-2.4-.9-4.8-1.6-7.1-.8-2.3-1.7-4.7-3-6.8-1.2-2.2-2.7-4.3-4.4-6.3-1.7-2-3.6-3.8-5.6-5.5-2.2-1.9-4.4-3.4-6.7-4.8z"/><path d="M246.2 132.2s2.6-.8 7.3-2c2.3-.6 5.2-1.3 8.6-2 3.3-.7 7.2-1.6 11.4-2.1 8.5-1.2 18.6-2.6 29.9-2.6 2.8-.1 5.7-.1 8.6-.1 1.5 0 3 0 4.4.1l4.5.3c6.1.4 12.4 1.1 18.8 2 0 0-3.2.5-8.5 1.1-2.7.3-5.9.7-9.6 1-1.8.2-3.8.3-5.9.5-2.1.2-4.2.5-6.4.7-4.5.5-9.3.9-14.3 1.2-.6 0-1.3.1-1.9.1-.6.1-1.3.1-1.9.2l-3.9.3c-2.6.2-5.3.4-8 .6-2.7.2-5.4.3-8.2.4-2.7.1-5.5.3-8.3.4-5.5.2-11.1.2-16.6-.1z"/><path d="M322.6 97.1l.8.8c.5.6 1.3 1.4 2 2.6 1.6 2.3 3.5 6.1 4.8 10.9 1.4 4.8 2.2 10.6 2.4 17 .1 3.2 0 6.5-.2 9.9-.2 3.4-.5 7-.8 10.7 0 0-.2-.4-.5-1.2-.3-.8-.8-1.9-1.3-3.4-1-3-2.1-7.3-3-12.3-.9-5.1-1.5-10.8-2.1-16.8-.3-2.9-.6-6-.8-9-.3-3.1-.7-6.1-1.3-9.2z"/><path fill="#6B3109" d="M197.9 456.9c3.6 1.6 6.2 4.7 8.8 7.8 11.1 13.4 22.1 26.8 33.2 40.3 2 2.5 4.2 5.4 3.8 8.5-.2 2.1-1.6 3.9-2.8 5.6-19.1 25.4-38.1 50.7-57.2 76.1-7.8-6.5-15.7-13-23.5-19.4-1-.8-2-1.6-2.4-2.8-.9-2.5 1.2-4.9 3.1-6.8 12-11.9 22.3-25.7 30.2-40.6 1.2-2.2 2.3-4.6 2-7.1-.4-2.8-2.6-5-4.6-7-12.1-11.4-24.1-22.9-36.2-34.3l-9.3 66.6c-.4 2.6-.8 5.3-2.4 7.3-1.5 1.9-3.8 2.9-6 3.9-21.1 9-42.3 18-63.4 27-5.3-8.7-9.7-17.9-13.1-27.4 17.6-8.2 35.1-16.4 52.7-24.6-3.9-20.9-9.4-41.5-16.5-61.6 30-4 60-8 89.9-12 4.5-.8 9.4-1.4 13.7.5z"/><path fill="#0F7DBA" d="M164.6 595.8c-4 1.1-8.7-.5-11.2-3.8s-2.7-8.3-.4-11.8c-4.7 3.3-9.4 6.6-14.1 10-.5.4-1 .7-1.3 1.3-1.1 1.8.8 3.9 2.5 5.3 9.7 7.8 17.6 17.8 22.8 29.1.9 1.9 1.7 3.9 3.5 4.9 1.5.9 3.4.9 5.1.9 16.6 0 33.1-.1 49.7-.1 1.9-8.5 3.2-19.1-3.6-24.5-4.2-3.3-10.1-3.3-15.5-3.2-7.2.2-15.3.8-20 6.2-2.1 2.4-4.7 6-7.6 4.6-2.5-7-2-15 1.4-21.7-3.8-1.5-7.5 1.7-11.3 2.8zM26.5 568.9c3.9 17.9 8.7 35.8 9.4 54.1 18.7.6 37.3 1.2 56 1.8.3-6.5.5-13.1-1.6-19.2s-7.1-11.7-13.5-12.6c-9.4-1.3-17 7.2-25.7 11-3.8-9 1.6-20.7 10.9-23.6-6.6 3.2-11-3.5-12.2-10.8-1.2-7.3 1.2-12.6 8.5-11.7-9.7-1.2-19.6.1-28.6 4-1.1.5-2.2 1-2.8 1.9-1.1 1.5-.8 3.4-.4 5.1z"/></g><g><path fill="#FF7110" d="M398.2 266.1c-13.9.4-27.7.8-41.6 1.1 2.1 15.6-12.6 28.7-14.5 44.3-1.7 13.7 6.7 26.5 14.7 37.8 5 7 11.2 14.7 19.8 14.8 9.4.1 16.1-9.1 24.7-13 6-2.7 13.3-3.1 18-7.7 4.8-4.8 5-12.3 5-19.1-.1-8.2-.1-16.4-.2-24.5-.1-6.3-.1-12.6-2-18.6-1.9-6-5.9-11.6-11.8-13.8-3.9-1.5-8.1-1.4-12.1-1.3z"/><path d="M441.4 320.5c-.3 2.1-.6 4.4.6 6.3.9 1.5 2.7 2.3 4.3 3 13.4 5.1 29.6 1.8 40-8.2 10.4-9.9 14.4-25.9 10-39.6 4.9-2.3 10.5 1.6 13.8 5.8 16 20.5 8.4 52.9-11.6 69.4-20 16.6-48.4 19.6-74 14.7-13.8-2.6-28.6-8.4-34.8-21.1-3-6.2-3.6-13.2-4.1-20.1-1.5-18.8-2.3-39.7 9.4-54.4-10.3 4.2-21.8 6.4-32.7 3.9s-20.9-10.2-24-21c-3-10.7 2.7-23.8 13.3-27.1-5.6 9.7 1.2 24.2 12.3 26 6.2 1 12.5-1.4 18.5-3.3 15.8-5.1 32.4-7.4 49-6.6 6.6.3 14.4 1.8 17.1 7.8 1.6 3.4 1.1 7.3.5 11-2.5 17.9-5 35.7-7.6 53.5z"/><path fill="#A50818" d="M340 322.3s.6.1 1.6.1 2.5 0 4.4-.2c3.8-.2 9.3-.8 16.2-.8 1.7 0 3.5 0 5.5.2l3 .3c1.1.2 2.1.4 3.4.8.4.2.7.2 1.1.5l.6.4c.2.1.4.3.6.5.4.4.6.6.8.9l.6.7c.4.5.8 1.1 1.1 1.7.3.6.7 1.2.9 2 .5 1.4.7 3.1.4 4.7-.2 1.6-.9 3.1-1.7 4.3-.8 1.2-1.8 2.2-2.8 3.1-1 .9-2.1 1.6-3.2 2.3-2.2 1.3-4.5 2.3-6.9 3.1-2.4.8-4.9 1.3-7.4 1.7-2.5.3-5.1.5-7.7.3 0 0 .6-.1 1.7-.5s2.7-.9 4.6-1.8c1.9-.8 4.3-1.9 6.8-3.3s5.2-3.1 7.4-5.3c1.1-1.1 2-2.3 2.5-3.4.1-.3.2-.6.2-.8v-.4-.4c0-.5-.2-1-.4-1.6-.3-.6-.6-1.2-1.2-1.8l-.3-.4c0-.1 0 0 0 0l-.1-.1c-.1-.1-.3-.1-.4-.2-1.5-.5-3.6-.8-5.6-1.1-4.1-.6-8.5-1.1-12.9-1.8-2.2-.4-4.4-.8-6.6-1.3-2-.7-4.2-1.3-6.2-2.4z"/><path d="M354.7 314.4h-1.5c-1 0-2.5-.3-4.3-.7-1.8-.5-3.9-1.3-6.2-2.4-.6-.3-1.1-.6-1.7-.9l-.2-.1c-.1 0-.1-.1-.3-.2-.3-.2-.5-.3-.8-.5-.5-.4-1.1-.7-1.7-1.1-2.3-1.5-4.7-3.2-7.1-4.9 2.5-1.2 5.3-2.4 8-3.5.7-.3 1.4-.5 2.1-.8.4-.1.7-.2 1.1-.3.2-.1.3-.1.4-.1l.3-.1c.8-.2 1.7-.3 2.5-.4 3.5-.4 7-.3 10.9-.1 0 0-.5.3-1.4.9-.9.5-2.2 1.3-3.8 2.1-1.6.8-3.6 1.7-5.7 2.7-.3.1-.5.2-.8.4l-.4.2v.1c0 .1-.1.1 0 .2 0 .1.1.1.2.2.1 0 0 0 0 .1 0 0-.1 0 .2.2l.9.8c.6.5 1.3 1.1 1.9 1.6 2.3 1.9 4.7 4.3 7.4 6.6z"/><ellipse cx="371.6" cy="294.3" rx="7.5" ry="6.7"/><path fill="#20959E" d="M355.9 371.2c-8.5 3.2-12.9 12.3-16.1 20.8-5.4 14.4-9.8 30-6.7 45.1 1.8 8.7 6 16.6 10.2 24.5 2.6 4.8 5.1 9.6 7.7 14.4 3 5.5 6.8 11.7 13 12.6 9.5 1.3 20-3.9 25.6-11.4-2-21.6-3.8-44.4 5.3-64.1 3-6.5 7.1-12.5 9-19.4 1.9-6.9.9-15.3-4.8-19.6-3.5-2.6-8.1-3.2-12.4-3.6-6.8-.6-13.6-.9-20.5-.7-3.4 0-7 .2-10.3 1.4z"/><path fill="#0A3135" d="M384.2 487.3c2.7-2.3 5.4-5.4 8.9-5.5 3.8 14 4 28.8 4.2 43.3.2 24.3.5 57.7.7 82-8.3 0-16.6-.1-24.8-.1-4.2-26.1-5.5-61.6-3.9-88-2.2-1-4.1 2-4.8 4.3-7.8 26.5-15.6 53.1-23.4 79.6-8.3.7-16.7.1-24.9-1.6-1.7-.4-3.6-.9-4.6-2.3-1-1.4-.8-3.3-.6-5.1 3.8-24.5 22.6-43.8 31.6-66.8 3.7-9.4 5.8-19.5 6-29.7.1-3.3.7-7.5 3.9-8.3 1.9-.5 3.8.6 5.6 1.5 8.4 4 19 2.6 26.1-3.3z"/><path fill="#FF7110" d="M334.4 397.5c4.2-6.8 5.3-15.7 11.3-21-8 5.6-15.9 11.1-23.9 16.7-6.3 4.4-13.3 9-20.9 8.2-3.5-.3-6.8-1.8-10-3-9.2-3.4-19-4.8-28.7-6.2 1.5-6.5-4.2-13.6-10.8-13.6-6.7 0-12.4 7-11 13.5 4.8 1.3 10 1.3 14.7-.2 0 6.2-.1 12.5-.1 18.7 0 .7 0 1.5.5 2s1.2.7 1.9.8c11.2 1.7 22.5 3.3 33.7 5 4.7.7 9.4 1.4 14 .4 5.2-1.1 9.7-4.2 14-7.2 5.7-4 11.6-8.1 15.3-14.1z"/><path fill="#FF7110" d="M273.2 429.9c-1.1 3.7 1.7 7.7 5.2 9.4s7.6 1.5 11.5 1.3v6.3c-4.6 4.6-11.4 5.6-17.5 7.9-6 2.3-12.3 7.3-11.6 13.7 15.4 3.5 31.3-.9 46.5-5.3 18.6-5.3 37.2-10.7 55.7-16 3.7-1.1 7.4-2.1 10.6-4.4 8.5-6 9.7-18 15.1-26.9 4.7-7.6 12.6-12.9 17-20.7 4.4-7.8 2.7-20.5-6.1-22.1-9.9 15.6-19.8 31.2-29.8 46.8-2.4 3.8-4.9 7.7-8.5 10.5-3.1 2.4-6.8 3.9-10.5 5.2-14.7 5.1-30.1 8.2-45.6 9.2 1-6.5-6.1-11.5-12.6-12.5s-13.3.2-19.4-2.4z"/><path fill="#17B1C6" d="M251 359c-.6 0 2 47.3 2 51.6s17 18.4 17 23.3V451h-53v-17.1c0-4.1 15.7-17.9 15.7-23.3 0-5.4-.8-51.6-.8-51.6l-3.9-1.5V355h27v2.5l-4 1.5z"/><path fill="#FF7110" d="M242.4 400.6c-.8-2.8-2.8-5.3-4.9-7.7-3-3.4-7-7.1-11.9-7.2-2.9 6.9-4.2 14.3-3.9 21.8.1 1.2.2 2.4.5 3.6.9 2.7 3.2 5.1 6.2 6.6 1.3.6 2.8 1.1 4.1.7.8-.2 1.4-.8 1.9-1.3 4.8-4.6 9.9-10.1 8-16.5z"/><path fill="none" stroke="#FFF" stroke-width="2" stroke-miterlimit="10" d="M247 363v61"/><path d="M396.1 608.3c-5.4.1-10.7.3-16.1.6-2.7.2-5.5.5-7.5 2.2-1.2 1-2 2.5-3 3.7-3.4 4.3-9.1 5.9-14.4 7.3-5 1.3-10 2.6-15.1 4-1 3.2 3.5 5.2 6.9 5.5 16.4 1.4 33.1 0 49-4.4.8-.2 1.6-.5 2.2-1.1.9-.9.9-2.3.9-3.5-.1-3.9-.2-7.7-.2-11.6 0-.8-.1-1.8-.7-2.3-.5-.4-1.3-.4-2-.4zM334.5 607c-5.3-.7-10.7-1.2-16-1.5-2.7-.2-5.5-.3-7.8 1.2-1.3.9-2.3 2.2-3.5 3.3-4 3.8-9.8 4.6-15.2 5.3-5.2.6-10.3 1.3-15.5 1.9-1.4 3.1 2.8 5.7 6.1 6.4 16.1 3.6 32.8 4.4 49.2 2.3.8-.1 1.7-.2 2.4-.8 1-.8 1.2-2.1 1.3-3.4.4-3.8.9-7.7 1.3-11.5.1-.8.2-1.8-.4-2.4-.5-.6-1.2-.7-1.9-.8z"/></g><g><path fill="#230A02" d="M1578.2 613.5c-1.7 2.5-5.4 2.4-8.5 2.3s-7 1.3-7.1 4.3c7.4 5 17.4 1 25-3.6-3.2-21.2-5.6-42.5-7.2-63.9-3.9 2.6-9.4-1.1-10.5-5.6-1.1-4.5.7-9.2 2.6-13.4 2.2-5.1 4.3-10.2 6.5-15.3-10.1-1.2-20.7 1.2-29.2 6.7.7 11.3 2 22.6 4.1 33.8.4 2.3 1.2 5 3.4 5.7 1.1.4 2.4.2 3.5-.1 4-.8 8-1.6 12-2.3 5.3 16.6 7.1 34.2 5.4 51.4z"/><path fill="#381002" d="M1623.5 618.1c-6-17.9-7.4-37.3-4.2-55.9.3-1.9.6-4-.5-5.5-2.2-2.8-6.9-.5-10.3-1.6 2.4-12 6.6-23.6 12.3-34.4 3.9-2.5 6.8-6.1 7.6-10.8 1-6.2-2.3-12.6-7.2-16.6-4.8-4-11-6.1-17.1-7.7-8.6-2.2-17.5-3.5-26.3-2.5-4.8.5-9.6 1.8-14.3 3-27 7-55.3 14.6-82.4 8.3-2.5-.6-5.1-1.3-7-3-.6-.5-1.1-1.1-1.5-1.7-1.1-5-1.6-10.2-2.2-15.3-1-9.3-2-18.6-3-28 1.2-3.9 1-8.2.3-12.2-.5-2.6-1.2-5.2-3-7.1-1.3-1.4-3.1-2.3-4.8-3.1-7.3-3.3-15.2-5.4-23.2-6.1-3.1-1-6.6-1.2-9.9-.8-6.7 1-12.8 4.5-18.6 8-4.7 2.9-9.5 6-14.9 6.9-3.6.6-7.3.2-11-.2l-11.7-1.2c-1.3-.1-2.7-.4-3.4-1.4-.7-.9-.5-2.2-.5-3.3 0-2.8-1.1-5.8-3.4-7.4-2.3-1.7-5.8-1.6-7.8.4-2.3 2.5-1.5 6.6.5 9.4s4.9 4.7 7 7.4c1.4 1.8 2.4 3.8 3.8 5.6 2.4 3 5.7 5.1 8.9 7.1 11.9 7.5 24.3 15.1 38.2 16.4 2.3.2 4.7.2 7 0 .8 0 1.7 0 2.5-.1 4.2-.5 8.1-2.2 12.2-3.3 1.6-.4 3.2-.7 4.8-1 4 4.9 6.7 11.1 8.2 17.3 2.6 10.9 2.1 22.2 2.5 33.3.5 11.7 2.2 23.4 5 34.8 2.1 8.6 5.3 17.7 12.5 22.9 1.7 1.2 3.6 2.2 5.6 2.9 3.6 16.7 5.3 33.7 5.2 50.8-3.1 1.1-6.1 2.2-9.2 3.3-2.4.9-5.3 2.7-4.5 5.1 4.2 1.2 8.6-.6 12.7-2.3 1.4-.6 2.9-1.2 3.9-2.5 1.4-1.7 1.4-4.2 1.3-6.4-.7-15.4-1.3-30.8-2-46.2 4.1.7 8.4.8 12.5.4 5.6 13.9 10.6 28 14.9 42.3 1.2 3.9 1.9 9.1-1.7 11.1-2.8 1.6-6.8.2-9 2.5-2.1.9-2.1 4.3-.4 5.8s4.4 1.4 6.5.6c2.2-.9 4-2.4 5.7-3.9 4.6-4.2 9-9.8 8.4-16.1-.6-7.2-7.2-12.3-10.3-18.8-2.9-6.3-2.4-13.6-1.8-20.5.2-2 .3-4.1.5-6.1 1.7-.7 3.3-1.4 4.9-2.2 11.3-6.1 19.7-16.4 28.6-25.7 8.9-9.3 19.4-18.2 32.2-20l2.7-.3c1 13.2 3 26.4 6.1 39.3.7 3.1 1.7 6.3 4.1 8.3 3 2.4 7.4 2 11.1.7s7.1-3.2 11-3.7c1.1-.1 2.3-.1 3.1.7.6.6.7 1.6.8 2.4 1.8 17.8 2 35.7.6 53.5-5.3-.3-10.6-1-15.8-2.1-2 2.6-2.9 6.1-2.5 9.3 10 4.4 22.8 1 29.3-7.8.4-.5.8-1.1.9-1.7.3-.9-.1-2.2-.5-3.3z"/><path fill="#381002" d="M1615 502.9c-1.8-2.2-4-4.9-3.1-7.7.8-2.4 4-3.4 6.4-2.7 2.5.7 4.3 2.7 5.9 4.8 10.6 14.1 11.1 33.1 13 50.6.7 7 2 14.5 7.1 19.3 4.5 4.3 11.7 5.5 17.4 2.9s9.4-8.9 9.1-15.1c1.4-.1 2.1 1.5 2.3 2.9 1.7 10.6-8.9 20-19.6 21.2-2.8.3-5.7.2-8.1-1.1-4.5-2.3-6.3-7.7-7.7-12.5-3.3-11.2-6.6-22.4-9.8-33.6-3.1-10.3-6.3-20.7-12.9-29z"/><ellipse transform="matrix(.9954 .096 -.096 .9954 47.936 -136)" cx="1437.4" cy="430.2" rx="5.8" ry="5.5"/><ellipse transform="rotate(5.51 1419.41 428.443) scale(1.00002)" cx="1419.4" cy="428.5" rx="5.8" ry="5.5"/><path fill="#381002" d="M1458.3 425.2c5.1-1.2 10.6-.6 15.2 1.9 8.7 4.7 13.4 15 22.2 19.6.5.3 1 .5 1.4.9.6.6.9 1.4 1 2.2.5 4.1-3.9 7.2-8 8.1-.9.2-1.7.3-2.6.3-3.4-.3-5.4-3.7-7.2-6.6-4.8-7.8-13.9-22.1-22-26.4z"/><path fill="#702E19" d="M1531.9 541.5c0 3.6-2.3 7.6-5.8 7.7 1 3.2-.3 6.8-2.4 9.4-2.1 2.6-5.1 4.4-8 6.1-2.8 1.6-5.7 3.1-8.9 3.1 1.7-7.2 1.5-14.9-.6-22-1-3.3-2.4-6.8-1.2-10.1 1.2-3.5 5.3-5.5 9-5.4s7.2 2 10.3 4.1c-1-2.1 0-4.7 1.7-6.2s4-2.2 6.2-2.8c3.2-.8 6.7-1.3 9.6.2 1-2.5 3.5-4.4 6.2-4.7s5.5 1.1 7 3.4c.4.6.7 1.3.4 1.9-.2.5-.6.8-1 1.1-5.8 4.3-12.5 7.5-19.5 9.5-.9.3-2 .6-2.6 1.3-.6.9-.4 2.2-.4 3.4zM1598.2 500.3c1.1 1.1 3 1 4.2.1 1.2-1 1.6-2.7 1.4-4.2 4.1-.8 9.2-1.2 11.5 2.2 1.5 2.1 1.3 4.9.7 7.3-.6 2.8-1.7 5.4-3.2 7.8-.3.4-.5.9-.5 1.3.1 1.3 2.3 1.4 2.7 2.7.9 4.2.8 8.8-1.1 12.7-1.9 3.9-5.9 6.9-10.3 6.9-5.1-6.2-10.4-12.9-10.9-20.9 0-.6 0-1.2.3-1.7 1.2-1.8 4.4.5 6.3-.6-2.5-4-2.9-9.3-1.1-13.6zM1496.1 449c-5.1-3.9-9.7-8.5-13.7-13.6-.5 2.5.6 5.1 1.8 7.4 1.2 2.3 2.5 4.6 4.7 6.1 2.1 1.4 5.2 1.8 7.2.1zM1474.4 557.5c-5-1.8-8.8-6.5-9.5-11.8l-2.1 1.2c-2 1.6-5.2-.2-6.2-2.6s-.7-5.1-1.2-7.7c-.3-1.2-.7-2.4-1.1-3.6-2.5-7.6-2.3-15.8-1.4-23.7.4-3.6 1.5-8 5-8.9.9-.3 1.9-.2 2.9-.1 3.5.2 7.5 1.2 9 4.3.7 1.5.7 3.2.6 4.9-.3 4.1-1.1 8.2-2.4 12.1 4 .8 8.2 2.5 10.4 6 2.2 3.5 1.3 9-2.5 10.5 2.9.5 3.4 4.3 3.3 7.2-.1 2.9-.2 5.7-.4 8.6-.1 1.3-.2 2.8-1.3 3.5-.8.7-2.1.5-3.1.1zM1558.5 497.3c2.7 2 5.6 3.7 8.7 5.1 4.1 1.9 9.3 3.2 12.9.4 2.4-1.9 3.2-5.2 2.8-8.2-.3-3-1.7-5.8-3-8.5-7.1-1.2-14.4.9-21.2 3.3-6.3 2.1-12.5 4.4-18.7 6.9 2.5 1.3 4.5 3.3 6.7 4.9s5 2.9 7.8 2.4c2.7-.8 5-3.8 4-6.3zM1428.3 460.1c-1.9-.3-4.2-.8-5.6.5-.4.4-.7.9-1.2 1.2-1.5 1.2-3.9.4-4.8-1.3-.9-1.7-.7-3.8 0-5.5.1-.3.2-.5.4-.7.3-.3.8-.3 1.2-.3 1.6 0 3.2-.1 4.8-.1.2-2.3 1.8-4.2 3.3-5.9 1.5-1.7 3.2-3.5 5.5-3.7 3.5-.3 6.1 4.2 4.8 7.5 1.8-4.6 7.7-7.1 12.3-5.1 1.7.8 3.3 2.4 3 4.2-.3 1.6-1.9 2.7-3.4 3.5-6.4 3.2-13.2 6.8-20.3 5.7z"/><path d="M1362.2 429.6c.4-1.3.8-2.6.6-3.9-.2-1.3-1.2-2.6-2.5-2.7-1.4 2.2-.5 5.5 1.9 6.6z"/></g></svg>