<svg xmlns="http://www.w3.org/2000/svg" viewBox="0 0 502.9 550.9"><path fill="#FF7110" d="M247.2 199c-.4-11.1-.9-22.5-5.5-32.5-3.5-7.4-9.2-13.5-11.9-21.3-3.7-10.1-1.8-21.4-1.8-32.2 0-2.5-.1-5.1-1.4-7.2-1.1-1.8-2.8-2.9-4.5-3.9-21.3-12.7-47.5-16-71.1-8.9-1.6.5-3.3 1.1-4.6 2.2-1.8 1.6-2.6 4.1-3.2 6.5-1.7 6.1-3 12.4-3.9 18.7-4.2.5-8.4 2.4-10.5 6.2-1.1 1.9-1.6 4.2-1.8 6.5-.9 9.4 3.5 19.1 10.7 24.5.3 4.7.8 9.3 1.5 13.9 2.9 19.4 10.8 40.2 27.7 48.5 10.8 5.3 23.4 4.5 35.2 2.5 12-2 23.8-4.9 35.4-8.8 3.1-1.1 6.4-2.4 8.2-5.2 1.6-2.6 1.6-6.2 1.5-9.5z"/><path d="M216.7 178.1s-.9.1-2.7.2c-1.8.1-4.5.2-7.9-.1-3.4-.3-7.6-1-12.4-2.1-4.7-1.1-10-2.7-15.7-4.1-2.9-.7-5.8-1.3-8.9-1.7-.5-.1-.4 0-.5-.1h-.4l-.1.3c-.2 1-.4 2.1-.7 3.2-.6 3.2-.9 6.6-.7 9.9 0 .8.2 1.6.3 2.5.1.8.4 1.6.5 2.4l.4 1.2.2.6.3.6.5 1.1.6 1.1c.9 1.4 1.9 2.8 3.2 4 .6.6 1.3 1.2 2 1.7.8.5 1.5 1.1 2.3 1.5 3.2 1.9 7 3.2 11 4 4 .8 8.3 1.2 12.6 1.2 4.4 0 8.8-.4 13.3-1 0 0-1 .4-3 1s-4.9 1.5-8.8 2.2c-3.8.7-8.6 1.2-14 .8-2.7-.2-5.7-.6-8.7-1.5-3-.9-6.1-2.2-9.1-4.2-2.9-2-5.6-4.9-7.4-8.3-1.8-3.5-2.8-7.4-3-11.4-.2-4 .2-7.9 1.1-11.8l.3-1.4.1-.4v-.2s0-.1.1-.2l.4-1.2.7-2.5.4-1.2.2-.6.1-.3v-.2-.1h.1c1.8.2 3.5.5 5.3.7l.7.1.4.1.7.1 1.5.3c7.9 1.7 15.2 4.9 22.4 7.6 7.3 3 14.6 5.3 22.3 6.2zM199.8 129.4s.3.3.9 1.1c.6.7 1.4 1.8 2.4 3.3 1.9 3 4.4 7.4 6.4 13.5 1 3 1.9 6.4 2 10.5 0 2-.1 4.3-1.3 6.9-.2.3-.4.6-.6 1-.2.3-.5.6-.7.9-.3.3-.7.7-1 .9-.4.2-.8.5-1.2.7-1.6.7-2.9.8-4.2.8-2.5 0-4.7-.6-6.8-1.3-2.1-.7-4.2-1.6-6.2-2.6-4-2-7.9-4.5-11.5-7.5 0 0 2.2.7 5.9 1.7 1.9.5 4.1 1.1 6.7 1.7 2.5.6 5.4 1.2 8.3 1.5 1.4.2 3 .2 4.1 0 .6-.1.9-.3 1-.4 0-.1.1-.1.1-.2.1-.2.2-.3.3-.6.4-.9.5-2.5.5-4.1 0-1.6-.2-3.4-.4-5.2-.5-3.6-1.2-7.4-2-11.2-.9-3.7-1.6-7.6-2.7-11.4z"/><circle cx="174.8" cy="128.6" r="8.4"/><circle cx="218.9" cy="134.5" r="6.5"/><path d="M240.5 94.5c-27.7-11.8-57.3-19-87.2-21.4-3.3-.3-6.9-.3-9.4 1.9-1.5 1.4-2.3 3.4-2.9 5.4-.1.3-.2.7-.3 1-1.9 1.4-3.6 3.1-5.1 4.9-9.4 11.3-13.3 26.4-14.5 41.1-.5 6.3-.6 12.8 2.1 18.5 3.8 7.9 12 12.5 19.7 16.5-5.4-4.4-17-25-6.4-37.9.1-.6 2-1.8 2.1-2.4 6.5-1.2 12.8 3.5 16.3 9.1-.3-8.6-1.7-17.2-3.9-25.5 21.1-1.4 44-2.3 61.3 9.8l-2.4-11.7c7.7.9 11.5 10 11.6 17.7 3.3-3.4 6.7-6.8 10-10.2 4.9-4.6 9.9-10.3 9-16.8z"/><path fill="#6ABA1E" d="M122.1 194.4c-3.5-.8-6.6 2.1-8.9 4.8-20 23.7-31.8 53.8-36.1 84.6-4.3 30.8-1.4 62.2 5.5 92.5 34.7-1.7 69.3-5.9 103.4-12.7-15.3-15.1-23.5-37.1-21.7-58.5 1.8-21.4 13.4-41.8 31-54.1-26.8-10.5-50.4-28.7-67.5-51.8-1.5-2-3.2-4.2-5.7-4.8z"/><path fill="#6ABA1E" d="M262.6 189.6c.6 18.7.2 37.5-1.1 56.2-4-2.4-7.6-5.5-10.5-9.2 0 4.4-.1 8.8-.1 13.2-3.4 0-6.7-2.1-8.1-5.1-1.6 1-2.6 3-2.3 4.9-26-4.1-52.5-4.9-78.7-2.4-.7 8.6-.5 17.2.7 25.7 18.6 2.1 37.3-1.6 55.6-5.3 19.3-3.9 38.7-7.8 58-11.7 3.4-.7 7-1.5 9.2-4.2 1.8-2.3 2.2-5.4 2.5-8.3 1.6-15.7 3.2-31.3 4.8-47-9.6-3.4-19.7-5.7-30-6.8zM36.3 207.3c3.7.5 7 3.2 8.3 6.7 0-3.1.1-6.2.1-9.2 3.8-.5 5.1 4.8 7.4 7.8 2.7 3.6 7.8 4.4 12.3 4.8 17.6 1.8 35.2 3.6 52.7 5.4 1.7-9.7 3.4-19.5 5.1-29.2-35.9-8.1-72.7-11.9-109.5-11.5-6.8 34.9-9 70.8-6.6 106.3 9.5-1 19-1.9 28.6-2.9.5-26.1 1-52.1 1.6-78.2z"/><path fill="#FF7110" d="M289.1 144.8c7.6 4.5 13.6 11.5 17.1 19.6 1.9 4.5 3 9.5 2.2 14.3s-3.9 9.4-8.4 11.2c-6 2.4-12.8-.3-18.6-3.3-8.8-4.5-18.6-11.6-18.1-21.5.2-3.7 1.8-7.2 3.1-10.6 7.4-18.9 7-40.7-1.1-59.3 8.1-1.9 15.3 6.4 16.8 14.6s-.8 16.6-.1 24.9c.2 2.1.6 4.3 1.8 6 1.3 1.9 3.4 3 5.3 4.1zM49.2 328.7c-8.7 6.3-20.3 6.5-31.1 6.4-3.5 0-7-.1-10.5-.1-1.4 0-2.9 0-4.2-.6-5-2.1-4.1-10.1.2-13.3s10.1-3.3 15.5-3.8C12 315 7.6 306.6 9.7 299.4c8.9-3.4 17.9-6.9 26.8-10.3 3.1-1.2 6.4-2.4 9.7-1.9 3.6.6 6.6 3.2 8.7 6.2 7.8 10.8 5 27.6-5.7 35.3z"/><circle fill="#B55412" cx="278.2" cy="46.8" r="46.8"/><path d="M283.3 5.4s.4.5 1.1 1.4c.7.9 1.7 2.3 2.9 4.2 2.4 3.7 5.6 9.2 8.4 16.6 1.4 3.7 2.5 7.9 3.3 12.6.6 4.7.9 9.8.2 15.1-.8 5.3-2.5 10.7-5.1 15.7-2.7 5-6.4 9.5-10.7 13.5l.9-1.8c.3-.6.7-1.3 1.1-2.1.2-.4.5-.9.7-1.3.2-.5.5-1 .7-1.6.5-1.1 1-2.3 1.6-3.6.5-1.3 1-2.8 1.6-4.3.5-1.5.9-3.2 1.4-4.9.2-.9.3-1.8.5-2.7.2-.9.4-1.8.5-2.8 1-7.6.7-16.5-1.3-25.6-.4-2.3-1.1-4.6-1.6-7-.3-1.2-.6-2.3-1-3.5l-.5-1.8-.5-1.8-1-3.6-1.1-3.5c-.6-2.5-1.4-4.8-2.1-7.2z"/><path d="M256.1 12s.7.2 1.9.5c.6.1 1.4.4 2.3.7.9.3 1.9.7 3 1.2 2.2 1 4.9 2.4 7.7 4.7 2.8 2.2 5.7 5.2 8 9.2 1.2 1.9 2.2 4.1 3.1 6.5.8 2.4 1.5 4.9 1.9 7.5.2 1.3.3 2.7.4 4 .1 1.4 0 2.8 0 4.2 0 .7-.1 1.4-.2 2.2-.1.7-.1 1.5-.3 2.2-.4 1.5-.6 3-1.2 4.4-1 3-2.6 5.8-4.5 8.3-1.9 2.5-4.3 4.6-6.9 6.5-5.1 3.7-10.8 6.4-16.6 9l6.6-5.5c2.1-1.7 4.5-3.8 7-6.4 2.5-2.5 5-5.6 6.8-9.2.5-.9.8-1.9 1.2-2.8l.9-3c.1-.5.2-1.1.3-1.6.1-.5.2-1.1.2-1.6.1-1.1.2-2.2.2-3.4 0-1.2 0-2.3-.1-3.5-.1-1.2-.1-2.4-.4-3.6-.3-2.4-.9-4.8-1.6-7.1-.8-2.3-1.7-4.7-3-6.8-1.2-2.2-2.7-4.3-4.4-6.3-1.7-2-3.6-3.8-5.6-5.5-2.1-1.8-4.3-3.4-6.7-4.8z"/><path d="M230.3 51s2.6-.8 7.3-2c2.3-.6 5.2-1.3 8.6-2 3.3-.7 7.2-1.6 11.4-2.1 8.5-1.2 18.6-2.6 29.9-2.6 2.8-.1 5.7-.1 8.6-.1 1.5 0 3 0 4.4.1l4.5.3c6.1.4 12.4 1.1 18.8 2 0 0-3.2.5-8.5 1.1-2.7.3-5.9.7-9.6 1-1.8.2-3.8.3-5.9.5-2.1.2-4.2.5-6.4.7-4.5.5-9.3.9-14.3 1.2-.6 0-1.3.1-1.9.1-.6.1-1.3.1-1.9.2l-3.9.3c-2.6.2-5.3.4-8 .6-2.7.2-5.4.3-8.2.4-2.7.1-5.5.3-8.3.4-5.6.1-11.1.1-16.6-.1z"/><path d="M306.7 15.8l.8.8c.5.6 1.3 1.4 2 2.6 1.6 2.3 3.5 6.1 4.8 10.9 1.4 4.8 2.2 10.6 2.4 17 .1 3.2 0 6.5-.2 9.9-.2 3.4-.5 7-.8 10.7 0 0-.2-.4-.5-1.2-.3-.8-.8-1.9-1.3-3.4-1-3-2.1-7.3-3-12.3-.9-5.1-1.5-10.8-2.1-16.8-.3-2.9-.6-6-.8-9-.3-3.1-.7-6.1-1.3-9.2z"/><path fill="#6B3109" d="M182 375.7c3.6 1.6 6.2 4.7 8.8 7.8 11.1 13.4 22.1 26.8 33.2 40.3 2 2.5 4.2 5.4 3.8 8.5-.2 2.1-1.6 3.9-2.8 5.6-19.1 25.4-38.1 50.7-57.2 76.1-7.8-6.5-15.7-13-23.5-19.4-1-.8-2-1.6-2.4-2.8-.9-2.5 1.2-4.9 3.1-6.8 12-11.9 22.3-25.7 30.2-40.6 1.2-2.2 2.3-4.6 2-7.1-.4-2.8-2.6-5-4.6-7-12.1-11.4-24.1-22.9-36.2-34.3l-9.3 66.6c-.4 2.6-.8 5.3-2.4 7.3-1.5 1.9-3.8 2.9-6 3.9-21.1 9-42.3 18-63.4 27-5.3-8.7-9.7-17.9-13.1-27.4 17.6-8.2 35.1-16.4 52.7-24.6-3.9-20.9-9.4-41.5-16.5-61.6 30-4 60-8 89.9-12 4.5-.8 9.4-1.4 13.7.5z"/><path fill="#0F7DBA" d="M148.7 514.6c-4 1.1-8.7-.5-11.2-3.8s-2.7-8.3-.4-11.8c-4.7 3.3-9.4 6.6-14.1 10-.5.4-1 .7-1.3 1.3-1.1 1.8.8 3.9 2.5 5.3 9.7 7.8 17.6 17.8 22.8 29.1.9 1.9 1.7 3.9 3.5 4.9 1.5.9 3.4.9 5.1.9 16.6 0 33.1-.1 49.7-.1 1.9-8.5 3.2-19.1-3.6-24.5-4.2-3.3-10.1-3.3-15.5-3.2-7.2.2-15.3.8-20 6.2-2.1 2.4-4.7 6-7.6 4.6-2.5-7-2-15 1.4-21.7-3.8-1.5-7.5 1.7-11.3 2.8zM10.6 487.7c3.9 17.9 8.7 35.8 9.4 54.1 18.7.6 37.3 1.2 56 1.8.3-6.5.5-13.1-1.6-19.2s-7.1-11.7-13.5-12.6c-9.4-1.3-17 7.2-25.7 11-3.8-9 1.6-20.7 10.9-23.6-6.6 3.2-11-3.5-12.2-10.8-1.2-7.3 1.2-12.6 8.5-11.7-9.7-1.2-19.6.1-28.6 4-1.1.5-2.2 1-2.8 1.9-1.1 1.5-.8 3.4-.4 5.1z"/><g><path fill="#FF7110" d="M382.3 184.9c-13.9.4-27.7.8-41.6 1.1 2.1 15.6-12.6 28.7-14.5 44.3-1.7 13.7 6.7 26.5 14.7 37.8 5 7 11.2 14.7 19.8 14.8 9.4.1 16.1-9.1 24.7-13 6-2.7 13.3-3.1 18-7.7 4.8-4.8 5-12.3 5-19.1-.1-8.2-.1-16.4-.2-24.5-.1-6.3-.1-12.6-2-18.6-1.9-6-5.9-11.6-11.8-13.8-3.9-1.6-8.1-1.5-12.1-1.3z"/><path d="M425.5 239.3c-.3 2.1-.6 4.4.6 6.3.9 1.5 2.7 2.3 4.3 3 13.4 5.1 29.6 1.8 40-8.2s14.4-25.9 10-39.6c4.9-2.3 10.5 1.6 13.8 5.8 16 20.5 8.4 52.9-11.6 69.4s-48.4 19.6-74 14.7c-13.8-2.6-28.6-8.4-34.8-21.1-3-6.2-3.6-13.2-4.1-20.1-1.5-18.8-2.3-39.7 9.4-54.4-10.3 4.2-21.8 6.4-32.7 3.9-10.9-2.5-20.9-10.2-24-21-3-10.7 2.7-23.8 13.3-27.1-5.6 9.7 1.2 24.2 12.3 26 6.2 1 12.5-1.4 18.5-3.3 15.8-5.1 32.4-7.4 49-6.6 6.6.3 14.4 1.8 17.1 7.8 1.6 3.4 1.1 7.3.5 11-2.5 17.9-5 35.7-7.6 53.5z"/><path fill="#A50818" d="M324.1 241.1s.6.1 1.6.1 2.5 0 4.4-.2c3.8-.2 9.3-.8 16.2-.8 1.7 0 3.5 0 5.5.2l3 .3c1.1.2 2.1.4 3.4.8.4.2.7.2 1.1.5l.6.4c.2.1.4.3.6.5.4.4.6.6.8.9l.6.7c.4.5.8 1.1 1.1 1.7.3.6.7 1.2.9 2 .5 1.4.7 3.1.4 4.7-.2 1.6-.9 3.1-1.7 4.3-.8 1.2-1.8 2.2-2.8 3.1-1 .9-2.1 1.6-3.2 2.3-2.2 1.3-4.5 2.3-6.9 3.1-2.4.8-4.9 1.3-7.4 1.7-2.5.3-5.1.5-7.7.3 0 0 .6-.1 1.7-.5s2.7-.9 4.6-1.8c1.9-.8 4.3-1.9 6.8-3.3s5.2-3.1 7.4-5.3c1.1-1.1 2-2.3 2.5-3.4.1-.3.2-.6.2-.8v-.4-.4c0-.5-.2-1-.4-1.6-.3-.6-.6-1.2-1.2-1.8l-.3-.4c0-.1 0 0 0 0l-.1-.1c-.1-.1-.3-.1-.4-.2-1.5-.5-3.6-.8-5.6-1.1-4.1-.6-8.5-1.1-12.9-1.8-2.2-.4-4.4-.8-6.6-1.3-2-.7-4.2-1.3-6.2-2.4z"/><path d="M338.8 233.1h-1.5c-1 0-2.5-.3-4.3-.7-1.8-.5-3.9-1.3-6.2-2.4-.6-.3-1.1-.6-1.7-.9l-.2-.1c-.1 0-.1-.1-.3-.2-.3-.2-.5-.3-.8-.5-.5-.4-1.1-.7-1.7-1.1-2.3-1.5-4.7-3.2-7.1-4.9 2.5-1.2 5.3-2.4 8-3.5.7-.3 1.4-.5 2.1-.8.4-.1.7-.2 1.1-.3.2-.1.3-.1.4-.1l.3-.1c.8-.2 1.7-.3 2.5-.4 3.5-.4 7-.3 10.9-.1 0 0-.5.3-1.4.9-.9.5-2.2 1.3-3.8 2.1-1.6.8-3.6 1.7-5.7 2.7-.3.1-.5.2-.8.4l-.4.2v.1c0 .1-.1.1 0 .2 0 .1.1.1.2.2.1 0 0 0 0 .1 0 0-.1 0 .2.2l.9.8c.6.5 1.3 1.1 1.9 1.6 2.3 2 4.7 4.3 7.4 6.6z"/><ellipse cx="355.7" cy="213.1" rx="7.5" ry="6.7"/><path fill="#20959E" d="M340 290c-8.5 3.2-12.9 12.3-16.1 20.8-5.4 14.4-9.8 30-6.7 45.1 1.8 8.7 6 16.6 10.2 24.5 2.6 4.8 5.1 9.6 7.7 14.4 3 5.5 6.8 11.7 13 12.6 9.5 1.3 20-3.9 25.6-11.4-2-21.6-3.8-44.4 5.3-64.1 3-6.5 7.1-12.5 9-19.4 1.9-6.9.9-15.3-4.8-19.6-3.5-2.6-8.1-3.2-12.4-3.6-6.8-.6-13.6-.9-20.5-.7-3.5 0-7 .2-10.3 1.4z"/><path fill="#0A3135" d="M368.3 406.1c2.7-2.3 5.4-5.4 8.9-5.5 3.8 14 4 28.8 4.2 43.3.2 24.3.5 57.7.7 82-8.3 0-16.6-.1-24.8-.1-4.2-26.1-5.5-61.6-3.9-88-2.2-1-4.1 2-4.8 4.3-7.8 26.5-15.6 53.1-23.4 79.6-8.3.7-16.7.1-24.9-1.6-1.7-.4-3.6-.9-4.6-2.3-1-1.4-.8-3.3-.6-5.1 3.8-24.5 22.6-43.8 31.6-66.8 3.7-9.4 5.8-19.5 6-29.7.1-3.3.7-7.5 3.9-8.3 1.9-.5 3.8.6 5.6 1.5 8.4 3.9 19 2.6 26.1-3.3z"/><path fill="#FF7110" d="M318.5 316.3c4.2-6.8 5.3-15.7 11.3-21-8 5.6-15.9 11.1-23.9 16.7-6.3 4.4-13.3 9-20.9 8.2-3.5-.3-6.8-1.8-10-3-9.2-3.4-19-4.8-28.7-6.2 1.5-6.5-4.2-13.6-10.8-13.6s-12.4 7-11 13.5c4.8 1.3 10 1.3 14.7-.2 0 6.2-.1 12.5-.1 18.7 0 .7 0 1.5.5 2s1.2.7 1.9.8c11.2 1.7 22.5 3.3 33.7 5 4.7.7 9.4 1.4 14 .4 5.2-1.1 9.7-4.2 14-7.2 5.7-4 11.6-8.2 15.3-14.1z"/><path fill="#FF7110" d="M257.3 348.7c-1.1 3.7 1.7 7.7 5.2 9.4 3.5 1.6 7.6 1.5 11.5 1.3v6.3c-4.6 4.6-11.4 5.6-17.5 7.9-6 2.3-12.3 7.3-11.6 13.7 15.4 3.5 31.3-.9 46.5-5.3 18.6-5.3 37.2-10.7 55.7-16 3.7-1.1 7.4-2.1 10.6-4.4 8.5-6 9.7-18 15.1-26.9 4.7-7.6 12.6-12.9 17-20.7s2.7-20.5-6.1-22.1c-9.9 15.6-19.8 31.2-29.8 46.8-2.4 3.8-4.9 7.7-8.5 10.5-3.1 2.4-6.8 3.9-10.5 5.2-14.7 5.1-30.1 8.2-45.6 9.2 1-6.5-6.1-11.5-12.6-12.5s-13.3.1-19.4-2.4z"/><path fill="#17B1C6" d="M235.1 277.8c-.6 0 2 47.3 2 51.6 0 4.3 17 18.4 17 23.3v17.1h-53v-17.1c0-4.1 15.7-17.9 15.7-23.3s-.8-51.6-.8-51.6l-3.9-1.5v-2.5h27v2.5l-4 1.5z"/><path fill="#FF7110" d="M226.5 319.4c-.8-2.8-2.8-5.3-4.9-7.7-3-3.4-7-7.1-11.9-7.2-2.9 6.9-4.2 14.3-3.9 21.8.1 1.2.2 2.4.5 3.6.9 2.7 3.2 5.1 6.2 6.6 1.3.6 2.8 1.1 4.1.7.8-.2 1.4-.8 1.9-1.3 4.8-4.6 9.9-10.1 8-16.5z"/><path fill="none" stroke="#FFF" stroke-width="2" stroke-miterlimit="10" d="M231.1 281.8v61"/><path d="M380.2 527c-5.4.1-10.7.3-16.1.6-2.7.2-5.5.5-7.5 2.2-1.2 1-2 2.5-3 3.7-3.4 4.3-9.1 5.9-14.4 7.3-5 1.3-10 2.6-15.1 4-1 3.2 3.5 5.2 6.9 5.5 16.4 1.4 33.1 0 49-4.4.8-.2 1.6-.5 2.2-1.1.9-.9.9-2.3.9-3.5-.1-3.9-.2-7.7-.2-11.6 0-.8-.1-1.8-.7-2.3-.5-.3-1.3-.4-2-.4zM318.6 525.7c-5.3-.7-10.7-1.2-16-1.5-2.7-.2-5.5-.3-7.8 1.2-1.3.9-2.3 2.2-3.5 3.3-4 3.8-9.8 4.6-15.2 5.3-5.2.6-10.3 1.3-15.5 1.9-1.4 3.1 2.8 5.7 6.1 6.4 16.1 3.6 32.8 4.4 49.2 2.3.8-.1 1.7-.2 2.4-.8 1-.8 1.2-2.1 1.3-3.4.4-3.8.9-7.7 1.3-11.5.1-.8.2-1.8-.4-2.4-.5-.6-1.2-.7-1.9-.8z"/></g></svg>