<svg xmlns="http://www.w3.org/2000/svg" viewBox="0 0 406 593.7"><path fill="#FF7110" d="M64.5 555.5c-.1 1.2-.2 2.4.3 3.5.7 1.6 2.2 2.5 3.7 3.4C79.7 569 90 577 99.3 586.1c-20.3-5.5-40.4-12.1-60-19.6 6.5-35 7.4-70.3 7.2-105.9 6.6-.6 13.3.3 19.5 2.4-.4 30.6.6 61.9-1.5 92.5z"/><path fill="#FF7110" d="M113.6 538.8c0 1.2 0 2.4.5 3.5.7 1.5 2.4 2.4 3.9 3.2 11.5 6 22.3 13.4 32 22-20.6-4.4-41-9.9-61-16.4 4.5-35.3 6.7-70.9 6.5-106.6 6.6-.6 13.3.3 19.5 2.4-.4 30.7-.9 61.3-1.4 91.9z"/><path fill="#0F7DBA" d="M49 303.5c-15.4 25-28.6 55-19.3 82.8 3.1 9.3 7.6 18.2 10.6 27.6 6.9 21.6 5.4 44.9 3.8 67.5 22 1 52.2 5.9 74 2.9 1.1-16.6 2.2-33.4-.4-49.8-1.4-9.2-4.9-31.9-6.8-41-5.8-28.8-3.1-50.7-2-80"/><path fill="#050505" d="M84.7 553.2c-.1-5.6 1-11.7 5.3-15.7.5-.5 1.3-1 2-.7.3.1.5.3.7.5 1.4 1.6 1.2 3.9 1.9 5.8 2.1 5.6 10.6 6.1 17 5.3 9.1-1.2 19-2.9 26.8 1.5 4 2.2 6.8 5.7 9.6 9.1 4.2 5.2 8.3 10.3 12.5 15.5-19.8-.8-39.5-4.4-58.1-10.7 1-2.9.6-6.1-1.1-8.7l-3.9 10.2c-3.1 2-7.7.6-10-2.2-2.1-2.8-2.6-6.5-2.7-9.9zM36.7 569.2c-.1-5.6 1-11.7 5.3-15.7.5-.5 1.3-1 2-.7.3.1.5.3.7.5 1.4 1.6 1.2 3.9 1.9 5.8 2.1 5.6 10.6 6.1 17 5.3 9.1-1.2 18.6-1.2 26.1 3.6 3.9 2.4 6.5 6.1 9.1 9.6 3.9 5.4 7.8 10.8 11.7 16.1-19.7-1.9-37.4-7.7-56-14 1-2.9.6-6.1-1.1-8.7l-3.9 10.2c-3.1 2-7.7.6-10-2.2-2.2-2.7-2.7-6.4-2.8-9.8z"/><path fill="#0F7DBA" d="M107.2 303.9c-1.5.6-3.3.3-4.9.1-15-2.4-29.9-4.7-44.9-7.1-1.9-.3-3.9-.7-5.1-2.1-.7-.9-1-2-1.2-3.1-4.6-24.2-9.2-48.4-13.9-72.6-.9-4.7-1.6-10.3 2.1-13.8 2.4-2.2 5.9-3 9.3-3.6 28.5-4.9 57.9-5.8 86.7-2.4 3.5 16.9 12.2 24.1 13 37.3.3 5.2 0 10.5-2 15.5-1.8 4.5-4.8 8.5-7.9 12.4-9.3 12.1-18.7 24.2-28 36.4-.8 1.2-1.7 2.5-3.2 3z"/><path d="M135 56.4c11.6-1 21.5 8.8 26.6 19.2 4.5 9.2 6.7 19.7 5.1 29.9-2.5 16.3-14.3 30.5-14.2 47-.3-11.5-1.3-23-3.1-34.4-.6-3.5-1.2-7-2.6-10.3-3.5-8.1-11-13.5-17-20s1.3-23.5 5.2-31.4z"/><path fill="#FF7110" d="M140.3 96.7c16 14.6 20.5 40.3 10.4 59.5-1.8 3.5-4 6.7-6.3 9.9l-12.6 18.3c-1.4 2-2.8 4.1-4.8 5.7-6.6 5.2-16.1 2.7-24.1-.1-10.4-3.6-21.5-7.8-27.8-16.7-2.5-3.6-4.1-7.7-5.2-12-4.3-16.8-.3-35.6 10.6-49.2s28.4-21.5 45.8-20.9c2.5.1 5 .3 7.3 1.2 2.6.8 4.7 2.5 6.7 4.3z"/><path d="M53.3 369.9l-3.9.3c0-.5 0-1.1-.1-1.6-15.2 2.9-32.2 7-47.5 9.8-2.9.5-2 2.9.4 2.9 15.8-1.5 26.7-2.4 42.4-4.6-.1.4-.2.8-.5 1.1-.5.6-1.2.9-1.9 1.1-3.9 1.3-8.2 0-12.3.1-3 .1-6 1-8.9 1.9-.9.3-2 .9-1.6 1.8 2 .3 3.8-1.1 5.7-2 6.1-2.7 13.9 1.8 19.7-1.5 1.1-.6 2.1-1.7 2.1-2.9.3 0 .6-.1.9-.1.4-.9.8-1.8 1.1-2.7 1.3-.3 2.6-.4 3.9-.3.4-1 .5-2.2.5-3.3z"/><path fill="#FF7110" d="M27.1 223.8c-1.1 9.3-2.1 18.6-3.2 27.9-2.2 19.5-4.4 39-6.4 58.5-1.3 12.6-2.4 25.5.5 37.9 2.8 12 9.3 24 6.3 35.9 4.7 2.1 10.5.9 14.1-2.8 7.8-8.2 1.6-21.3-2.4-31.9-10-26.6-3.2-56.2 3.8-83.8 3.9-15.6 7.9-31.3 11.8-46.9 1.3-5.3 2.5-11.5-1-15.6-4.3-5.1-13.2-3.3-17.5 1.8-4.3 5.3-5.2 12.3-6 19z"/><path d="M141.1 68.5c.5-9.6-6-19.2-15.1-22.4-4.3-1.5-9-1.7-13.6-1.3C87.8 47.1 67.1 66.6 58 89.5s-23.4 49.8-18.7 74c2.7 13.8 6.6 28 3.7 41.8-1.6 7.8-5.4 15.1-6.9 23-4.9 25.8 16 50.5 40.2 60.8 1.6.7 3.5 1.4 5.2.9 2-.5 3.4-2.4 4.5-4.2 15.5-24.5 20.9-55.2 14.7-83.6-3.2-14.9-9.5-28.9-13.2-43.7-3.7-14.8 10.3-32 17.3-45.6 2.6-5 6.5-9.7 11.9-11.5 3.1-1 6.4-1 9.7-1.6 11.5-2.1 20.7-13.1 20.9-24.8.2-11.7-8.8-22.9-20.2-25.3"/><path d="M127.2 139.4s-.2-.2-.5-.7c-.4-.4-.8-1.1-1.4-1.9-1.3-1.6-3.3-3.4-5.9-5-.6-.4-1.4-.7-2.1-1.2-.3-.2-.8-.3-1.2-.5l-1.2-.6c-1.7-.7-3.6-1.4-5.7-2.2-4.1-1.5-9.1-3.2-14-6.2 0 0 1.4-.2 3.7-.4 2.3-.2 5.6-.3 9.5.1 1 .1 2 .3 3.1.5.5.1 1.1.2 1.6.4s1.1.3 1.6.5c1.1.3 2.2.9 3.3 1.3 1.1.6 2.2 1.2 3.2 2 .5.4 1 .8 1.5 1.3s.9 1 1.4 1.5c.4.5.8 1.1 1.2 1.6l.5.8c.2.3.3.6.4.9.3.6.5 1.2.7 1.8.1.6.3 1.3.4 1.9.1.6.1 1.3.1 1.9-.1 1-.1 1.6-.2 2.2zM140.2 138.5s-.1-.2-.1-.6c-.1-.4-.2-1.1-.2-1.8-.1-1.6.4-4 1.9-6.5 1.4-2.5 3.8-4.8 6.8-6.5 3-1.7 6.5-2.8 10.6-3.4 0 0-.1.2-.4.6-.2.4-.6 1-1.1 1.7-1 1.4-2.5 3.2-4.3 5.1-1.8 1.9-4 3.7-6.2 5.5-2.3 1.7-4.5 3.4-7 5.9z"/><circle cx="114" cy="131.5" r="7"/><circle cx="147.6" cy="132.1" r="5.6"/><path fill="#C10610" d="M119.1 173.5c-3.4-.6-6.3-2.1-8.7-4s-4.2-4-6.1-6.1c-.4-.4-.8-.9-.9-1.4 10.6 3 22.2 4.2 33.5 3.4 0 1.7-1.3 3.2-2.9 4.4-3.7 2.9-9.5 4.6-14.9 3.7z"/><path d="M123.8 158.6c4.7.9 9.6.7 14.1-.7 1.2-.4 2.4-.8 3.2-1.7-2.3-.1-4.5-.1-6.8.1-1.6.2-3.2.5-4.7.9-1.8.5-3.8 1-5.8 1.4z"/><ellipse fill="#FF6112" cx="100.4" cy="143.3" rx="7.9" ry="7.6"/><path fill="#FF6112" d="M155.7 140.1c-.8-.2-1.6-.4-2.4-.4-4.3 0-7.9 3.4-7.9 7.6 0 3.6 2.6 6.6 6 7.4 2.3-4.6 3.7-9.5 4.3-14.6z"/><path fill="#2F4F0E" d="M123.2 211.5l1.1 80.7-69.4 10.7 1.9-85.4"/><path fill="#2F4F0E" d="M124.4 292.3l2.6-3.7-4.8-8.1-7.4.9"/><path fill="#E1EAD6" d="M126 287.2l-2 3.3-67 10.2 1.6-82.8 2.7-3.3 48.1.3"/><path fill="#2F4F0E" d="M126.5 207.7l1.1 80.8-69.4 10.6 1.9-85.3"/><path fill="#FF7110" d="M149.2 287.4c4.7 4.8 11.9 9.2 17.6 6-1.6-22.7-16.7-41.8-31-59.3-3.1-3.7-6.3-7.6-10.8-9.1-3.9-1.3-8.1-.7-12.1-.1-5.5.9-12.5 3.6-12 9.3.3 4 4.5 6.6 8.4 7.3 3.9.7 8 .5 11.6 2.2 6.2 3 8.5 10.6 11.1 17.1 3.9 9.9 9.8 19.1 17.2 26.6z"/><g><path fill="#FF7110" d="M254.8 191.5c-7.9.6-16.4 1-23-3.3-5-3.3-8.1-8.8-10.5-14.3-3.7-8.7-6.1-18-7.1-27.5 16.3-3.5 33-5 49.6-4.6 0 12.3.1 24.6.1 36.9 0 4.5-.5 9.8-4.5 11.9-1.3.6-3 .7-4.6.9zM280.1 104c-1.3-21.5-2.5-43.1-6.4-64.4-2.3-12.9-7.2-27.4-20.6-32.4-10.3-3.8-22-.5-32.2 3.4-4.7 1.8-9.5 3.8-13.5 6.8-11.7 8.6-14.7 23.6-14.8 37.3 0 1.9 0 3.7.1 5.6-1.3 0-2.6 0-3.9.1-1.1.1-2.4.3-3.1 1.2-.7.9-.6 2.2-.5 3.3.6 5 1.2 9.9 1.8 14.9.5 4.1 1.1 8.4 3.8 11.5 1.8 2.1 5.1 3.2 7.7 2.6 3.1 9.8 7.5 19.3 13.2 28.1 2.5 3.9 5.4 7.7 9.3 10.4 11.3 7.6 27.3 4 40.4-.7 5.8-2.1 11.9-4.6 15.4-9.3 3.9-5.2 3.7-12.1 3.3-18.4z"/><path d="M253.2 54.1s.9 1.4 2.5 4c1.6 2.5 4 6 6.5 10.8 1.2 2.4 2.5 5.1 3.3 8.3.2.8.4 1.6.6 2.5.1.9.3 1.7.4 2.7 0 .5 0 .9.1 1.4v.9l-.1 1.2c0 .8-.1 1.6-.1 2.4 0 .1 0 .2-.1.3l-.3.1-.6.3-1.1.5-1.1.5-1.2.4c-.5.2-1 .2-1.5.4-1 .2-2 .3-3 .3-2 .1-3.9-.1-5.9-.3-3.9-.6-7.5-1.7-11.5-2.7 0 0 2-.4 5.3-.8 1.7-.2 3.6-.4 5.9-.6 2.2-.3 4.6-.6 6.9-1.3.6-.2 1.1-.4 1.7-.6h.1v-.1c0-.1-.1-.1-.1-.1 0 .1-.1-.4-.1-.7 0-.3 0-.7-.1-1-.4-2.7-1.2-5.6-2.1-8.7-.9-3-2-6.2-2.9-9.6-.7-3.6-1.4-7.1-1.5-10.5zM218.3 55.1s12-8 26.3 0c0 0-14.1 7-26.3 0zM256.1 53.4s.4-.5 1.2-1.1c.8-.6 1.9-1.3 3.3-1.8s2.9-.7 4.5-.4c1.7.3 3.3 1.1 5.9 2.4 0 0-.3.5-1.1 1.3-.4.4-.9.8-1.5 1.2-.6.4-1.3.7-2.1 1-1.5.6-3.3.8-5.1.4-1.7-.3-3.4-1.3-5.1-3zM226.2 104.2s.2-.1.7-.3c.5-.2 1.2-.5 2.1-.7 1.8-.6 4.5-1 7.7-1.1 3.2-.1 6.8.1 10.5.4 1.9.1 3.8.3 5.8.3s4.2-.2 6.7-1.1c0 0-.1.3-.5.8-.2.2-.4.5-.6.9-.2.4-.6.7-1 1.1-.4.4-.8.8-1.4 1.2-.6.4-1.2.8-1.9 1.1-1.4.7-3 1.3-4.8 1.7-3.6.8-7.7.7-11.7-.1-2-.4-3.9-.9-5.9-1.6-1.8-.9-3.7-1.7-5.7-2.6z"/><path fill="none" stroke="#000" stroke-miterlimit="10" d="M240.6 61.7c-2.8 8.6-12.6 14.2-21.4 12.4M235 117.3c4-.4 7.9-1.6 11.4-3.5"/><ellipse cx="231.1" cy="59.9" rx="7.5" ry="6.1"/><ellipse cx="264.6" cy="57.7" rx="6" ry="4.9"/><path fill="#BC540D" d="M256.6 140.7c-.1 14.5-1.6 29.1-4.5 43.3-2.1-.7-3.4-2.6-4.7-4.3-8.3-12-16.7-24-25-36-.6-.9-1.3-1.9-1.9-2.8-6.4 0-12.7.1-19.1.1 1.7 51.6-1.5 103.3-9.6 154.3 17.3-.1 34.7-.3 52-.4 11.7-.1 23.7-.3 34.7-4.5.1-49.9.3-99.7.4-149.6-7.4-.1-14.8-.1-22.3-.1z"/><path fill="#6B3109" d="M184.7 472.5c12.9-57.7-1.3-118.7 10-176.7 29.3 3 58.8 3.7 88.2 2.1 1.4 40.9-7 81.5-8.9 122.4-1.6 33.7 1.2 68-6.1 101-10.4.8-20.7 1.6-31.1 2.4 2.1-62.4 4.1-124.8 6.2-187.2-9.9 64.1-19.8 128.2-29.8 192.4-13.1.9-26.2 1.1-39.3.8-.6-19.5 6.5-38.2 10.8-57.2z"/><path fill="#1C0D03" d="M264.5 528.5c1.6 0 3.3.1 4.8.8 1.5.7 2.5 2.1 3.6 3.3 4.9 4.8 12.2 6 19 6.8 13.1 1.7 26.5 3.4 39.2.2 3.6-.9 8.1-1.9 10.4 1.1 1.9 2.5.6 6.3-1.9 8.1s-5.7 2.2-8.8 2.6c-23.3 2.5-47.6 4.9-69.4-3.6v7.1c-7 .3-13.9.6-20.9.8.7-9.2.5-18.4-.5-27.6 8.1.1 16.3.3 24.5.4z"/><path fill="#1C0D03" d="M197.9 538.4c1.6.3 3.3.6 4.6 1.6 1.3 1 2.1 2.5 3.1 3.8 4.1 5.5 11.1 7.8 17.7 9.8 12.6 3.8 25.6 7.6 38.7 6.4 3.7-.3 8.3-.6 10.1 2.7 1.5 2.7-.4 6.3-3.2 7.7s-6 1.3-9.1 1.1c-23.4-1.2-47.8-2.7-67.9-14.6-.4 2.3-.8 4.7-1.1 7-6.9-.8-13.9-1.7-20.8-2.5 2.2-8.9 3.5-18.1 3.9-27.3 8 1.4 16 2.9 24 4.3z"/><path fill="#BC540D" d="M202.9 141.1c-9.9 2.3-17.3 10.8-21.9 19.9-4.5 9.1-6.9 19.2-11.2 28.5 8.8 3.1 17.7 6.1 26.5 9.2 3.4-4.1 6.8-8.1 10.2-12.2M272.6 174.3c.5-11.3 1-22.6 1.5-33.8 3.5-1.2 7.4.2 10.1 2.8s4.3 6 5.8 9.3c5.8 13 10.9 26.4 13 40.4-7.6 1.4-15.2 3.1-22.7 5.1-.2-3.7-3.6-6.3-5.6-9.5-2.5-4.2-2.3-9.5-2.1-14.3z"/><path fill="#FF7110" d="M174 192.6c.4 26.6-8.3 53.1-4.7 79.5 3.1 22.6 14.9 42.9 26.5 62.6 2.3-10.3 1.8-21.1-1.4-31.2-2.6-8-6.8-15.4-8.8-23.5-6.7-26.5 10.8-53.8 7.9-81-6.8-.5-13.6-2.7-19.5-6.4z"/><path fill="#2F4F0E" d="M406 271.5s-6.4 3-24 3-21-3-21-3v-60h45v60z"/><path fill="#2F4F0E" d="M347.8 217c-.4 15.3 0 30.5 1.1 45.7.1 1.8.5 4 2.1 4.9.8.5 1.8.5 2.7.5 3.3.1 6.6.1 9.9.2 1.3 0 2.6 0 3.7-.6s1.9-2 1.3-3.1c-2.4.4-4.8.7-7.2.3-2.4-.4-4.7-1.8-5.7-4-.6-1.5-.6-3.2-.5-4.9.3-10.2 0-20.4-1.1-30.5 4.6-.8 9.2-1 13.9-.8-.1-2.5-.2-5-.2-7.4-6.8-.2-13.4-.3-20-.3z"/><path fill="#FF7110" d="M338.8 228.7c-1.3 2-.9 3.7.2 5.3 1 1.5 4.8 1.6 5.2 3.5 1.9 7.4 6 24.4-3.2 22.7-21.6-.9-17.4 1.2-39 2.4-1.1.1-2.2.1-3.1-.6-.8-.6-1.2-1.7-1.4-2.7-4.7-17.3-9.5-34.6-14.2-51.9-.7-2.7-1.2-6.1 1-7.7.9-.7 2-.9 3.1-1 3.6-.6 7.3-1.2 10.9-1.9 5.4 15.1 9.2 30.8 11.5 46.7 13.2-1.3 1.2 2.3 13.4-2.9.9-.4 1.8-.8 2.4-1.5 1.9-1.9 1.2-5 1.2-7.7 0-5.5 3.7-10.7 8.8-12.6 5.1-1.9 11.4-.2 14.9 4 1 1.2 1.9 2.7 2 4.3.3 3.3-2.7 6.3-6 6.5s-6.3-1.9-7.7-4.9zM367.3 225c-.3-.9-1.2-1.6-2-2.2-1.2-1-2.5-2-3.7-3-.5-.4-1.1-.8-1.7-.9-2.1-.4-3.2 2.4-4 4.5-1.1 3.1-3.3 5.8-3.8 9.1-.6 3.2 1.7 7.3 4.9 6.8 3.4-2.8 6.4-6 8.9-9.6 1.1-1.5 2-3.2 1.4-4.7zM351.2 252.7c5.6-.2 11.2-2 16-5 1.1-.7 2-1.6 2.6-2.7 1.8-3.5-.3-6.9-2.7-8.2-1.4-.6-2.8-.6-4.8.1-1.8 1.9-4.6 3.5-7.3 4.8-4.2 1.8-6.8 7.6-3.8 11zM348.7 260c-2.4-2.6 1.6-6 6.1-6.7s9.3 0 13.9-.4c1.5 2.9-2 6-6.3 7-4.4 1-9.1.6-13.7.1z"/><path d="M214.5 45.1c-3.3-5.8-8-10.9-13.5-14.8l.9 40c-.9 1.1-2.8.3-3.6-.8-.9-1.1-1.4-2.6-2.7-3.3-2.2-1.3-5.2.9-5.6 3.4-.5 2.5.7 5 1.9 7.3l12 24.3c-5.8 1.4-11.9-2.1-15.4-6.9-3.5-4.8-4.9-10.8-6.2-16.7-2.8-12.4-5.6-24.9-4.7-37.6s6.1-25.6 16.4-32.9c12.4-8.8 29-7.9 44-5.9 8.5 1.1 17 2.5 25.5 4 1.5.3 3.1.6 4.3 1.6 1.1.9 1.7 2.2 2.2 3.5 4 11-2 24.6-12.9 29 .8-5.7 1.1-11.4.8-17.1-.1-2.8-1-6.3-3.8-6.7-2.8-.5-4.7 2.7-5.8 5.3l-6.9 16.8c.4-6.4-.7-12.8-3.1-18.7-2.1 6.9-5.4 13.4-9.9 19-.4.5-.9 1.1-1.6 1.2-1.1.2-1.9-.9-2.5-1.8-2.8-4.4-5.6-8.7-8.4-13.1.7 7.1.2 14.1-1.4 20.9z"/></g></svg>