<svg xmlns="http://www.w3.org/2000/svg" viewBox="0 0 153.6 228.6"><path fill="#BC540D" d="M72.9 119.6c3.4 17 5.2 34.4 5.3 51.8-13.4.4-26.9-1-40-4.2-.8-18-.4-36 1.3-53.9"/><path fill="#6ABA1E" d="M25.1 203.5c1.4-8.1 3.9-16 7.5-23.3 1.2-2.4 2.8-7.5 2.8-7.5s5.8 1.5 7.5 1.8c11.2 1.9 22.5 3.8 33.7 5.6.3 8.5 1 18.6 2.8 26.9-8 .4-14.8 2.8-22.8 3.2.5-5.5-.8-14.7-2.3-20-2.3 6.5-3.8 13.3-4.5 20.2-7.5.7-15.1-.2-22.3-2.7-.9-.3-2-.7-2.4-1.6-.3-.9-.1-1.8 0-2.6z"/><path fill="#BC540D" d="M68.8 222.1c-1.9 3.9-7.8 5-11 2.1.1-3.9.2-7.7.2-11.6 13 2.3 25.6-4.5 37.9-9.4 4.4-1.8 9.9-3.2 13.7-.2 1.7 1.4 2.7 3.4 3.1 5.6 1.1 5-.4 10.6-3.9 14.4-5.2 2-10.5 4-16 4.5s-11.5-.9-15.5-4.7c-2.1-2-5-4.8-7.2-2.9-.7.5-.9 1.4-1.3 2.2zM39 223.1c1.7 3.9 6.9 5 9.7 2.1-.1-3.9-.1-7.7-.2-11.6-11.5 2.3-22.6-4.5-33.4-9.4-3.9-1.8-8.8-3.2-12-.2-1.5 1.4-2.3 3.4-2.8 5.6-1 5 .3 10.6 3.4 14.4 4.6 2 9.2 4 14.1 4.5s10.1-.9 13.6-4.7c1.8-2 4.4-4.8 6.3-2.9.7.5.9 1.4 1.3 2.2zM44.9 126.6c-2.9 7.9-6.4 15.6-10.6 22.9-3.8-3.7-8.4-6.5-13.4-8.1 5.2-9 10.9-17.6 17-26 4.9 4.6 2.1 6.6 7 11.2zM70.9 122.4c.1-.7.2-1.4.6-1.9 1-1.3 3.1-.8 4.6-.1 7.5 3.4 15 6.9 22.5 10.3-1.7 4.8-3.4 9.7-5.1 14.5-7.8-4-15.9-7.4-24.2-10.1.5-4.2 1.1-8.4 1.6-12.7z"/><path fill="#FF7110" d="M118.9 78.4c0 24.9-20.3 42.3-45 45-45 5-72.2-26.2-71-51 2-41 23-66 71-63 24.8 1.5 45 44.1 45 69z"/><path d="M94.4 87.5s-2 1.5-5.5 4.3c-1.8 1.4-3.9 3-6.6 4.7-2.7 1.7-6 3.6-10.2 4.7-1.1.3-2.1.4-3.2.6-1.1.1-2.2.3-3.3.4-1.1.1-2.1.2-3.2.3-.5 0-1.1.1-1.6.2l-.8.1h-.5l.5.5c.7.7 1.6 1.3 2.5 1.8 3.8 2.2 8.8 3.5 14.2 4.3 2.7.4 5.4.7 8.3.9 2.8.2 5.8.2 8.7 0 0 0-.7.3-2 .7-1.3.4-3.2 1-5.7 1.5s-5.6.9-9.1 1.1c-3.5.1-7.6 0-12-1.1-2.2-.6-4.5-1.4-6.7-2.7-1.1-.7-2.2-1.4-3.2-2.5-.8-.7-1.4-1.7-2.1-2.6-.3-.5-.5-.9-.8-1.4-.1-.2-.3-.5-.4-.7l-.3-.7c-.4-1-.8-1.9-1.1-2.9l-.1-.4c.1-.1.2-.1.3-.1l.7-.3 1.4-.6c.5-.2.9-.4 1.5-.6l1.7-.4 1.7-.4.9-.2c.3-.1.5-.1.7-.1 2.7-.3 5.2-.3 7.5-.4.6 0 1.2 0 1.8-.1l1.7-.1c1.1-.2 2.2-.3 3.3-.6.6-.1 1.1-.3 1.7-.4l1.7-.5c1.1-.3 2.3-.8 3.4-1.2 4.7-1.4 9.4-3.6 14.2-5.1zM73.5 71.3s.3-.4 1.1-1.1c.7-.7 1.9-1.6 3.5-2.7s3.6-2.3 6.3-3.3c1.3-.5 2.8-1 4.5-1.2 1.7-.2 3.7-.3 6 .7 1.1.5 2.2 1.4 3 2.5.8 1.1 1.2 2.4 1.5 3.6.5 2.4.2 4.6-.3 6.8-.6 2.6-2 4.9-3.8 6.7-1.8 1.8-3.9 3.1-6.2 4.2-2.3 1-4.7 1.6-7.3 1.8-2.5.2-5.3 0-7.9-1.1-1.3-.5-2.6-1.4-3.5-2.6-1-1.1-1.5-2.6-1.7-4-.2-2.8.8-5.3 2.1-7.4 0 0-.1.6-.3 1.7-.1 1.1-.2 2.8.3 4.5.5 1.8 1.9 3.2 4.1 3.7 2.2.5 5.1.2 8-.8 2.9-1 5.8-2.7 7.8-4.9.5-.6.9-1.2 1.2-1.8.1-.3.3-.6.4-.9.1-.3.2-.6.3-1 .4-1.7.5-3.4.3-4.5-.1-.5-.3-.8-.6-1.1-.3-.3-.8-.6-1.5-.8-1.5-.4-3.4-.3-5.4-.1-3.8.6-8 1.6-11.9 3.1z"/><ellipse cx="57.4" cy="69.8" rx="7.2" ry="6.9"/><ellipse cx="84.4" cy="61.4" rx="6" ry="5.8"/><path fill="#FF7110" d="M110.8 118.1c3.6 1.7 8.8-1.1 11.4 1.9-.3 6.1-2.3 12.2-5.6 17.4-5.3.2-10.7-1.5-14.8-4.8 0 4.6-.7 9.3-2.1 13.7l11.7 3c1.2.3 2.4.6 3.5.3 2-.5 3.3-2.4 4.3-4.3 4-7.1 7.6-14.4 10.9-21.9 5.9-1.9 11.8-3.7 17.7-5.6 2.8-.9 6.3-2.8 5.7-5.7-.4-1.8-2.3-2.9-4.1-2.9-1.8 0-3.6.8-5.2 1.5s-3.2 1.5-4.8 2.2c2.6-3.9 3.6-8.8 2.7-13.4-2.7-.5-5.5 1.1-7.3 3.2s-2.7 4.8-3.6 7.5c.5-4.6 1.1-9.3 1.6-13.9-3.9-1.2-7.6 2.8-8.6 6.7-1 3.9-.6 8.2-2.1 12-4.7.8-9.1-6.2-13.2-3.8-1.4 2.4-.5 5.8 1.9 6.9zM22.4 159.3c1.4 2 3.3 3.7 5.2 5.3 1.9 1.5 3.8 2.9 5.9 4.2-.1-4.4.6-8.8 2.1-12.9-3.2-.4-5.6-4-4.7-7.1-3.4-1.6-6.8-3.2-10.1-4.8-2.1 5-1.4 10.9 1.6 15.3z"/><path d="M34.7 23.5s-.1-.3-.3-.8c-.2-.6-.4-1.4-.4-2.5-.1-1.1 0-2.6.4-4.2s1.2-3.4 2.5-5.1c2.5-3.5 6.6-6.4 11.4-8C53.1 1.2 58.6.7 64.4 1c0 0-1.2.8-3.2 2-2.1 1.2-5 2.8-8.3 4.5-3.3 1.8-7 3.7-10.2 6.1-.8.6-1.6 1.2-2.3 1.9-.8.7-1.5 1.4-2.1 2.2-1.5 1.6-2.6 3.5-3.6 5.8zM56.6 26.2s-.1-.3-.1-.9c0-.3-.1-.7-.1-1.1v-.7-.8c0-2.3.7-5.7 2.6-9.4C60.9 9.6 64.4 5.7 69.2 3 71.6 1.7 74.4.7 77.3.3c2.9-.4 6-.2 8.9.7 0 0-.3.1-1 .4-.6.2-1.6.5-2.6 1-2.2.9-5.1 2.4-8.2 4.5-.8.6-1.6 1.1-2.3 1.7l-1.2.9c-.4.3-.8.7-1.2 1-.4.3-.8.7-1.2 1-.4.4-.8.7-1.2 1.1-.4.4-.7.8-1.1 1.2l-.6.6-.5.6c-1.6 1.6-3 3.4-4.4 5.2-1.4 1.8-2.7 3.8-4.1 6z"/></svg>