<svg xmlns="http://www.w3.org/2000/svg" viewBox="0 0 316.7 215.6"><circle fill="#4F9622" cx="157.7" cy="64.7" r="52"/><path fill="#10B2DD" d="M91.1 141.4c-15.7-.2-31.5-2.6-46.6-7.1-3.5-9.7 1.5-20.2 4.3-30.2s1.4-23.5-8.4-26.7c-9.1-3-17.8 5.3-22.8 13.4C5.4 110.2-.8 133.2.1 155.9c.1 2.9.4 5.9 1.5 8.6 1.1 2.5 2.9 4.5 4.7 6.5 13.5 14.7 30.1 26.6 48.3 34.7 1.2-7.9 11.9-13.1 10.3-20.9-.7-3.7-4-6.2-7-8.3-6.2-4.5-12.5-8.9-18.7-13.4 17.3 1.5 34.7 3 52 4.6-.1-8.8-.1-17.5-.1-26.3z"/><path fill="#FF7110" d="M26.2 60.7c2.9-11.9 7.5-23.3 13.7-33.8 2.6-4.4 5.6-8.7 9.9-11.4 3.3-2 7-2.9 10.7-3.7 9.3-2.1 20-3.8 27.8 1.7 6.4 4.5 9 12.8 8.7 20.5-.3 7.7-3.1 15.1-5.7 22.4-.4 1.1-.8 2.4-.4 3.5.5 1.2 1.7 1.9 2.8 2.6 7.3 4.9 9.6 15.4 6.5 23.6s-10.7 14.2-19 17.2-17.3 3.3-26.1 3c-4.5-.1-9.1-.5-13.1-2.5-6.7-3.3-10.5-10.6-12.8-17.8-4.2-12.9-6.2-12.1-3-25.3z"/><path d="M105.5 168.9c-2.3 2.7-7 1.2-8.8-1.8-1.8-3-1.5-6.8-1.2-10.3 1.3-13.7 2.5-27.5 3.8-41.2 2.1 0 4.3 0 6.4-.1 4.4 12.5 8.6 26.8 2.5 38.5-.6 1.1-1.3 2.3-1.6 3.5-1.1 3.8 1.4 8.4-1.1 11.4zM71 204c-.1 1.2.4 2.3.7 3.4.7 2.9-.8 6.1-3.5 7.4-2.6 1.3-6.1.7-8.1-1.5-4-4.5-.6-11.4 2.4-16.6 5.1-9 8.6-18.9 10.2-29.1 1.5 0 3.1.1 4.6.1 4.5 10.7 2.7 23.9-4.6 33-.7 1.1-1.6 2.1-1.7 3.3zM52.1 50.6s.8.2 2.1.7c1.3.5 3.1 1.3 5 2.3.9.5 1.9 1.1 2.9 1.8.5.3 1 .7 1.5 1.1.2.2.5.4.8.6l.4.3.2.2.1.1c0 .1 0 .3.2.6.1.2.4.3.8.3.2 0 .4 0 .6-.1.3-.2.6-.4.9-.7.6-.5 1.2-1.3 1.9-2 0 0 .1.2.1.6.1.4.2 1 .2 1.9 0 .4 0 .9-.1 1.4 0 .1-.1.3-.1.4-.1.2-.1.4-.2.5-.1.4-.3.7-.5 1-.1.2-.2.3-.3.5-.1.2-.3.3-.4.5-.3.3-.6.7-1 1-.2.2-.4.3-.5.5l-.3.3H66c0 .1-.1.1-.2.1-.4-.2-.9-.3-1.4-.5-.5-.2-1-.4-1.5-.5-.5-.2-1.1-.5-1.4-.7-.6-.3-1.3-.6-1.9-1-.6-.4-1.2-.8-1.8-1.3-.6-.5-1.1-1-1.6-1.5-2-2.3-3.6-5.1-4.1-8.4zM75.4 58.4s.3.1.7.2c.4.1 1.1.3 1.8.4l1.2.3c.2.1.4.1.7.2.1 0 .2.1.4.1.1 0 .3.1.3 0 .4-.1.6-.4.6-.6 0-.2-.1-.2 0-.3l.3-.3c.2-.2.4-.4.6-.7.4-.4.9-.8 1.4-1.2 2.1-1.5 4.9-2.3 7.8-1.9 0 0-.2.4-.6 1-.4.6-.9 1.4-1.5 2.4s-1.2 2.1-1.9 3.2c-.2.3-.3.6-.5.9l-.3.4c-.2.4-.4.7-.6 1.1-.8 1.4-1.7 3-2.6 4.5-1.2-.8-2.3-1.6-3.4-2.5-.5-.4-1.1-.9-1.6-1.3l-.7-.7-.4-.5c-.7-1.3-1.6-3-1.7-4.7zM36.7 63.6l.9-.3c.6-.1 1.5-.4 2.7-.4.6 0 1.3-.1 2 0s1.5.2 2.4.3c.8.2 1.7.4 2.6.7.9.3 1.8.7 2.8 1.1 3.8 1.8 7.7 4.8 11.2 8.8 3.5 4 6.4 8.8 9.1 14.3 0 0-.3-.2-.9-.5-.6-.4-1.5-.9-2.5-1.6-2.1-1.4-5-3.6-8.1-6.2-3.2-2.6-6.6-5.6-10.1-8.6-1.8-1.5-3.6-2.9-5.5-4.3-2.1-1.1-4.2-2.3-6.6-3.3z"/><path fill="#381002" d="M91.3 34.4c5.5-2.7 9.1-8.7 9.5-14.9S98.3 7.2 93.8 3c-.5 5.6-4.4 10.8-9.6 12.9-4.3 1.7-9.1 1.4-13.3 3.3s-7.1 7.9-3.8 11c7 4.9 16.5 7.9 24.2 4.2z"/><path fill="#10B2DD" d="M102.9 107.7c-27.1 3.2-54.2 6.3-81.3 9.5.7-7.5 1.4-15.1 2.1-22.6 26.8-.9 53.6-1.3 80.5-1.3.4 4.8 0 9.7-1.3 14.4z"/><path fill="#FF7110" d="M107.8 104.8c-.7-2.5-1.3-5-2-7.4-.8-3.1-1.7-6.5-.8-9.6s4-5.9 7.1-5.2c3.8.9 4.4 7.4.7 9 6.5 2.9 14.4-4.6 20.7-1.4 1.3.7 2.4 1.7 3.2 2.9 4.7 6.8.3 17.5-7.6 20.2-7.7 2.8-16.9-1.4-21.3-8.5z"/><g><path fill="#DB12B0" d="M225.7 138.4c15.7-.2 31.5-2.6 46.6-7.1 3.5-9.7-1.5-20.2-4.3-30.2s-1.4-23.5 8.4-26.7c9.1-3 17.8 5.3 22.8 13.4 12.1 19.3 18.3 42.3 17.4 65.1-.1 2.9-.4 5.9-1.5 8.6-1.1 2.5-2.9 4.5-4.7 6.5-13.5 14.7-30.1 26.6-48.3 34.7-1.2-7.9-11.9-13.1-10.3-20.9.7-3.7 4-6.2 7-8.3 6.2-4.5 12.5-8.9 18.7-13.4-17.3 1.5-34.7 3-52 4.6.1-8.8.1-17.5.2-26.3z"/><path fill="#FF7110" d="M290.5 57.7c-2.9-11.9-7.5-23.3-13.7-33.8-2.6-4.4-5.6-8.7-9.9-11.4-3.3-2-7-2.9-10.7-3.7-9.3-2.1-20-3.8-27.8 1.7-6.3 4.5-8.9 12.8-8.6 20.5.3 7.7 3.1 15.1 5.7 22.4.4 1.1.8 2.4.4 3.5-.5 1.2-1.7 1.9-2.8 2.6-7.3 4.9-9.6 15.4-6.5 23.6s10.7 14.2 19 17.2 17.3 3.3 26.1 3c4.5-.1 9.1-.5 13.1-2.5 6.7-3.3 10.5-10.6 12.8-17.8 4.1-12.9 6.1-12.1 2.9-25.3z"/><path d="M211.3 165.9c2.3 2.7 7 1.2 8.8-1.8 1.8-3 1.5-6.8 1.2-10.3-1.3-13.7-2.5-27.5-3.8-41.2-2.1 0-4.3 0-6.4-.1-4.4 12.5-8.6 26.8-2.5 38.5.6 1.1 1.3 2.3 1.6 3.5 1 3.8-1.5 8.4 1.1 11.4zM245.7 201c.1 1.2-.4 2.3-.7 3.4-.7 2.9.8 6.1 3.5 7.4 2.6 1.3 6.1.7 8.1-1.5 4-4.5.6-11.4-2.4-16.6-5.1-9-8.6-18.9-10.2-29.1-1.5 0-3.1.1-4.6.1-4.5 10.7-2.7 23.9 4.6 33 .7 1.1 1.6 2.1 1.7 3.3zM264.3 47.3s-.1.8-.5 2.2c-.4 1.4-1.1 3.2-2.5 5.2-.7 1-1.6 2-2.6 2.9-.5.5-1.1.9-1.8 1.3-.3.2-.7.4-1 .6l-1.2.6c-1.3.6-2.5 1-3.7 1.4-.1 0-.2.1-.2 0l-.2-.2-.4-.4c-.3-.2-.5-.5-.8-.7-.2-.3-.4-.5-.7-.8l-.3-.4-.3-.4c-.2-.3-.3-.6-.5-.9-.1-.3-.2-.7-.3-.9-.1-.5-.1-1-.1-1.5 0-1 .3-1.9.6-2.8 0 0 .1.2.4.5.3.3.6.8 1.1 1.3.2.3.5.5.8.7l.2.2h.1c.1 0 .2.1.3.1.2 0 .4 0 .6-.1.1 0 .1-.1.2-.1.1-.1.1-.2.1-.3 0-.1.1-.2.1-.2 0-.1-.1-.1.1-.2.4-.4.9-.7 1.4-1.1.5-.4 1-.7 1.5-1.1.5-.4 1-.8 1.6-1.1 2.3-1.4 4.8-2.8 8-3.8zM240.9 55.1v.7c0 .5-.2 1.2-.6 2-.2.4-.4.9-.7 1.3-.1.2-.3.5-.4.7l-.2.3c-.1.1-.2.2-.3.4-1.3 1.3-3.1 2.8-5.3 4.3-.5-.7-.9-1.5-1.4-2.3-.5-.8-1-1.6-1.5-2.5l-.4-.6-.2-.3-.3-.6c-.2-.4-.5-.8-.7-1.2-.9-1.7-1.9-3.7-3.4-6.3h1.2c.8 0 1.9.2 3.1.6 1.3.4 2.7 1.2 4.1 2.4.3.3.7.6 1 1l.5.5h.1c.1 0 .1 0 0 .1 0 .1 0 .2.1.3 0 .1.1.1.2.2.1 0 .1.1.2.1l.5-.1c1.4-.3 2.8-.5 4.4-1zM280.1 60.2s-.3.1-.9.4c-.6.3-1.4.5-2.3 1.1-1.9 1-4.4 2.7-7.2 5.1-2.8 2.4-5.9 5.4-9.8 8.6-3.8 3.2-8.3 6.8-13.8 9.5 0 0 .2-.3.5-.9.3-.6.9-1.5 1.5-2.6 1.3-2.2 3.2-5.2 5.8-8.5 2.6-3.3 6-6.9 10.5-9.7 2.2-1.4 4.8-2.6 7.5-3.2 2.7-.6 5.7-.6 8.2.2z"/><path fill="#381002" d="M225.5 31.4c-5.5-2.7-9.1-8.7-9.5-14.9-.3-6.2 2.5-12.3 7-16.5.5 5.6 4.4 10.8 9.6 12.9 4.3 1.7 9.1 1.4 13.3 3.3s7.1 7.9 3.8 11c-7.1 4.9-16.5 7.9-24.2 4.2z"/><path fill="#DB12B0" d="M213.8 104.7c27.1 3.2 54.2 6.3 81.3 9.5-.7-7.5-1.4-15.1-2.1-22.6-26.8-.9-53.6-1.3-80.5-1.3-.4 4.8 0 9.7 1.3 14.4z"/><path fill="#FF7110" d="M209 101.8c.7-2.5 1.3-5 2-7.4.8-3.1 1.7-6.5.8-9.6s-4-5.9-7.1-5.2c-3.8.9-4.4 7.4-.7 9-6.5 2.9-14.4-4.6-20.7-1.4-1.3.7-2.4 1.7-3.2 2.9-4.7 6.8-.3 17.5 7.6 20.2 7.6 2.8 16.8-1.4 21.3-8.5z"/></g><path fill="#67C12D" d="M147.7 115.7c3.2.6 6.6 1 10 1s6.8-.3 10-1V13.6c-3.2-.6-6.6-1-10-1s-6.8.3-10 1v102.1z"/></svg>