<svg xmlns="http://www.w3.org/2000/svg" viewBox="0 0 388.8 569.2"><path fill="#333" d="M197.6 139.4c7.8 1.5 16.1 3.6 20.8 9.2 3.4 4.2 4.1 9.6 4.7 14.7 3.1 26.9 5.5 56.6-12.8 78.4-7 8.4-16.7 15-22.8 23.9-6.6 9.7-8.4 21.3-10 32.5-32.7 1.2-65.5 2-98.3 2.3C67.1 264.6 55 228.8 42.8 193c-5.8-17.2-11.7-35.1-8.2-52.7 53.4-10.9 109.5-11.2 163-.9z"/><path fill="#FF7110" d="M213.1 93.9c-.1-2.7-.2-5.6-1.3-8-3.5-7.6-13-5.2-19.3-9.2-8-5-8.9-18.2-8.8-29.1.1-4.6.1-9.2.2-13.8 0-2.1 0-4.4-1.2-5.9-.9-1.2-2.3-1.6-3.7-2-23.9-6.2-48.6-12.4-72.6-6.5-2.6 9.5-4.9 19.1-6.6 28.9-4-.2-8-.1-12 .4-1.3.1-2.6.3-3.6 1.1-1.6 1.2-2.1 3.4-2.2 5.4-.3 8.9 5.7 17.5 14 20.7-1.2 12-1.7 24.2-1.6 36.3 0 2.6.1 5.2 1.1 7.5.9 2.3 2.7 3.9 4.3 5.4 30.5 26.9 71.3 35.6 107.6 23 2.2-.8 4.5-1.7 5.6-4.1.8-1.7.8-3.7.9-5.6-.1-14.9-.3-29.7-.8-44.5z"/><path d="M105.7 95.4s.2 0 .5-.1.8-.2 1.4-.4c1.2-.4 3-1.1 5.1-2.1 2.2-1 4.8-2.4 8.4-3.3 1.8-.5 3.8-.8 6.1-.6 2.2.2 4.4.8 6.6 1.6 4.3 1.6 8.4 4.1 12.7 6.4 2.1 1.1 4.3 2.3 6.5 3 2.4.9 4.9 1.6 7.5 2.3 5.2 1.3 10.7 2.3 16.6 2.5 5.9.3 12.1-.2 18.4-1.7 0 0-.7.4-2 1.1-1.3.7-3.3 1.6-6 2.5-5.2 1.8-13.2 3.3-22.6 2.5-4.7-.4-9.7-1.5-14.7-3.2-5.4-2-9.8-5.1-14.3-7.8-2.2-1.3-4.5-2.6-6.8-3.5-2.3-.9-4.4-1.3-6.9-1.2-5.2.4-10.9 2.6-16.5 2zM142.1 121.4s.7-.6 1.9-1.3c1.2-.7 3-1.7 5.2-2.4 2.2-.8 4.7-1.5 7.6-1.7 2.9-.3 6.1-.2 10.1.2 0 0-.6.7-1.8 1.8-.6.6-1.4 1.1-2.3 1.7-.5.3-.9.6-1.5.9-.5.3-1.1.6-1.7.8-2.4 1.1-5.2 1.8-8.3 2-3 .1-6.2-.5-9.2-2zM170.4 47.3s1.2 1.7 3 4.9 4.2 7.9 6.1 14.2c.9 3.2 1.8 6.7 1.9 10.9 0 2.1-.1 4.4-1.3 6.9-.1.3-.3.6-.5.9l-.6.9c-.2.3-.5.6-.7.9l-.7.7c-1 .9-2.3 1.7-3.5 2.2-2.6 1-5.3 1.1-7.7.7-2.5-.4-4.7-1.1-6.9-2.1-4.4-1.9-8.3-4.6-12.1-7.7 0 0 2.3.7 6.1 1.9 1.9.6 4.2 1.2 6.8 1.7 2.6.5 5.5.9 8.3.5 1.4-.2 2.6-.6 3.6-1.3.5-.3.9-.7 1.3-1.2.3-.4.5-.8.7-1.4.4-1.2.6-2.8.6-4.5 0-1.7-.2-3.6-.4-5.5-.9-7.3-2.8-15.5-4-23.6z"/><path d="M113.5 44.8s2.1-.5 5.8-1.1c1-.1 2-.3 3.2-.4 1.2-.1 2.4-.2 3.8-.2 2.7-.1 5.8-.2 9.1 0 1.7.1 3.4.2 5.3.3 1.8.1 3.7.4 5.6.6 3.9.5 8 1.1 12.2 1.9 8.5 1.5 17.7 3.6 27.7 5.4 0 0-2.4.4-6.7.9-2.1.3-4.7.4-7.7.4-1.5 0-3 .1-4.7 0-1.6-.1-3.3-.2-5.1-.3-7.1-.4-15.1-1.5-23.4-2.9-8.2-1.4-16.6-2.9-25.1-4.6z"/><path d="M149.6 51.1s.1.3.3.8c.1.3.2.6.3 1 .1.4.2.9.2 1.4 0 .5.1 1.1.1 1.8s-.1 1.4-.2 2.1c-.1.8-.4 1.6-.6 2.4-.2.9-.7 1.7-1.1 2.6-.4.9-1.1 1.7-1.7 2.6-.3.5-.7.8-1.1 1.2l-1.2 1.2c-.9.7-1.8 1.5-2.9 2.1-.5.3-1.1.6-1.7.9-.6.2-1.2.5-1.8.7-2.5.8-5.2 1.2-8 .7-2.7-.4-5.4-1.6-7.4-3.5h1c.6 0 1.5.1 2.5-.1 2.1-.1 4.9-.7 7.8-2.1.7-.4 1.5-.7 2.2-1.1.4-.2.7-.4 1.1-.6.4-.2.7-.5 1.1-.7.4-.2.7-.5 1.1-.8.4-.3.7-.5 1.1-.8.7-.6 1.4-1.1 2.1-1.8 2.6-2.6 4.9-5.7 6.8-10z"/><path fill="#333" d="M132.9 12.3c-9.3-.7-18.5-2.6-27.3-5.7.1 1.7 1.1 3.3 2.6 4.2H84.7c1.1 3.6 4.6 6.3 8.3 6.5-3.1 11.5-2.2 24 2.5 34.9h4.9c2.5-7.4 5.8-14.5 9.8-21.1l55.8 1.2c10 .2 20.8.2 28.7-6-1.4-3.5-2.7-7.1-5-10.1-3.5-4.6-8.7-7.5-13.8-10.2 0 3.4 0 6.8.1 10.3-4.1-6.8-10.2-12.5-17.2-16.3.9 5.4-.2 11.1-2.9 15.8-7.7-3.7-15.5-7.4-23.2-11.1 0 2.5.1 5.1.2 7.6z"/><path d="M204.7 519.8c-12.6-12.1-28.3-21-45.2-25.5-1-61-2.1-122.1 3.5-182.8-24.5-2-49-4-73.5-5.9-.8 74.8-1.5 149.6-2.3 224.4 26.2 2 52.2 5.1 78.2 9.1-14.5-12-31.7-20.8-49.9-25.6-1.4-56.4-2.7-113.2 7.3-168.7 4.1 55.5 10.1 110.9 18.1 166 21.3 2.2 42.6 5.2 63.8 9z"/><path fill="#333" d="M26.9 253.2c4.4.8 8.9 1.3 13.4 1.8 2.6.3 5.2.6 7.7.9.9.1 1.9.2 2.7-.1 1.5-.6 2.2-2.2 2.8-3.7 2.9-7.4 5.7-14.7 8.6-22.1 4.1-10.4 8.2-21.5 6.4-32.5-3.5-21-27.1-34.5-29.6-55.5-24.1 28.3-37.7 65.4-37.5 102.6 8 4 16.7 6.9 25.5 8.6z"/><path fill="#FF7110" d="M42.2 260.6c-13.6-3.3-27.2-6.7-40.8-10-3.7 26.9-.3 54.8 10 80 .6 1.5 1.3 3.1 1.1 4.8-.2 2-1.7 3.7-2.9 5.3-7.4 9.8-7.9 23-8 35.3 5.6.4 9.7 7.7 15.2 6.5 3.3-.8 5.1-4.4 6.3-7.5 2.3-5.9 4.7-11.8 7-17.7 1.7-4.2 3.4-8.5 6.4-11.9 3-3.4 7.5-5.9 12-5.2 1.1-5.4-.8-11.4-5-15-4.1-3.7-10.3-4.9-15.5-3.1-4.8-20.9 9.6-40.7 14.2-61.5z"/><g><path fill="#A04E6E" d="M235.8 183.2c-4.2 11.6-7.3 24-6 36.3 1.3 12.3 7.8 24.6 18.8 30.2-1.3 11.9-2.6 23.8-3.9 35.6-.7 6-1.2 12.5 1.8 17.6 3.2 5.4 9.6 8 15.6 9.7 16.1 4.4 33 4.7 49.6 4.9 12.5.2 26.5-.2 35.2-9.2 8.6-8.8 8.8-22.6 8.5-34.9-.8-28.8-1.5-57.6-2.3-86.3-.2-6.2-.6-13.1-4.8-17.6-3.3-3.5-8.1-4.8-12.7-5.9-21.6-5-44-6.3-66.1-4-10.1 1.1-20.9 3.3-27.4 11.1-3 3.7-4.8 8.1-6.3 12.5z"/><path d="M258 118c6.2-12.6 12.1-25.4 17.7-38.3 1.3-3 2.6-6.1 2.6-9.3 0-5.3-3.4-10-6.7-14.2-3.2-4-6.9-8.2-11.8-9.6-3.5-1-7.3-.4-10.8.7-5.6 1.8-10.7 5.1-14.7 9.4-8.3 15.6-6.9 35.8 3.2 50.2 4.1 5.8 9.6 11 11 18 4 1.6 7.6-3 9.5-6.9z"/><path fill="#FF7110" d="M301.9 166.7c4.3-2.4 8.6-4.9 12.1-8.3 7.4-7.3 10.5-18.2 10.4-28.6 0-10.4-2.8-20.6-5.6-30.7-1.5-5.4-3-10.9-4.5-16.3-1.1-4-2.3-8.2-4.9-11.4-4.6-5.8-12.5-7.6-19.8-8.5-10.1-1.2-20.4-1.4-30.6-.5-8.3 15.5-15.3 32-17.3 49.4s1.4 36 12.1 49.9c4.5 5.8 10.5 10.9 17.7 12.6 10.4 2.3 21-2.4 30.4-7.6z"/><path d="M349.9 70.5c-8.2-19.4-45.5-24.3-65.6-30.7-8.2-2.6-18.4-3.2-24 3.3-6.5 7.6-2.1 19.8 5.3 26.6s17.2 10.5 24.4 17.4c19.1 18.1 16.1 52.7 37.4 68.2 9.3 6.8 22.2 8.3 32.8 3.8 11.7-14.5 5.1-26.4 3.4-39.7-4 3.6-7.9 7.2-11.9 10.8-.7.7-1.6 1.4-2.6 1.4-1.6.1-2.8-1.5-3.6-2.9-8.1-14.7 11-42.8 4.4-58.2z"/><path fill="#8E0303" d="M251.3 141.2s.3-.1 1-.4c.7-.2 1.6-.6 2.9-.9 2.5-.6 6.3-1.1 10.8-1.2 4.5-.1 9.6.4 14.5-.3 2.5-.4 5-1.1 7.5-2.5 2.6-1.4 5.1-3.5 7.6-5.9 0 0-.1.4-.4 1.2-.2.8-.7 1.8-1.3 3.2-.7 1.3-1.6 2.9-3.1 4.5-1.4 1.6-3.4 3.2-5.8 4.4-2.4 1.2-5.3 1.9-8.2 2.1-2.9.2-5.8 0-8.7-.4-5.7-.9-11.1-2.5-16.8-3.8z"/><path d="M262.9 101.9l.9-.3c.6-.2 1.4-.5 2.4-.9 2-.7 4.8-1.8 8.4-2.9 3.5-1.1 7.9-2.2 13.2-2.2 2.6.1 5.4.4 8.1 1.4 2.7 1 5.3 2.7 7.2 4.9 0 0-.4-.1-1-.2s-1.5-.3-2.7-.4c-2.3-.3-5.4-.3-9.1.2-3.7.4-7.9 1.3-12.6 1.8-2.3.2-4.8.3-7.4.2-2.5-.2-5.1-.7-7.4-1.6zM239.3 92.7s.7 0 1.8.2 2.5.6 4 1.4c1.5.8 2.9 1.9 4.1 3.5 1.2 1.6 2.2 3.7 3.2 6.6 0 0-.7 0-1.9-.1-.6-.1-1.3-.2-2-.4-.8-.2-1.6-.5-2.4-.9-1.7-.8-3.3-2.1-4.5-3.8-1.3-1.7-2.1-3.8-2.3-6.5zM251.6 114.1l-.6.3c-.4.2-1 .5-1.7.8-1.3.8-2.9 2-4.2 3.7-.6.8-1.2 1.8-1.6 2.7-.4 1-.7 2-.8 2.8v1.1c.1.4.4.8.9 1.3 1.2.9 3.1 1.6 5.3 2.1 0 0-.2.2-.7.4-.4.3-1.1.6-2 1-.9.3-2.1.7-3.6.6-.4 0-.8-.1-1.2-.2-.4-.1-.9-.3-1.3-.5-.9-.4-1.8-1.2-2.5-2.1-.7-1-1.1-2.1-1.3-3.3-.2-1.2-.1-2.3.2-3.4.5-2.2 1.7-4.1 3.3-5.6 1.6-1.5 3.7-2.5 5.8-2.8 2.2-.4 4.4.1 6 1.1zM264.5 569.2c4.6-11.9 16.7-21.1 30.5-23.2 4.9-.7 10.4-.9 13.7-4.2 2.3-2.3 2.9-5.5 3.3-8.5 4.7-34.5.4-69.5-3.9-104-3-23.9-6-47.7-8.9-71.6-9.1 58.8-18.2 117.7-27.3 176.5-25.6 3.3-51.3 5.5-77.1 6.7 11.8-15.3 35.4-18 56.1-19.4 5.6-69.5 5.9-139.4 1-208.9 32 12.1 68.6 13.9 101.9 5 8.4 50.3-10.4 101-10 151.8.2 26.2 5.6 52.1 10.9 77.8-30.7 4.8-61 12.2-90.2 22z"/><ellipse cx="280.4" cy="104.3" rx="7.1" ry="6.5"/><path fill="#FF7110" d="M351.3 343.8c7-4.4 8.3-14 8-22.3-1.2-32.2-14.2-62.7-29.9-90.8-6.3-11.3-13.2-22.8-14-35.7-.7-12.9 7.3-27.3 20.1-28.7 8.1-.9 16.1 3.8 21.2 10.2 5.1 6.4 7.9 14.3 10.2 22.2 12.5 42.3 15.3 87.5 8.2 131 15 11 14.7 33.1 12.8 51.6-.2 2.2-.6 4.7-2.5 6-1.7 1.2-4 .7-6 .1-11.4-3.9-19.7-15.6-19.5-27.7-3.9.1-8.1.2-11.4-1.8-3.4-2-5.5-6.7-3.3-9.9 1.4-2.1 4-2.9 6.1-4.2z"/></g></svg>